<?xml version="1.0" encoding="UTF-8"?>
<svg id="Layer_1" data-name="Layer 1" xmlns="http://www.w3.org/2000/svg" viewBox="0 0 1517.29 1476.57">
  <defs>
    <style>
      .cls-1 {
        opacity: .2;
      }

      .cls-1, .cls-2 {
        fill: #fafafa;
        stroke-width: 0px;
      }
    </style>
  </defs>
  <path class="cls-2" d="M1073.94,769.04h-17.36c-239.02,0-478.04,0-717.06-.02-6.92,0-13.91.17-20.75-.67-15.78-1.95-26.85-15.05-26.55-30.64.28-15.01,11.11-27.51,26.22-29.43,6.84-.87,13.83-.7,20.75-.7,239.02-.03,478.04-.03,717.06-.03,5.83,0,11.66,0,21.49,0-5.7-6.22-8.98-10.04-12.51-13.6-62.72-63.37-125.48-126.7-188.21-190.07-3.48-3.51-7.12-6.97-10.01-10.95-8.92-12.27-7.72-29.02,2.48-39.57,10.91-11.28,27.57-12.7,40.52-3.1,3.94,2.93,7.32,6.66,10.8,10.17,82.25,83.08,164.48,166.16,246.69,249.27,21.16,21.4,21.24,35.68.24,56.92-82.9,83.82-165.88,167.56-248.74,251.42-9.45,9.56-20.2,18.82-33.65,13.31-8.99-3.68-18.05-12.19-22.44-20.89-6.1-12.11.13-23.82,9.61-33.34,40.18-40.38,80.05-81.07,120.39-121.29,27.66-27.58,55.92-54.55,83.91-81.8-.96-1.66-1.92-3.33-2.88-4.99Z"/>
  <circle class="cls-1" cx="758.64" cy="738.29" r="704"/>
</svg>