<?xml version="1.0" encoding="UTF-8"?>
<svg id="Layer_1" data-name="Layer 1" xmlns="http://www.w3.org/2000/svg" viewBox="0 0 1920 1080">
  <defs>
    <style>
      .cls-1 {
        fill: none;
        stroke: #1c1c1c;
        stroke-miterlimit: 10;
        stroke-width: 5.3px;
      }
    </style>
  </defs>
  <path class="cls-1" d="M180,1075.28s33.24-107.45,139.92-40.97c106.68,66.48,218.77,16.23,272.88,20.87,54.11,4.64,357.92-23.96,382.66-36.33,24.74-12.37,10.82-142.24,3.48-129.1-7.34,13.14-1.55,49.09-14.3,62.23-12.76,13.14-96.24,7.34-97.4,16.23s97.79-11.98,98.18,0c.39,11.98-76.92,27.83-115.96,29.76-39.04,1.93-209.11,22.8-234.23,17.39-25.12-5.41-31.31-18.94-28.6-27.83,2.71-8.89,47.54-94.7,57.21-107.45,9.66-12.76,105.91-93.54,105.13-102.04-.77-8.5-13.91-34.4-20.1-30.92-6.18,3.48-130.64,146.49-125.62,153.45,5.02,6.96,44.84-43.29,48.7-52.57,3.87-9.28,44.84-99.34,51.79-168.52,6.96-69.19,8.12-172.78,1.55-178.96-6.57-6.18-85.42-5.8-107.07,25.51-21.65,31.31-35.56,81.56-26.67,78.08,8.89-3.48,27.44-62.62,52.95-66.48,25.51-3.87,40.58,9.66,40.58,20.87s-85.03,424.4-86.97,420.15c-1.93-4.25-43.29-281.77-37.49-303.81,5.8-22.03,58.12-113.25,85.81-122.91,27.69-9.66,29.76,8.89,28.22,19.71-1.55,10.82-48.7,202.92-42.13,205.63,6.57,2.71,57.59-3.48,64.94-17.01,7.34-13.53,19.33-220.32,25.51-251.24,6.18-30.92,34.79-57.21,78.85-52.95,44.06,4.25,74.6,102.81,64.94,135.67-9.66,32.85-9.66,35.95-4.25,45.61,5.41,9.66,8.89,103.59,23.58,97.79,14.69-5.8,45.61-51.79,54.11-136.06,8.5-84.26-25.12-177.8-63-186.69-37.88-8.89-96.63,35.17-90.45,35.56,6.18,.39,51.41-37.11,93.15,35.56,41.74,72.67-6.18,226.11,5.02,236.55,11.21,10.44,59.14-94.31,80.78-102.81,21.65-8.5,56.05,45.22,61.07,37.88,5.02-7.34,14.3-56.82,22.42-71.51s17.01-18.55,16.62-54.89c-.39-36.33-8.7-56.05-12.37-77.11-3.67-21.07-.39-34.21-5.41-38.85s-9.47-1.74-10.44,5.02c-.97,6.76-4.83,56.43-1.93,50.25,2.9-6.18,7.34-68.99-.58-94.7-7.92-25.7-17.78-24.74-17.78-16.43s0,77.3,3.29,69.19c3.29-8.12,3.67-78.27,1.55-87.16-2.13-8.89-16.43-11.6-17.59,6.18-1.16,17.78,2.13,95.47,2.9,87.35,.77-8.12,1.93-91.8-7.54-93.73-9.47-1.93-15.85,126.59-11.21,126.01s-9.86-31.11-24.54-34.79c-14.69-3.67-18.94,4.06-16.81,7.92s18.36,9.86,25.7,38.85c7.34,28.99,6.96,39.43,19.91,59.52,12.95,20.1-24.16,70.54-19.71,72.09,4.44,1.55,51.02,29.38,68.99,61.46,17.97,32.08-105.52,267.86-164.27,256.26-58.75-11.6-131.03-238.29-118.86-226.69,12.18,11.6,82.33,215.68,121.17,207.56,38.85-8.12,117.38-156.04,129.87-157.12,12.49-1.08,31.89,44.06,26.09,74.79-5.8,30.73-35.75,62.04-32.66,48.51,3.09-13.53,11.16-42.07,21.26-42.52,10.1-.45,20.49,5.8,39.43-28.99,18.94-34.79-.77-171.62-1.93-157.31-1.16,14.3-2.32,104.75,5.8,112.86,8.12,8.12,24.74,35.17,29.76,18.17,5.02-17.01-11.6-138.37-5.02-142.63,6.57-4.25,31.69,.77,50.25-7.73s19.33-33.63,30.54-21.26c11.21,12.37,80.4,157.31,79.62,227.66-.77,70.35-113.25,79.24-123.3,33.24-10.05-46-38.27-219.16-27.06-212.2,11.21,6.96,11.98,36.72,32.85,30.92,20.87-5.8,47.93-28.6,46.77-37.88-1.16-9.28-14.69-36.72-14.69-30.15s-17.78,26.67-42.13,26.67-54.89-107.45-54.89-99.34,19.13,80.01,25.7,80.2c6.57,.19,58.17-5.8,57.59-29.96-.58-24.16-19.52-52.18-15.27-69.19,4.25-17.01,36.53-69.96,42.71-94.7,6.18-24.74,23.58-30.73,21.07-36.14s-29.38,3.48-35.95,22.03c-6.57,18.55-7.73,11.02-7.15-4.06,.58-15.07,12.56-63.2,9.08-67.45-3.48-4.25-11.21-5.22-15.46,5.8-4.25,11.02-24.16,74.6-15.85,63.2,8.31-11.4,24.16-72.85,27.64-80.39,3.48-7.54-15.46-15.85-24.74,8.88-9.28,24.74-25.7,72.28-21.07,66.1,4.64-6.18,25.9-71.31,20.1-75.76-5.8-4.45-17.39,1.35-22.42,25.7-5.02,24.35-10.24,43.87-10.82,69.57-.58,25.7-6.57,35.17-26.48,37.69-19.91,2.51-25.7-17.39-20.68-15.46,5.02,1.93,26.48,17.78,35.37-1.35,8.89-19.13,2.51-38.46,5.22-63.2,2.71-24.74,18.36-27.06,6.18-34.21-12.18-7.15-52.57,6.57-52.57,23.38s31.69,42.32,36.72,31.89c5.02-10.44,4.25-34.98,12.56-50.44,8.31-15.46,17.97-19.33,17.78-36.72-.19-17.39-13.53-30.15-16.04-52.37-2.51-22.22-30.15-69.38-54.5-81.75-24.35-12.37-67.25,8.7-82.91,47.93-15.65,39.23-17.2,54.31-11.98,82.33,5.22,28.02,7.92,45.22,5.41,43.48-2.51-1.74-36.33-54.89-57.01-50.25-20.68,4.64-17.97,42.71,8.7,60.68,26.67,17.97,36.53,5.6,35.75-4.64-.77-10.24-34.98-59.91-43.29-46.38-8.31,13.53,32.66,15.65,35.95-6.76,3.29-22.42-8.31-64.74,27.83-107.45,36.14-42.71,77.11-24.35,85.23-27.06,8.12-2.71,4.64-23-18.75-23s-26.28,4.64-28.02-2.71c-1.74-7.34,9.28-14.69-12.37-12.95-21.65,1.74-22.42,5.41-34.98,2.13-12.56-3.29-39.81,1.16-64.74,23.77-24.93,22.61-28.99,67.64-47.35,70.54-18.36,2.9-48.32-32.27-31.69-70.73,16.62-38.46,73.44-53.15,98.76-47.93,25.32,5.22,20.87,22.03,13.91,23.19s-51.6-1.74-64.36,44.84c-12.76,46.58-28.99,85.23-24.16,115.96,4.83,30.73,3.67,66.29,12.37,79.43,8.7,13.14,75.37,38.27,63.39,28.8-11.98-9.47-50.25-23.77-55.27-54.69-5.02-30.92,12.18-74.6,2.13-77.69s-42.13,17.01-35.95-8.5c6.18-25.51,27.44-21.26,6.96-27.83s-35.17-10.44-31.31-64.94c3.87-54.5,78.08-59.91,78.46-68.8,.39-8.89-19.94-42.9-50.94-47.16-31-4.25-311.23-6.96-333.65-4.64-22.42,2.32-50.25,25.51-50.63,78.85-.39,53.34,97.94,853.92,117.12,889.39,19.17,35.46,125.23,30.15,107.07,22.03-18.17-8.12-60.3-.39-83.49-43.68-23.19-43.29-113.64-857.69-112.09-889.77,1.55-32.08,7.73-41.36,88.51-37.11,80.78,4.25,273.66,13.53,372.99,17.01,99.34,3.48,234.43,125.04,289.5,133.16,55.08,8.12,15.07-199.44,46.96-210.46,31.89-11.02,308.44-9.28,310.76,0,2.32,9.28,23.19,221.48,9.28,229.59-13.91,8.12-180.89,13.33-190.17,10.44-9.28-2.9-65.13-64.94-75.56-125.23-10.44-60.3,49.47-69.96,71.12-41.74,21.65,28.22,6.96-14.69,48.7-18.55,41.74-3.87,48.32,76.14,13.53,125.23-34.79,49.09-63.39,67.64-93.92,68.41-30.54,.77-59.52-10.05-99.34,5.41-39.81,15.46-95.47,54.5-88.51,44.84,6.96-9.66,41.74-60.68,83.88-86.19,42.13-25.51-3.48-180.12,30.15-196.74,33.63-16.62,255.49-17.39,266.7,2.71,11.21,20.1,7.73,246.99,29.38,253.17,21.65,6.18,62.62-76.53,99.72-24.74,37.11,51.79,21.65,29.38,72.67,25.51"/>
</svg>