<?xml version="1.0" encoding="UTF-8"?>
<svg id="Layer_1" data-name="Layer 1" xmlns="http://www.w3.org/2000/svg" viewBox="0 0 1920 1080">
  <defs>
    <style>
      .cls-1 {
        stroke-width: 0px;
      }

      .cls-2 {
        fill: none;
        stroke: #000;
        stroke-miterlimit: 10;
        stroke-width: 2px;
      }
    </style>
  </defs>
  <path class="cls-2" d="M1060.11,348.86s23.89,64.79,72.08,49.81c48.19-14.98,6.48-96.37,21.66-106.7,15.18-10.33,27.53,49,33.41,40.69,5.87-8.3-2.83-37.66,3.64-36.14,6.48,1.52,29.05,22.88,31.79,22.78,2.73-.1,14.58-12.35,23.69,2.53,9.11,14.88.3,32.39-17.72,28.34-18.02-4.05-12.35-30.07,3.44-30.37,15.79-.3,14.68,23.18-.51,20.65s-1.01-17.92-5.97-30.98c-4.96-13.06-12.65-32.09-15.08-30.37-2.43,1.72-8.91,20.14-7.54,19.49,1.37-.66,6.63-7.29,8.15-6.73s8.05,19.89,9.06,19.13.05-9.06,6.48-15.79c6.43-6.73,22.12-15.72,51-8.71,28.88,7.02,42.11,29.42,42.11,49.54s-10.53,41.98-16.74,43.87c-6.21,1.89-22.14-9.18-22.95-29.96-.81-20.79,1.35-40.63-2.29-44.14-3.64-3.51-54.39-9.31-48.46-5.8,5.94,3.51,43.33,10.33,51.9,7.22,8.57-3.1,13.02-3.37,21.33.07,8.3,3.44,5.53,39.41,3.1,41.91-2.43,2.5-6.68-.47-7.96-3.31-1.28-2.83-.61-21.06,1.55-22.47,2.16-1.42,13.9-1.01,16.74,4.32,2.83,5.33-3.1,48.93-15.66,61.48-12.55,12.55-30.1,12.96-41.57-.13-11.47-13.09-13.02-38.6-11.81-40.12,1.21-1.52,29.05-5.16,28.75-4.35-.3.81-2.63,9.52.61,19.84,3.24,10.33,9.31,16.74,17.55,17.82,8.23,1.08,7.02,3.58,1.08,8.23-5.94,4.66-24.77,13.56-37.25,12.35s1.48-6.07-6.61-14.51c-8.1-8.44-24.97-12.35-26.18-3.51-1.21,8.84,15.72,19.64,21.66,14.91,5.94-4.72-7.83-18.63-15.72-13.36-7.9,5.26,13.36,10.8,9.52,7.09-3.85-3.71-19.37-5.53-27.33-16.33-7.96-10.8-11.34-38.8-9.45-48.66,1.89-9.85,17.41-7.83,13.77-6.61-3.64,1.21-28.68,16.67-19.77,52.91,8.91,36.24,59.52,58.71,52.64,80.17-6.88,21.46-73.09,66-59.73,101.64,13.36,35.63,120.67,16.6,113.38,48.19-7.29,31.58-104.87,93.54-100.02,120.67,4.86,27.13,71.67,53.85,52.23,85.84-19.44,31.99-61.95,85.84-13.36,88.88,0,0,113.18,5.26,117.23,1.01,4.05-4.25,41.3-157.92,38.67-142.13-2.63,15.79-20.04,129.37-8.91,138.69,11.14,9.31,80.38,3.64,84.63,1.21,4.25-2.43,14.88-95.36,15.49-139.09.61-43.73-5.77-65.19-2.13-59.79,3.64,5.4-22.07,4.32-82-9.65-59.93-13.97-104.27-34.22-103.25-40.49,1.01-6.28,24.9-41.91,29.46-79.26,4.56-37.35,7.86-48.62,8.4-42.28.54,6.34,2.83,45.49-31.18,45.89-34.01.4-42.62-16.26-35.23-33.27,7.39-17.01,4.66-20.14,4.66-14.88s-6.48,22.37,16.4,27.33c22.88,4.96,22.17-10.83,19.94-19.64-2.23-8.81-3.75-26.12,2.53-32.09,6.28-5.97,16.6-14.1,17.88-22.61,1.28-8.5-3.64-6.01-4.79-3.31-1.15,2.7-14.31,11.14-11.95,12.15s17.82-13.56,14.44-18.83c-3.37-5.26-24.84,18.42-21.33,16.6,3.51-1.82,21.8-15.79,18.15-22.34-3.64-6.55-22.14,14.64-24.36,14.58-2.23-.07,12.35-8.13,9.82-12.69s-12.05,3.24-21.97.27c-9.92-2.97-27.53-12.22-17.41-31.65,10.12-19.44,38.57-20.04,44.44-6.98,5.87,13.06-15.16,28.05-29.66,27.94-14.51-.11-13.87-27.64,14.88-31.79,28.75-4.15,19.64,34.11,15.69,36.75-3.95,2.63-10.06-5.13-13.36-3.04-3.31,2.09-8.03,9.79-16.2,11.88-8.17,2.09-7.49,4.99-5.13,12.01,2.36,7.02-1.75,7.69,1.75,11.41,3.51,3.71,3.07,8.74,1.25,13.7s-6.68,30.98-6.68,24.19-1.01-40.09,11.64-32.29c12.65,7.79,19.13,15.69,30.67,8,11.54-7.69,12.25-15.89,12.25-6.04s-20.38,61.28-17.95,50.08c2.43-11.2,18.76-35.09,24.97-55.61s15.12-59.39,12.55-53.99c-2.56,5.4-20.11,26.18-18.22,20.38,1.89-5.8,11.2-16.33,4.18-13.77-7.02,2.56-16.87,5.26-14.44,6.34s34.28-38.33,38.6-34.55c4.32,3.78.13,10.66-1.08,7.29-1.21-3.37,3.91-13.23,17.82-13.9,13.9-.67,34.28,5.53,42.92,3.64,8.64-1.89,10.12-4.59,11.2.81,1.08,5.4-.54,22.51,19.6,23.11,20.14.61,30.86-6.78,32.23-10.83s2.59-30.17,5.63-39.28c3.04-9.11,11.71-20.65,8.27-17.55-3.44,3.1-14.17,7.02-18.02,2.02-3.85-4.99-5.47-6.88-5.53-4.59-.07,2.29,4.72,9.79,19.23,1.28,14.51-8.5,13.5-19.44,6.34-19.91-7.15-.47-22.07,7.76-22.2,3.85-.13-3.91,10.12-24.03,9.85-21.39-.27,2.63-13.9,14.04-34.55,13.77-20.65-.27-30.84-10.6-33-8.37-2.16,2.23,1.35,17.95-1.55,18.02-2.9.07-3.71-15.52-5.67-18.76s2.16-4.93,7.02-3.44c4.86,1.48,19.98,4.66,34.62,3.78,14.64-.88,22.07-12.28,20.04-14.44-2.02-2.16-18.96-11.14-19.91-15.59-.94-4.45,3.85-6.48,2.9-8.57-.94-2.09-7.9-8.3-14.51-9.18-6.61-.88-25.21,4.93-38.47,15.66-13.26,10.73-13.56,24.36-9.85,30.1,3.71,5.74,18.96,11.27,15.93,10.06s-11.95-7.96-5.74-11.81c6.21-3.85,20.85-6.55,29.69-13.23,8.84-6.68,14-21.46,16.84-22.3,2.83-.84,9.35.3,22.3,8.13,12.96,7.83,38.47,23.15,44.68,35.09,6.21,11.95-5.4,19.17-3.85,17.88,1.55-1.28-2.97-12.08-16.8-23.82-13.83-11.74-34.28-24.63-36.31-28.28-2.02-3.64,17.72-7.19,39.58,3.24,21.87,10.43,27.03,34.72,22.47,43.43-4.56,8.71-13.26,20.21-11.51,19.27s-2.09-17.68-.2-12.42c1.89,5.26-4.79,16.33-10.46,24.5-5.67,8.17-8.25,7.32-7.14,6.66s-1.52-15.84-5.62-10.98c-4.1,4.86-21.16-7.29-18.78-6.23s-33.86,13.82-43.98,8.15c-10.12-5.67-7.59-24.3-6.68-22.07.91,2.23,5.13,17.65,8.37,19.54,3.24,1.89,8.57-1.55,11.34.88,2.77,2.43-.2,19.3-3.1,24.36-2.9,5.06,3.94,27.88,22,28.61,18.06.73,22.07-10.39,31.25-5.26,9.18,5.13-.74,7.96,19.91,19.17,20.65,11.2,35.09,20.65,38.06,31.85,2.97,11.2,8.44,104.27,7.63,129.57-.81,25.31-25.98,60.2-43.26,57.63-17.28-2.56-15.52-14.58-17.01-11.47-1.48,3.1,11.47,10.93,24.43-8.91,12.96-19.84,6.88-27.33,10.43-27.74s15.08,19.03,11.14,18.83-17.72-17.11-21.26-28.75c-3.54-11.64-1.62-19.08-2.83-16.6s-13.82,5.62-22.78.71-13.41-10.68-13.77-4.5,13.01,22.42,10.43,17.77-13.16-15.79-16.45-20.25c-3.29-4.45-1.87,11.03.86,16.2,2.73,5.16,8.66,8.4,6.33,5.47s-9.82-8.71-12.05-14.22-5.01,2.43-1.92,10.43,7.04,17.06,17.87,16.8c10.83-.25,13.97-5.25,11-4.98-2.97.27,2.02,37.52,4.39,39.21s20.65-10.93,21.66-22.41c1.01-11.47-12.15-22.14-7.22-30.23,4.93-8.1,17.82-15.18,17.34-31.65-.47-16.47-19.54-35.43-40.8-26.83-21.26,8.6-13.94,37.83-16.03,36.81-2.09-1.01,1.69-11.61,11.34-1.55,9.65,10.06,36.92,12.55,40.36-.74,3.44-13.29-9.62-33.49-28.75-28.28-19.13,5.22-9.65,31.31-7.9,25.91,1.75-5.4-20.79-14.98-27.26-2.43-6.48,12.55,0,68.84,4.72,65.6,4.72-3.24,8.23-19.44,8.5-9.18.27,10.26-.81,35.63.94,32.26,1.75-3.37,9.04-35.36,9.04-30.37s-3.78,60.74-7.83,63.03c-4.05,2.29-64.08-13.8-85.64-64.52-21.56-50.72,8.81-145.47,3.04-135.14-5.77,10.33-43.43,53.15-38.26,107.2,5.16,54.06-14.58-24.9-15.79-.91-1.21,23.99,15.79,61.65,4.25,58.61-11.54-3.04-23.38-31.28-32.19-21.56-8.81,9.72-29.88,132.41-32.25,184.34-2.37,51.93-3.28,78.96,4.92,84.12,8.2,5.16,397.78,0,397.78,0"/>
  <path class="cls-1" d="M1686.28,441.77c-2.95-1.86-6.25-3.51-9.61-4.28-10.98-2.54-21.97-5.59-33.13-6.71-32.18-3.24-64.44-5.66-96.68-8.31-1.15-.09-2.38.81-3.57,1.25,1.22.6,2.41,1.65,3.66,1.73,17.76,1.22,35.56,2.03,53.3,3.5,22.79,1.89,45.61,3.89,67.91,9.34,5.05,1.23,9.96,3.1,14.82,4.96,1.3.5,3.26,2.23,3.09,3-.3,1.37-1.77,2.96-3.14,3.52-4.42,1.82-8.91,3.92-13.57,4.67-20.77,3.3-41.53,7.04-62.44,9.02-56.47,5.34-113.13,6.47-169.83,6.14-1.42,0-2.84-.14-4.26-.21.04-.03.08-.07.11-.1-2.11.37-4.24.58-6.39.58-2.38,0-4.68-.22-6.92-.61-.99-.03-1.97-.06-2.96-.09-.41.01-.82.03-1.23.03-1.26,0-2.49-.07-3.71-.18-3.62-.11-7.24-.21-10.86-.32-5.34-.05-10.68-.14-16.02-.27-7.12-.17-14.04-.09-21.01-.95-1.38-.05-2.75-.09-4.13-.14-2.57.16-5.14.08-7.7-.26-.03,0-.06,0-.09,0-.05,0-.11-.01-.17-.03-1.5-.21-3-.51-4.51-.89-.66.63-1.79.86-3.35.74-11.4-.93-22.86-1.2-34.21-2.48-21.89-2.47-43.74-5.26-65.55-8.37-6.22-.89-12.3-3.14-18.29-5.2-2.08-.71-3.7-2.74-5.53-4.17,1.76-1.46,3.32-3.35,5.33-4.29,3.17-1.48,6.57-2.73,10-3.37,13.04-2.44,26.14-4.59,39.21-6.89,1.72-.3,3.39-.85,5.09-1.29-.08-.54-.16-1.08-.24-1.62-1.4-.08-2.85-.41-4.2-.19-12.96,2.11-25.95,4.08-38.83,6.61-5.06.99-10.04,2.95-14.71,5.18-2.06.99-4.63,3.88-4.49,5.71.17,2.17,2.63,4.82,4.79,6.03,3.52,1.97,7.5,3.53,11.47,4.23,17.23,3.05,34.46,6.35,51.82,8.38,19.07,2.22,38.28,3.13,57.43,4.64,1.33.1,2.64.39,4.5.67-.02.1-.04.19-.06.29,1.04-.09,2.08-.15,3.13-.15,0,0,0,0,0,0,0-.04.02-.08.03-.12,4.17.13,8.34.25,12.52.38.24,0,.47,0,.71.02,4.82.15,9.66.29,14.48.44.61-.03,1.21-.05,1.82-.05,1.46,0,2.89.08,4.3.23,3.7.11,7.39.22,11.1.33.94-.07,1.88-.12,2.82-.12,1.83,0,3.61.13,5.36.37,1.63.05,3.27.1,4.9.15.73-.04,1.46-.07,2.19-.07,1.58,0,3.13.1,4.65.28,2.92.09,5.83.18,8.76.26,0,.09-.02.18-.02.28,1.29.18,2.56.41,3.8.71.81-.88,2.04-1.15,3.83-1.13,14.97.16,29.97.53,44.92-.05,42.22-1.61,84.46-2.95,126.6-5.79,22.19-1.5,44.23-5.67,66.25-9.18,5.72-.91,11.36-3.42,16.59-6.08,4.69-2.39,4.6-6.84.12-9.66Z"/>
  <path class="cls-1" d="M1273.77,633.18c.41-.06.82-.11,1.23-.17,1.12-.04,2.21.02,3.27.17h.53c1.86-.4,3.76-.61,5.67-.61.3,0,.59.01.89.02,8.26-.47,16.2-.92,24.11-1.37-12.01.05-24.03-.02-36.04.03-13.94.06-27.88.35-41.82.22-10.52-.1-20.96-1.29-31.43-1.92-1.72-.01-3.44-.04-5.17-.04-.8,0-1.45-.1-2.01-.26-.92-.03-1.84-.06-2.76-.07-.83,0-1.64-.06-2.45-.15-2.14,0-3.8.1-5.43-.02-19.59-1.37-39.22-2.37-58.76-4.25-30.4-2.92-60.68-6.92-89.8-16.64-7.08-2.36-13.78-6.4-19.99-10.65-4.43-3.03-4.03-7.46-.13-11.26,1.7-1.65,3.64-3.26,5.76-4.25,5.62-2.62,11.21-5.67,17.16-7.14,16.57-4.09,33.32-7.45,49.98-11.17,1.2-.27,2.27-1.18,3.39-1.79-1.13-.44-2.35-1.4-3.39-1.23-20.09,3.25-40.21,6.54-59.18,14.29-5.54,2.26-10.92,5.4-15.6,9.12-5.74,4.55-5.5,10.59-.22,15.75,1.8,1.76,3.83,3.5,6.09,4.52,6.67,3.03,13.27,6.62,20.3,8.31,17.69,4.26,35.45,8.84,53.46,11.01,30.97,3.74,62.15,5.81,93.26,8.4,1.38.11,2.35.38,3.07.9.91-.07,1.82-.1,2.76-.06h.3c.39,0,.78.02,1.17.04-.02-.07-.03-.15-.05-.22,1.41-.08,2.54-.19,3.65-.2.31-.01.62-.03.93-.03.53,0,1.04.02,1.56.06.99.02,1.98.03,2.97.05.67-.06,1.35-.1,2.03-.1.97,0,1.93.07,2.86.18,11.18.17,22.37.36,33.54.65.4.01.84.08,1.28.19.34-.01.68-.03,1.02-.03,1.3,0,2.56.11,3.8.27.27-.04.54-.08.8-.11-.09-.15-.18-.29-.27-.44h27.62Z"/>
  <path class="cls-1" d="M1747.14,682.34c-2.16-1.98-4.62-3.97-7.31-4.96-9.38-3.45-18.76-7.09-28.43-9.52-37.16-9.35-75.22-12.3-113.29-14.96-1.3-.09-2.64.41-3.96.64,0,.46-.02.92-.03,1.38,1.36.34,2.69.87,4.07,1.01,23.9,2.37,47.86,4.23,71.68,7.16,20.31,2.5,40.55,5.93,59.82,13.28,5.09,1.94,10.1,4.49,14.56,7.6,5.01,3.49,5.01,7.84,0,11.4-4.32,3.06-9.18,5.63-14.15,7.45-19.87,7.31-40.68,10.66-61.53,13.61-40.07,5.68-80.41,7.98-120.83,9.17-2.33.07-4.67,0-7.51,0,.1-.21.18-.38.27-.58-.67.04-1.34.07-2.01.1-1.82.48-3.7.74-5.59.74-7.81,0-15.63.03-23.44.13-1.51.02-3.01.08-4.52,0-.62-.05-1.24-.13-1.87-.2-9.34-.02-18.67-.08-28.01-.19-.53,0-1.08-.15-1.63-.36-1.04-.06-2.09-.12-3.13-.15-.95.19-1.92.3-2.9.33.03.03.07.07.1.1-22.75-.74-45.33-1.74-67.75-3.46-5.21-.06-10.42-.18-15.62-.43-25.44-1.22-50.63-6.55-75.66-12.03-1.99-.42-3.98-.83-5.97-1.27-.16.66-.33,1.33-.49,1.99,1.5.6,2.96,1.5,4.52,1.76,18.93,3.14,37.79,7.1,56.85,9.05,29.77,3.05,59.66,5.26,89.56,6.72,4.55.22,8.98.46,13.2,1.19,1.11.06,2.23.12,3.34.17,2.89.13,5.79.25,8.67.43-.13-.12-.28-.24-.41-.36h33.34c3.23-.18,6.49-.42,9.71-.27,1.08.05,2.16.15,3.23.27h9.08c-.05.11-.11.21-.16.32,1.6.03,3.2.08,4.8.15,1.17-.75,2.57-1.07,4.32-1.12,47.35-1.24,94.6-3.93,141.43-11.55,17.16-2.79,34.28-5.95,50.44-12.67,4.51-1.87,8.94-4.34,12.8-7.32,5.63-4.34,5.62-10.03.41-14.81Z"/>
  <path class="cls-1" d="M1260.73,878.74c0,2,.06,3.25,0,4.48-.04.81-.09,1.62-.14,2.43,1.02-.23,2.06-.44,3.12-.63.14-2.15.27-4.32.41-6.53,6.88,0,13.36.23,19.82-.04,19.61-.84,39.22-1.85,58.82-2.87,1.95-.1,3.87-.78,5.8-1.19-.1-.56-.2-1.12-.29-1.68-27.74,1.19-55.47,2.39-84.34,3.63.24-2.13.48-4.24.72-6.35-.91.05-1.83.08-2.74.1-.03.33-.08.67-.11,1-.4,3.86-1.55,4.84-5.29,4.81-36.2-.3-72.34-1.7-108.31-6.05-21.05-2.55-42.07-5.52-62.1-12.88-4.14-1.52-8.06-4.04-11.58-6.75-3.2-2.47-3.03-5.21.05-7.87,2.21-1.91,4.74-3.86,7.46-4.69,11.86-3.62,23.65-8.12,35.82-9.92,25.4-3.75,51.03-6,76.57-8.87,2.04-.23,4.06-.58,6.09-.87-.03-.61-.06-1.21-.09-1.82-1.64-.16-3.3-.58-4.91-.43-20.81,1.99-41.73,3.29-62.38,6.37-15.99,2.38-31.71,6.75-47.41,10.79-4.37,1.12-8.58,3.74-12.26,6.48-5.88,4.37-5.67,9.89.24,14.32,2.57,1.92,5.5,3.46,8.45,4.76,15.82,6.96,32.72,9.72,49.62,12.25,38.38,5.73,77.03,7.66,115.79,8.04,4.32.04,8.65,0,13.2,0Z"/>
  <path class="cls-1" d="M1653.2,567.22c-1.68,1.02-3.28,2.71-5.05,2.9-2.5.27-4.52-1.71-3.87-4.22.4-1.53,2.57-3.53,4.04-3.61,1.58-.09,3.27,1.82,4.91,2.85-.01.69-.02,1.39-.03,2.08Z"/>
  <path class="cls-1" d="M1129.34,751.09c-1.68,1.06-3.51,3.13-4.99,2.91-1.59-.24-2.85-2.64-4.26-4.1,1.41-1.3,2.75-3.54,4.23-3.64,1.6-.1,3.34,1.81,5.01,2.84,0,.66,0,1.33,0,1.99Z"/>
  <path class="cls-1" d="M1632.62,347.72c-1.67,1.04-3.38,2.95-4.99,2.86-1.44-.08-3.58-2.17-3.94-3.72-.59-2.5,1.39-4.5,3.93-4.16,1.77.24,3.35,1.94,5.01,2.99,0,.68,0,1.35,0,2.03Z"/>
  <path class="cls-1" d="M1495.43,267c-1.7,1.01-3.58,3.02-5.04,2.74-1.56-.29-2.71-2.73-4.05-4.24,1.42-1.26,2.81-3.46,4.27-3.51,1.59-.06,3.25,1.89,4.87,2.96-.02.68-.04,1.37-.07,2.05Z"/>
  <path class="cls-1" d="M1099.23,452.33c-1.68,1.01-3.27,2.64-5.05,2.88-2.59.34-4.51-1.66-3.87-4.17.39-1.55,2.54-3.62,3.98-3.68,1.61-.07,3.31,1.86,4.97,2.93l-.03,2.04Z"/>
  <path class="cls-1" d="M1513.28,427.14c-1.07-1.63-3.06-3.32-2.95-4.87.1-1.44,2.58-3.92,3.75-3.77,1.61.2,3.89,2.26,4.17,3.83.25,1.39-1.85,3.19-2.92,4.82-.68,0-1.37,0-2.05-.01Z"/>
  <path class="cls-1" d="M1593.37,821.42c1.03,1.68,2.75,3.29,2.92,5.06.26,2.64-2.01,4.3-4.41,3.62-1.55-.44-3.65-2.61-3.64-3.99.01-1.59,2.07-3.17,3.23-4.76.63.02,1.26.05,1.89.07Z"/>
  <path class="cls-1" d="M1228.41,811.39c1.08,1.63,3.21,3.45,2.96,4.83-.29,1.57-2.6,3.57-4.25,3.81-1.11.16-3.58-2.36-3.68-3.8-.11-1.54,1.86-3.22,2.93-4.83.68,0,1.36,0,2.05,0Z"/>
  <path class="cls-1" d="M1227.59,310.14c1.05,1.64,3.02,3.36,2.9,4.9-.12,1.43-2.65,3.89-3.8,3.72-1.62-.23-3.89-2.33-4.14-3.9-.22-1.39,1.94-3.16,3.05-4.77.67.01,1.33.02,2,.04Z"/>
  <path class="cls-1" d="M1115.81,558.25c-1.64,1.16-3.37,3.35-4.88,3.2-1.58-.15-2.94-2.54-4.4-3.96,1.34-1.35,2.6-3.65,4.06-3.79,1.62-.16,3.42,1.66,5.15,2.62.02.64.05,1.28.07,1.92Z"/>
  <path class="cls-1" d="M1572.77,655.58c-1.49,1.13-2.84,2.88-4.5,3.25-2.52.56-4.47-1.04-4.58-3.73-.11-2.67,1.6-4.48,4.22-4.09,1.69.25,3.2,1.79,4.78,2.75.03.61.05,1.21.08,1.82Z"/>
</svg>