<?xml version="1.0" encoding="UTF-8"?>
<svg id="Layer_1" data-name="Layer 1" xmlns="http://www.w3.org/2000/svg" viewBox="0 0 1517.29 1476.57">
  <defs>
    <style>
      .cls-1 {
        fill: #fafafa;
      }

      .cls-1, .cls-2 {
        stroke-width: 0px;
      }

      .cls-2 {
        fill: #383838;
        opacity: .2;
      }
    </style>
  </defs>
  <circle class="cls-2" cx="758.64" cy="738.29" r="698"/>
  <path class="cls-1" d="M425.43,707.8c5.74,0,11.48,0,17.21,0,236.98,0,473.96,0,710.95.02,6.86,0,13.79-.17,20.57.67,15.64,1.94,26.62,14.92,26.33,30.38-.28,14.89-11.01,27.27-26,29.18-6.78.86-13.71.7-20.57.7-236.98.03-473.96.03-710.95.03-5.78,0-11.56,0-21.31,0,5.65,6.17,8.9,9.95,12.4,13.49,62.19,62.83,124.41,125.62,186.6,188.45,3.45,3.48,7.06,6.91,9.93,10.85,8.85,12.16,7.65,28.77-2.46,39.23-10.82,11.19-27.33,12.59-40.18,3.07-3.91-2.9-7.26-6.6-10.71-10.09-81.54-82.37-163.08-164.74-244.59-247.15-20.98-21.22-21.06-35.38-.24-56.43,82.19-83.11,164.47-166.14,246.62-249.28,9.37-9.48,20.03-18.66,33.36-13.2,8.91,3.65,17.9,12.09,22.25,20.72,6.05,12-.13,23.62-9.52,33.06-39.84,40.03-79.37,80.38-119.37,120.25-27.43,27.34-55.44,54.09-83.2,81.1.95,1.65,1.91,3.3,2.86,4.95Z"/>
</svg>