<?xml version="1.0" encoding="UTF-8"?>
<svg id="Layer_1" data-name="Layer 1" xmlns="http://www.w3.org/2000/svg" viewBox="0 0 1517.29 1476.57">
  <defs>
    <style>
      .cls-1 {
        fill: #fafafa;
      }

      .cls-1, .cls-2 {
        stroke-width: 0px;
      }

      .cls-2 {
        fill: #383838;
        opacity: .2;
      }
    </style>
  </defs>
  <circle class="cls-2" cx="758.64" cy="738.29" r="709.5"/>
  <path class="cls-1" d="M1076.4,769.28h-17.5c-240.89,0-481.77,0-722.66-.02-6.97,0-14.02.18-20.91-.68-15.9-1.97-27.06-15.17-26.76-30.88.28-15.13,11.19-27.72,26.42-29.66,6.89-.88,13.93-.71,20.91-.71,240.89-.03,481.77-.03,722.66-.03,5.88,0,11.75,0,21.66,0-5.75-6.27-9.05-10.11-12.61-13.71-63.21-63.86-126.46-127.69-189.68-191.56-3.51-3.54-7.18-7.03-10.09-11.03-8.99-12.37-7.78-29.24,2.5-39.87,11-11.37,27.78-12.8,40.84-3.12,3.98,2.95,7.38,6.71,10.88,10.25,82.89,83.72,165.77,167.46,248.62,251.22,21.33,21.57,21.41,35.96.24,57.36-83.55,84.48-167.18,168.87-250.69,253.39-9.52,9.64-20.36,18.96-33.91,13.42-9.06-3.71-18.2-12.29-22.61-21.06-6.15-12.2.13-24.01,9.68-33.6,40.5-40.69,80.68-81.7,121.33-122.23,27.88-27.79,56.36-54.98,84.57-82.44-.97-1.68-1.94-3.36-2.91-5.03Z"/>
</svg>