<?xml version="1.0" encoding="UTF-8"?>
<svg id="Layer_1" data-name="Layer 1" xmlns="http://www.w3.org/2000/svg" viewBox="0 0 1920 1080">
  <defs>
    <style>
      .cls-1 {
        opacity: .72;
      }

      .cls-2 {
        fill: #ed1c24;
      }

      .cls-2, .cls-3, .cls-4, .cls-5, .cls-6, .cls-7, .cls-8 {
        stroke-width: 0px;
      }

      .cls-3 {
        fill: #f0bf08;
      }

      .cls-5 {
        fill: #a97c50;
      }

      .cls-6 {
        fill: #fff200;
      }

      .cls-7 {
        fill: #d1d3d4;
      }

      .cls-8 {
        fill: #9dd2ff;
      }

      .cls-9 {
        opacity: .79;
      }
    </style>
  </defs>
  <g class="cls-1">
    <path class="cls-6" d="M961.06,825.4c-2.61-.56-5.22-1.12-7.83-1.68-2.52-.54-5.42,1.17-5.29,4.03.05,1.16.1,2.32.14,3.47-5.53,41.63-11.05,83.26-16.58,124.89-.64,4.81-1.74,9.79-1.86,14.64-.1,3.64.94,7.99,4.31,9.97,4.21,2.48,8.96-.09,11.06-4.03,2.24-4.19,2.55-9.27,2.72-13.92.74-20.75,2.82-41.32,5.71-61.88,3.31-23.48,6.99-46.91,10.53-70.35.32-2.13-.5-4.62-2.92-5.14Z"/>
  </g>
  <path class="cls-5" d="M1233.35,636.8c-1.57-8.77-6.4-16.98-13.49-22.4-3.95-3.02-8.45-4.91-13.4-5.4-3.96-.39-7.97.26-11.83,1.28-7.55.29-14.78,4.32-19.48,10.16-2.96,3.67-4.95,7.89-6.22,12.35,3.52-2.86,7.21-5.5,10.29-8.87,2.55-2.79,4.99-6.13,9.17-6.06,1.3.02,2.19,1.03,2.28,2.28.37,5.21-4.51,9.14-7.9,12.36-1.06,1.01-2.16,1.99-3.26,2.96,11.71,1.08,23.54-1.25,35.25.47,1.19.18,1.92,1.73,1.59,2.8-1.9,6.12-10.4,7.41-15.79,8.34-.86.15-1.72.31-2.57.49,6.12.63,12.09,1.99,17.86,4.44,1.69.72,1.26,3.1,0,3.93-2.37,1.57-5.33,1.66-8.08,1.8-2.39.12-4.74.51-7.1.9,1.37.69,2.64,1.56,3.73,2.72.03,0,.07,0,.1.01,2.89.27,2.91,4.83,0,4.55-6.44-.61-12.88-1.34-19.31-2.01-.24.09-.51.14-.82.13-1.37-.01-2.76-.12-4.17-.23,4.18.6,8.44.65,12.56,1.67.79.2,1.27.68,1.49,1.26,1.37,0,2.73,0,4.08,0,2.93,0,2.93,4.55,0,4.55-8.43,0-17.14.05-25.47-1.6,4.04,6.53,10.43,11.78,17.86,13.9,8.05,2.29,16.6.29,23.54-4.17,14.03-9.03,22.06-26.07,19.1-42.59Z"/>
  <path class="cls-5" d="M1181.45,651.39c.85-.13,1.7-.26,2.56-.4-.25-.02-.5-.03-.75-.04-.61.14-1.21.29-1.81.44Z"/>
  <g>
    <path class="cls-7" d="M1576.89,744.7c-.9-4.59-1.84-9.13-4.98-12.76-4.81-5.55-12.86-8.16-19.95-8.74-14.96-1.23-29.76,7.28-35.31,21.34-.49,1.25-.89,2.53-1.22,3.83,0,.02-.02.04-.02.06-2.66,7.37-1.84,16.33,2.61,22.86,4.87,7.15,13.04,10.67,21.45,11.44,15.45,1.42,33.8-8.38,37.67-24.23,1.12-4.58.64-9.23-.25-13.8Z"/>
    <path class="cls-3" d="M1542.41,783.07c-1,0-1.99-.04-2.96-.13-9.46-.87-17.13-4.96-21.6-11.53-4.35-6.38-5.38-15.43-2.64-23.05l.02-.04c.34-1.36.75-2.65,1.23-3.86,5.49-13.9,20.1-22.73,35.52-21.47,4.03.33,14.06,1.85,20.09,8.81,3.24,3.74,4.19,8.58,5.03,12.85h0c.75,3.86,1.46,8.92.25,13.89-3.72,15.25-20.44,24.52-34.93,24.52ZM1549.04,723.29c-14.15,0-27.12,8.46-32.2,21.32-.47,1.19-.88,2.47-1.21,3.81l-.02.06c-2.71,7.52-1.7,16.42,2.58,22.7,4.4,6.46,11.97,10.49,21.3,11.35,14.92,1.37,33.52-7.98,37.45-24.07,1.2-4.89.49-9.9-.25-13.71h0c-.87-4.42-1.76-9-4.93-12.66-5.93-6.85-15.83-8.34-19.81-8.67-.97-.08-1.94-.12-2.9-.12Z"/>
  </g>
  <path class="cls-2" d="M1681.6,785.73c-3.07-7.06-10.15-11.16-13.07-18.29-2.76-6.75-4.78-14.75-11.63-18.44-1.39-1.72-3.95-2.47-5.94-.53-1.2-.97-2.49-1.84-3.89-2.57-3.36-1.75-7.54-2.82-9.82-6.06-2.28-3.25-3.66-7.01-6.08-10.2-5.88-7.75-15.96-13.35-25.76-9.53-2.31.9-4.74,2.19-5.96,4.44-2.39,1.43-3.36,5.4-.23,7.32,6.36,3.89,11.34,9.98,13.78,17.04.58,1.69,1.05,3.42,1.37,5.18.22,1.16.84,3.39.39,4.5,0-.02-.36.16-.86.28-.73.17-1.47.32-2.2.48-1.85.4-3.68,1.05-5.1,2.36-3.69,3.39-2.44,8.29-1.35,12.54,1.07,4.18,2.46,8.47,4.97,12.02,4.78,6.76,12.64,9.71,20.75,9.39.41-.02.82-.04,1.23-.07-1.54,3.4-1.05,6.95.61,10.26,6.04,12.08,21.3,18.51,34.01,13.62,6.25-2.41,11.73-6.88,14.51-13.07,2.95-6.55,3.15-14.03.27-20.65Z"/>
  <g class="cls-9">
    <path class="cls-8" d="M1099.77,890.71c-2.82-3.21-6.93-4.57-11.04-5.09-3.84-.48-8.24-.43-11.92.84-1.86.64-3.59,1.61-4.99,2.89-2.1-.02-4.15,1.31-4,4.02.93,17.51,2.35,34.99,4.27,52.41.95,8.58,1.64,17.35,3.26,25.83,1.27,6.67,6.28,13.67,14.01,11.35,8.59-2.58,9.57-11.8,10.16-19.37l2.06-26.27c.69-8.81,1.38-17.61,2.07-26.42.55-6.95,1.04-14.6-3.89-20.21Z"/>
    <g>
      <path class="cls-8" d="M1165.67,978.85s0-.06,0-.08c0,.02,0,.04-.01.08,0,0,0,0,0,0Z"/>
      <path class="cls-8" d="M1178.95,893.49c-3.04-7.91-9.9-14.23-18.81-13.77-4.66.24-9.29,1.69-13.65,3.27-4.6,1.67-9.05,3.73-13.3,6.16-2.74,1.57-2.42,4.7-.74,6.48,3.18,17.27,6.36,34.53,9.54,51.8,1.66,8.99,3.31,17.97,4.97,26.96.7,3.79,1.25,7.86,4,10.8,2.74,2.93,6.76,3.74,10.61,3.25,3.41-.44,7.77-1.37,10.28-3.86,1.53-1.52,1.93-3.51,2.16-5.55.26-2.29.44-4.59.66-6.88.86-8.94,1.72-17.87,2.58-26.81.86-8.94,1.72-17.87,2.58-26.81.79-8.21,2.18-17.11-.87-25.04ZM1165.64,979.06s0,0,0,0c-.92,9.82-.19,1.74,0,0Z"/>
    </g>
  </g>
  <g>
    <path class="cls-4" d="M702.1,845.97c49.55-1.68,99.11-3.36,148.66-5.04,25.95-.88,51.9-1.76,77.86-2.64,2.61-.09,5.22-.19,7.83-.27.49-.01.99-.04,1.48-.05,1.03-.02,1.43-.1,2.86,0,6.67.48,7.02,5.7,6.54,10.95-3.07,33.42-8.13,67.15-14.91,100.01-1.55,7.53-9.79,31.1,4.92,32.17,5.36.39,7.41-3.59,8.14-8.11,1.51-9.4,2.58-18.9,3.87-28.34,2.47-18.11,5.23-36.21,7.24-54.39,2.05-18.56,3.29-37.19,4.88-55.79.11-1.27-1.96-1.88-2.48-.67-5.92,13.95,2.13,27.39,6.6,40.52,5.53,16.26,8.78,33.27,9.67,50.41.42,8.08.31,16.19-.32,24.25-.36,4.65-.91,9.28-1.63,13.89-.37,2.36-1.16,5.01-.86,7.44.66,5.24,5.73,5.69,10.04,6.72,8.06,1.92,16.07,3.36,24.39,3,.94-.04,1.42-.81,1.28-1.68-.84-5.28-5.86-6.48-10.48-5.52-2.98.62-5.89,2.57-9.04,2.37-2.45-.16-4.55-1.87-6.53-3.09-1.99-1.24-3.93-2.26-6.36-2.1-6.99.48-9.32,8.29-13.77,12.27-5.53,4.96-14.26,5.31-18.6,11.81-2.56,3.84-2.8,9.45,1.48,12.22,2.06,1.33,4.38,1.31,6.68.8,4.99-1.1,8.91-3.47,14.26-3.67,14.75-.55,31.26,7.23,43.85-4.03-.74-.43-1.48-.86-2.22-1.29-1.88,4.89-8.01,5.35-12.36,6.07-4.7.77-9.4,1.51-14.12,2.12-9.5,1.23-18.99,1.84-28.56,1.26.44.44.89.89,1.33,1.33,1.64-12.83,20.11-10.06,29.2-9.98,4.75.04,9.49.09,14.24.13,3.33.03,7.17.61,10.37-.58,13.74-5.12,3.45-25.94,2.57-35.17-1.76-18.5,1.21-37.4,2.63-55.83,1.3-16.73,1.86-33.66-1.15-50.25-1.6-8.82-5.43-16.72-7.57-25.34-2.38-9.59-.95-19.48,1.83-28.82,4.85-16.32,13.79-31.72,14.29-49.11.15-5.28-.06-12.15-3.59-16.5-4.25-5.24-11.75-2.47-17.54-3.56-5.56-1.05-10.36-1.9-15.48,1.2-3.87,2.34-10.51,8.32-11.58,13.05-.75,3.29,1.83,6.03,5.13,4.7,2.36-.95,3.2-3.87,4.44-5.8,3.37-5.19,7.91-7.76,13.42-10.19,4.7-2.08,8.48-4.88,8.02-10.63-.53-6.66-6.59-10.71-11.72-13.92-.47-.3-1.23-.22-1.61.21-4.84,5.47-10.18,10.4-16.18,14.57-4.33,3.01-10.76,5.06-14.2,9.11-6.89,8.13,3.01,18.76,9.76,22.92,1.07.66,2.63-.72,1.82-1.82-5.21-7.07-6.28-16.43-2.61-24.48,3.03-6.66,10.66-9.08,13.53-15.45,1.75-3.9.44-8.81-4.06-9.84-5.55-1.27-9.84,4.68-13.55,7.65-7.82,6.27-16.49,8.23-25.47,11.98-3.64,1.52-8.63,4.7-7.81,9.4,1.08,6.17,7.78,3.1,11.36,1.72,8.64-3.34,17.1-7.11,25.4-11.22,1.43-.71.37-2.68-1.02-2.43-5.66,1.03-10.71,3.28-15.73,6.03-4.26,2.33-9.11,4.72-12.21,8.61-7.07,8.88,2.25,21.15,4.74,30.15,1.85,6.71,2.91,13.65,3.11,20.61.17,6.06-.91,12.13-.55,18.17.25,4.33,1.51,8.3,4.51,11.49,3.71,3.94,9.54,6.26,10.8,12.01.35,1.57,2.47,1.04,2.61-.35,2.06-20.03.27-40.28-5.44-59.6-2.76-9.35-6.42-18.44-10.91-27.09-5.29-10.19-14.52-19.94-13.27-32.09,1.13-10.97,2.39-21.27,1.66-32.37-.73-11.01-1.84-22.28.49-33.18,2.46-11.48,9.21-20.46,17.05-28.89,8.15-8.76,16.56-17.3,24.91-25.88.8-.82.22-2.27-.94-2.27-6.42,0-10.38,6.45-14.22,10.76-1.71,1.92-3.38,3.88-5.13,5.77-.42.46-.84.93-1.26,1.39-2.22,3.06-4.4,1.74-6.54-3.98,1.66-2.06,7.52-2.65,10.14-3.86,9.65-4.47,17.96-16.19,9.44-25.82-.6-.67-1.65-.41-2.09.27-6.9,10.57-22.9,20.12-33.13,7.99-7.63-9.05-7.65-23.92,1.72-31.77,4.81-4.03,11.72-6.01,17.78-3.81,7.34,2.66,7.4,9.23,8.45,15.9.84,5.35,4.29,10.91,10.48,9.56,7.24-1.58,8.03-10.17,5.75-15.93-2.52-6.35-8.11-13.56-14.84-15.61-8-2.43-19.37-.5-27.22,2.07-7.31,2.39-13.56,7.5-14.81,15.4.74-.2,1.48-.39,2.22-.59-6.52-5.43,4.13-11.61,6.32-16.13,2.42-4.99-.33-10.51,5.24-14.31,10.7-7.3,25.23-2.21,33.5,6.33,7.01,7.25,10.93,17.51,10.3,27.59-.61,9.69-6.04,18.92-1.47,28.45,8.57,17.87,40.74,17.78,42.08,39.8.44,7.3-4.47,10.37-9.52,14.31-3,2.34-4,4.55-6.05,7.54-7.98,11.61-23.8-19.99-25.88-25.41-.65.5-1.3,1-1.95,1.5,14.37,9.04,11.24,29.44,22.22,41.17,1.35,1.44,3.15,2.66,4.21,4.35,1.67,2.67-.09,4.82,0,7.28.05,1.43-.42,2.39.71,3.61,1.15,1.24,2.92,1.11,4.44,1.03,5.68-.29,9.58-.19,13.53,4.77.89,1.12,2.48-.12,2.22-1.29-1.88-8.67,17.36-4.73,17.66-14.3.15-4.66-4.81-6.73-8.15-3.66-2.92,2.68-4.42,8.22-6.08,11.74-2,4.26-3.99,8.52-6.09,12.73-5.03,10.09-10.7,19.78-18.41,28.08.7.54,1.39,1.07,2.09,1.61,2.3-3.32,1.29-6.89-1.13-9.91-3.05-3.8-7.12-6.64-5.62-12.23.93-3.47,3.93-6.87,5.89-9.84,3.35-5.09,6.78-10.21,9.07-15.88,1.24-3.06,2.12-6.24,2.48-9.53.49-4.61-1.76-14.81,5.69-15.33-.43-.56-.85-1.12-1.28-1.68-2.24,5.86-4.28,15.15,3.6,17.79,4.17,1.4,8.74-.24,13.07.99,4.12,1.16,7.31,2.8,11.64,1.38,3.95-1.29,7.16-4.5,10.21-7.16,4.86-4.24,9.69-8.52,14.54-12.78,4.96-4.36,9.55-8.07,15.7-10.6,4.51-1.86,9.2-3.24,13.72-5.09,5.16-2.11,12.72-6.31,10.23-13.19-2.19-6.05-10.3-6.04-15.46-5.24-11.38,1.77-21.89,7.49-33.23,9.79-12.16,2.47-24.54,2.82-36.85,1.42-1.06-.12-1.58,1.2-1.15,2,2.83,5.27,10.88,5.47,12.36-1.04,1.5-6.59-6.13-13.06,3.27-17.86,8.01-4.09,18.99,4.45,18.2,13.16-.24,2.61-.81,1-1.5-.58-.7-1.6-.78-3.89-.98-5.61-.31-2.57-.42-5.17-.38-7.76.09-5.94,1.07-11.86,2.87-17.53,3.76-11.87,10.99-22.34,20.9-29.88.83-.63.91-2.16-.32-2.43-15.48-3.42-26.53,8.55-35.07,19.7-9.84,12.85-19.77,26.51-20.44,43.27-.04,1.07,1.55,1.86,2.27.94,9.67-12.37,12.88-27.95,21.03-41.16,5.5-8.92,13.41-14.84,23.04-18.74,3.59-1.45,9.06-4.27,12.89-4.3.62-.18,1.24-.36,1.86-.54,2.24,1.4,2.35,2.62.35,3.65-.33.88-1.09,1.59-1.42,2.52-1.58,4.5,1.07,9.41,5.25,11.31,5.76,2.61,12.13-.22,16.39-4.24,6.54-6.16,9.79-14.88,17.82-19.58,8.7-5.1,19.45-5.46,28.53-1.19.22-.83.45-1.65.67-2.48-11.27,1.05-24.54,5.75-26.29,18.65-.91,6.76,1.96,13.29,2.73,19.91,1.2,10.33-5.68,13.12-11.09,20.13-3.99,5.18-4.11,11.49-5.33,17.65-2.14,10.81-9.69,13.64-18.93,17.4-13.81,5.62-24.24,16.11-34.37,26.7-.73.77-.26,2.38.94,2.27,11.72-1.08,23.43-2.15,35.15-3.23,9.39-.86,19.26-1.3,28-5.22,7.63-3.42,13-9.61,17.19-16.68,5.66-9.53,10.36-19.82,15-29.87,7.72-16.72,19.03-39.17,11.51-57.73-2.47-6.11-7.02-11.71-13.28-14.19-8.97-3.56-27.22,3.55-30.78-8.2-2.68-8.84,4.66-16.77,3.21-25.6-.34-2.1-1.68-3.95-2.01-5.97-.2-.55-.4-1.11-.6-1.66,2.55.36,5.11.71,7.66,1.07.38.93-2.92,7.12-3.86.41-.1-.74,1.59-2.95,1.94-3.79.74-1.8,1.26-3.66,1.53-5.58,2.08-14.61-8.74-27.93-23.65-28.03-7.66-.05-13.29,3.26-18.77,8.23-.51.46-2.54,2.72-3.31,2.69-.71-.97-1.43-1.94-2.14-2.91-2.63-1.57-2.93-2.94-.9-4.11,1.25-1.86,5.08-3.79,6.94-4.99,4.85-3.16,10.26-5.96,16.13-6.44,5.32-.44,11.71.93,15.07,5.45,2.65,3.57-.24,9.61-4.69,9.72-1.01.02-1.98-.25-2.95-.45-2.55-.51-4.98-1.3-7.56-1.68-8.36-1.25-18.28-.26-25.54,4.38-7.86,5.03-7.22,11.76-4.48,19.73,3.53,10.31-1.08,21.71,3.57,31.71,9.51,20.46,35.43-.69,44.13-10.86.55-.64.52-1.63-.27-2.09-3.67-2.13-7.18-.6-9.75,2.51-2.27,2.75-3.36,6.14-5.95,8.71-3.23,3.22-6.98,4.71-11.23,6.02-3.46,1.07-6.23,2.9-6.33,6.83-.06,2.52,1.26,4.95,1.8,7.37,1.2,5.34.45,10.72-1.73,15.69-.23.54-.25,1.17.21,1.61,3.28,3.1,7.84,3.03,11.46.35,7.06-5.21,7.59-19.63,19.43-15.96,7.22,2.24,11.82,7.27,19.83,6.97,8.4-.32,18.25-4.66,25.06,2.45,6.09,6.35,8.99,18.27,10.21,26.7,1.68,11.61-3.55,19.21-8.5,29-1.78,3.53-7.87,15.75-1.39,17.56,1.7.47,3.62-.38,4.94-1.4,3.64-2.79,5.92-6.49,10.2-8.73,1.11-.58,2.77-1.66,4-1.79.6-.19,1.2-.38,1.81-.57.81,1.06,1.62,2.12,2.43,3.19-.17,1.34-4.48,4.35-5.51,5.33-3.97,3.77-8.03,7.45-12.15,11.06.7.09,1.39.18,2.09.27-1.47-2.06,5.84-.95,6.15-.9,1.21.19,2.43.36,3.65.5,3.67.42,7.38.62,11.08.58,6.8-.07,13.51-.98,20.14-2.49-.55-.31-1.09-.62-1.64-.93,2.56,6.67-12.7,8.08-16.22,8.91-5.6,1.32-11.2,2.65-16.8,3.97.24.85.47,1.71.71,2.56,11.18-3.51,25.56,1.2,36.87,3.03v-2.56c-12.59,4.98-25.89,6.24-39.17,3.56-.12.87-.24,1.74-.35,2.61,12.35-1.65,24.89,10.16,36.6,2.14-.65-.26-1.3-.53-1.95-.79,1.34,7.49-36.65,2.86-39.81,2.22.11.81.21,1.62.32,2.43,6.79-4.35,13.42,3.07,20.01,4.28,1.21.22,2.64-.1,3.79.16,1.08.24,2.74-1.46,1.02.7-2.07,2.61-9.45.74-12.57.38-8.05-.93-16.54-.29-24.46-1.9-8.56-1.74-18.91-9.8-12.5-19.35l-2.43-.32c1.33,9.4,4.36,34.42,18.96,32.14,4.35-.68,7.75-4.7,7.18-9.15-.25-1.97-1.25-3.78-2.78-5.04-1.16-.96-2.54-1.25-3.81-1.98-3.09-1.77-5.14-3.9-6.78-7.06-3.11-6-5.67-13.33,1.04-18.02,2.85-2,5.92-3.57,8.67-5.74,6.36-5.03,11.58-11.45,18.44-15.85,16.57-10.62,38.61-2.14,45.21,16.03,3.37,9.29,2.54,19.43-2.06,28.14-3.88,7.35-19.95,25.08-28.54,14.98-.31.76-.63,1.51-.94,2.27,16.62-.77,29.21-13.29,30.07-29.91l-2.48.67c8.94,12.72-3.54,20.85-12.16,28.24-6.13,5.26-12.45,13.32-15.17,21.01-2.21,6.27,2.25,11.11,8.36,12.18,4.57.8,9.32-.38,13.89-.71,6.59-.48,13.2-.26,19.81-.1,10.33.25,20.88.43,30.95-2.25,4.17-1.11,7.97-2.71,11.63-4.97,3.12-1.93,5.4-3.13,9.23-3.39,2.79-.19,5.59.08,8.38-.3,6.84-.92,13.87-5.01,16.77-11.47,1.8-4.01,1.85-8.46,1.9-12.78.08-6.74.07-13.48.1-20.22.06-12.63,1.31-25.94-.48-38.47-1.34-9.35-5.86-17.9-14.97-21.48-1.45-.57-2.24,1.65-1.02,2.43,9.09,5.82,15.63,15.1,17.34,25.84.5,3.12,1.94,10.75,7.06,6.78,2.26-1.75,2.18-5.47,3.55-7.72,3-4.95,9.76-4.84,14.75-4.31,7.99.85,15.98,2.2,21.85-4.45,4.1-4.65,5.58-11.28,4.86-17.32-.5-4.2-2.02-8.2-3.88-11.97-1.57-3.18-4.04-9.18-6.79-11.56-3.33-2.88-5.63.3-6.47,3.43-1.44,5.35-1.4,9.43-4.32,14.42-2.98,5.11-7.2,9.02-12.31,11.92-1.53.87-.19,2.94,1.34,2.3,20.53-8.72,28.3-34.43,14.95-52.7-2.15-2.94-5.21-7.05-9.27-6.95-3,.07-5.05,2.07-5.51,4.98-.85,5.41,2,11.24,1.66,16.84-.53,8.66-3.82,16.7-9.32,23.36-1.08,1.31.77,3.19,1.88,1.88,8.92-10.54,15.03-25.01,13.13-39.04-1.69-12.49-11.14-20.35-23.61-17.97-2.34.45-4.72,1.31-7.11,1.38-3.26.1-5.64-1.84-8.37-3.26-1.48-.77-2.49-1.54-4.29-1.03-3.61,1.04-3.63,5.2-2.62,8.08,1.75,5.03,3.82,8.72,3.86,14.24.03,4.3-.9,8.58-2.37,12.6-3.1,8.48-8.69,15.78-14.09,22.91-.91,1.21,1.07,2.7,2.09,1.61,8.38-8.96,13.05-20.14,16.83-31.65,2.29-6.98,8.64-24.05-3.64-26.07-5.11-.84-10.15,3.61-14.1,6.14-5.51,3.54-10.97,7.26-15.86,11.63-8.93,7.98-15.57,18.05-17.07,30.1-.18,1.48,1.79,1.56,2.48.67,4.23-5.51,2.25-12.74-2.38-17.37-8.22-8.22-19.51-8.54-24.12-20.52-2.75-7.15-6.78-10.48-14.82-9.76-9.83.88-20.1,5.44-29.04,9.39-6.31,2.79-14.04,7.21-15.13,14.77-.94,6.58,3.82,11.4,8.04,15.7,3.89,3.97,7.12,7.5,7.56,13.32.29,3.81-.58,7.98,1.22,11.54,2.2,4.36,7.66,6.88,11.59,3.39.53-.47.5-1.41,0-1.88-6.52-6.21-11.18-13.89-13.37-22.65-2.17-8.69-3.66-26.4,8.98-27.27,13.15-.9,29.47,11.49,40.22-1.93,9.64-12.03-5.58-28.78-11.92-38.45-2.46-3.74-5-7.44-7.36-11.25-1.36-2.2-2.96-4.69-3.17-7.32-.37-4.66,2.86-7.89,7.32-8.38,7.83-.86,16.28,2,24.09,2.74,9.96.95,20.03.99,29.98-.18,7.38-.87,17.17-4.83,24.46-2.18,7.89,2.87,5.3,12.57-.2,16.28-4.31,2.9-9.8,3.63-14.82,4.33-9.85,1.37-19.82,1.83-29.76,1.39-8.18-.36-16.33-1.42-24.42-2.63-2.25-.34-3.69-.54-5.41-2.19-2.34-2.23-1.78-4.12-1.55-7.16.31-4.16-.41-8.03-1.35-12.06-2.27-9.69-1.93-18.2,2.78-27.18,3.95-7.53,9.98-14.01,16.99-18.78,1.37-.93,2.86-2,4.39-2.63,4.43-1.82,8.68-1.85,10.67,2.7,1.61,3.69,1.67,8.81,1.58,12.8-.12,5.32-1.52,9.61-5.47,13.29-2.21,2.06-4.79,3.65-6.32,6.35-7.54,13.28,17.26,12.64,23.8,12.3,5.04-.26,11.12-2.75,11.37-8.6.29-6.84-8.15-6.46-10.01-12.21-1.31-4.05-.96-9.36-1.33-13.6-.43-4.8-2.65-12.2,4.68-10.14,8.87,2.49,14.97,11.54,20.07,18.57,2.53,3.48,5.25,7.01,7.36,10.76,3.4,6.06-.67,10.58-2.81,16.11-2.79,7.23-2.34,15.11-2.2,22.7.19,9.95-.45,19.86-7.6,27.48-6.96,7.42-16.62,9.66-26.41,7.97-2.17-.37-4.3-.94-6.41-1.54-2.37-.67-5.27-.64-5.16-3.29.13-3.14,5.05-1.01,7.4-.23,1.65.55,3.35,1.49,5.1,1.64,5.34.44,7.35-4.37,6.94-8.93-.27-2.93-1.37-5.65-2.6-8.3-.97-2.08-2.07-4.08-2.97-6.19-1.27-2.99-3.3-8.84-.82-11.7,1.16-.54,2.32-1.08,3.47-1.61,1.86-2.04,3.6-2.21,5.24-.53,1.57.78,2.67,1.93,3.53,3.45,1.46,2.61,1.83,5.85,2.17,8.76.48,4.08.88,8.15,1.52,12.21,1.27,8.17,2.57,16.79,6.31,24.24,5.27,10.49,1.46,20.48-4.02,30.03-4.13,7.2-8.35,14.11-10.92,22.05-2.75,8.52-4.06,17.41-5.26,26.25-1.2,8.83-2.37,17.67-3.56,26.5l-1.84,13.73c-.42,3.1-1.67,7.05.04,9.98,2.55,4.37,7.56,2.75,11.48,1.67,9.08-2.5,18.84-.92,26.18,5.16,7.36,6.1,10.72,15.37,9.96,24.78l1.33-1.33c-17.26-.5-33.57,4.72-50.05,9.15-17.53,4.72-35.4,7.24-53.57,6.55-4.58-.18-9.13-.59-13.68-1.08-1.28-.14-2.38-.65-3.42.14-1.62,1.23-1.53,4.74-1.72,6.56-.76,7.49-1.22,15.68-.43,23.2.88,8.39,4.9,15.8,5.21,24.36.34,9.14-.24,18.32-.3,27.47-.1,17.11,2.33,33.05,7.09,49.46,2.26,7.78,4.63,15.54,6.18,23.5,1.95,10.02,1.7,20.04,2.01,30.18.27,8.94,1.68,25.4,14.96,20.25,2.16-.84,4.11-2.17,6.1-3.33,4.43-2.59,8.01-3.2,13.07-3.22,5.43-.02,9.71-1.31,11.85-6.72,1.96-4.96.67-10-1.14-14.77-3.72-9.8-5.55-18.24-3.93-28.76,1.34-8.68,3.97-17.1,5.07-25.82.49-3.88,2.06-10.29-1.41-13.32-2.04-1.78-5.3-1.88-7.44-.2-4.14,3.26-3.18,12.63-3.27,17.1-.71,37.12,16.12,72.39,6.43,109.51-1.92,7.36-4.27,14.64-5.29,22.2-.49,3.61-.7,7.26-.37,10.9.41,4.51,2.23,8.84,2.49,13.34.38,6.58-4.35,10.4-10.56,8.52-4.76-1.44-8.03-5.47-11.82-8.43-3.98-3.11-9.31-6-14.53-4.34-2.71.86-4.4,2.72-6.16,4.82-3.6,4.3-7,7.96-12.5,9.95-7.63,2.76-16.16,1.02-23.7,4.17-8.71,3.64-14.29,17.28-2.5,20.92,13.28,4.1,27.76-4.74,39.06-10.28,7.17-3.52,12.36-3.9,19.74-.58,3.02,1.36,5.88,2.97,9.24,3.32,2.73.29,5.31-.07,7.62-1.62.91-.61,1.58-1.44,2.36-2.19.84-.99,1.78-1.88,2.8-2.69,6.18,1.55,5.83,3.66-1.02,6.31.25-.48.26-1.23-.21-1.61-1.59-1.3-3.48-1.25-4.59.68-.7,1.23.73,4.52.42,4.89-2.64,3.19-3.7-3.36-4.15-4.02-2.89-4.16-7.69-.08-11.43-1.01-4.47-1.11-7.61-5.1-12.63-3.71-4.74,1.31-7.14,6.39-10.52,9.48-2.87,2.62-6.44,4.42-10.24,5.21-1.77.37-6.28,1.04-8.03.17-2.83-1.41,2.2-.18,2.62-.09,4.75,1,9.83-.32,13.39-3.66,5.39-5.06,3.38-12.26,7.62-17.77,3.7-4.81,6.47-8.5,8.04-14.56,1.88-7.26,2.79-14.91,3-22.4.18-6.86-.33-13.74-1.66-20.47-1.42-7.21-4.24-14.28-4.42-21.69-.39-15.57,10.27-29.2,10.09-44.98-.14-12.75-5.06-24.75-9.28-36.57-4.16-11.66-11.9-31.35-3.26-42.62,8.47-11.06,22.22,5.89,32.76-.97,4.73-3.09,7.9-9.35,11.11-13.85,4.74-6.64,11.21-13.45,14.72-20.8,3.34-6.99-6.06-9.47-8.67-3.22-2.21,5.28,1,13.95,1.93,19.2,1.53,8.63,3.05,17.25,4.58,25.88,2.79,15.73,5.02,31.69,8.77,47.23,1.62,6.7,3.69,13.3,6.58,19.57,1.62,3.49,3.68,6.77,5.12,10.34,2.12,5.27,1.59,10.48,1.74,16.01.41,15.05,6.74,28.9,10.31,43.31,1.99,8.05,3.08,16.58,1.77,24.84-1.32,8.3-5.3,13.34-10.21,19.76-2.52,3.3-3.61,7.35-.11,10.4,1.99,1.73,4.64,2.09,7.18,2.14,4.95.1,9.16-.9,13.81,1.67,9.65,5.33,11.35,18.75,3.22,26.28-6.34,5.87-16.74,6.19-24.92,5.9-3.59-.12-7.86-.4-10.41-3.25-5.08-5.68,2.12-11.4,5.9-15.02,4.08-3.9,7.62-8.72,5.53-14.51l-1.64,1.64c9.61,2.39,18.36,6.47,26.38,12.27.74.54,1.7-.06,1.95-.79,2.36-6.9-1.16-13.05-2.23-19.85-1.58-9.99,1.8-19.81,5.89-28.8,6.66-14.66,13.7-27.86,13.6-44.42-.04-7.6-1.23-15.18-2.91-22.58-1.01-4.45-2.22-8.85-3.52-13.22-1.07-3.6-1.78-9.02-3.9-12.12-2.25-3.31-4.87-1.62-7.84.01-7.93,4.35-15.72,8.98-23.58,13.47-.88.5-.84,1.78,0,2.3,4.7,2.85,9.54,1.7,14.29-.53,6-2.82,12.94-6.87,16.18-12.92,3.4-6.34,2.07-13.73,1.41-20.54-.93-9.55-.92-19.14-1-28.72-.07-8.59-1.12-17.14-1.16-25.71-.04-7.33,1.4-14.82-3.02-21.26-3.56-5.18-9.92-7.6-13.41-12.8-5.73-8.54,2.52-17.96,5.3-26.03,2.7-7.85,2.12-16.31,11.71-19.2,3.62-1.09,7.5-1.18,11.24-1.08,1.73.05,3.49.12,5.21.31,2.75.08,5.26.95,7.52,2.58.29,6.44-1.71,8.93-6.01,7.48-4.97-1.08-10.12-5.17-15.38-2.82-5.86,2.62-4.83,9.97-6.08,15.12-2.51,10.36-14.76,24.74-3.41,34.23,8.6,7.2,20.92,2.2,26.08-6.48,6.69-11.25,6.24-29.32-3.54-38.68-5.92-5.67-14.57-7.03-20.66-12.42-7.63-6.75-7.6-17.78-7.48-27.16-.83.22-1.65.45-2.48.67,4.56,5.96,2.88,20.56,12.88,21.72,10.34,1.2,10.93-12.33,10.93-19.14.01-13.02.58-26.21-.35-39.2-.74-10.29-3.09-20.13-9.54-28.38-.8-1.03-2.7.09-2.22,1.29,7.3,18.45,14.86,37.59,15.38,57.68.14,5.48-.79,10.56-1.22,15.99-.17,2.19-.46,4.22.54,6.26,3.47,7.12,15.42,2.84,18.09,10.36.4,1.11,2.32,1.41,2.56,0,6.7-38.48,13.71-79.64.13-117.45-.31-.86-1.52-1.41-2.22-.59-3.55,4.17-1.74,9.27,1.99,12.72,3.33,3.08,7.29,4.79,9.7,8.88,3.35,5.7,2.68,12.97,1.67,19.19-1.54,9.46-2.87,18.6-2.99,28.22-.13,10.19.4,20.39-.04,30.58-.45,10.45-2.31,20.28-5.93,30.08-2.72,7.36-5.43,15.29-2.31,22.98,4.35,10.73,19.66,18.14,29.03,8.75,4.03-4.03,3.73-9.53.79-14.1-1.75-2.72-4.13-4.93-6.21-7.38-3.77-4.46-5.96-9.62-6.75-15.39-2.67-19.58,8.91-36.77,14.35-54.75,2.84-9.39,3.04-18.07,1.87-27.76-.69-5.7-1.06-11.21.85-16.73,1.54-4.45,4.08-8.48,5.66-12.92,3.18-8.93,2.91-18.55,2.84-27.89-.08-10.66.51-21.58-.26-32.21-.23-3.25-1.36-8.77-5.83-8.06-5.95.94-4.93,11.45-4.66,15.37.66,9.48,3.58,18.62,5.23,27.94,1.95,10.99,2.26,22.2,1.66,33.32-1.19,21.95-5.86,43.5-8.86,65.24-1.44,10.47-7.55,33.33,8.57,35.29,10.27,1.25,21.08.74,31.42.81,11.14.08,22.28-.02,33.42-.3,11.13-.28,22.28-.66,33.39-1.4,3.36-.22,10.25-.66,8.66-5.95-2.17-7.19-12.65-1.36-16.56,0-9.68,3.38-19.67,5.93-29.79,7.56-10.74,1.73-21.63,2.47-32.5,2.2-4.76-.12-9.52-.44-14.25-.94-3.65-.39-8.02-1.79-11.58-.46-5.54,2.06-5.38,8.9-5.62,13.82-.48,10.03-.64,20.07-.97,30.11-.67,20.41-2.05,41.06-8.45,60.59-1.65,5.05-3.65,9.97-5.94,14.76-1.56,3.25-3.93,6.88-3.43,10.67.72,5.48,6.21,6.73,10.88,6.3,9.77-.89,18.86-3.63,28.85-3.2,7.58.33,18.7,4.91,25.8.65,4.04-2.43,5.84-7.34,3.46-11.48-.26-.46-.97-.83-1.5-.61-7.36,3.08-15.08,4.85-23.09,4.77-6.67-.06-13.37-1.99-20.04-1.19-11.06,1.33-16.53,11.1-17.84,21.31-.76,5.91-.44,11.93-.72,17.87-.39,8.34-1.28,16.65-2.09,24.96-.58,5.99-1.59,11.82-2.35,17.77-.37,2.91-.91,6.4,1.12,8.87,2.28,2.78,6.09,2.49,9.29,2.14,2.15-.24,4.28-.85,6.45-.54,5.39.77,9.86,6.17,8.47,11.79-1.36,5.46-6.81,7.9-12.02,7.21-2.32-.31-4.37-1.26-6.76-1.04-3.79.34-6.25,2.91-7.72,6.28-2.36,5.41-.54,11.94-3.53,17.1-2.88,4.97-9.54,7.13-10.64,13.25-.49,2.74.48,5.96,3.09,7.39,3.72,2.04,5.43-.77,8.28-2.59,8.53-5.44,21,8.65,27.32-3.72,3.88-7.59-2.37-15.61-10.03-16.88-10.64-1.76-18.54,7.26-22.93,15.72-2.98,5.75-9.1,17.6,1.39,19.52,4.82.88,11.28-.69,15.92-1.87,5.17-1.31,10.23-3.54,13.94-7.49,8.78-9.38,3.23-24.1,2.59-35.33-1.79-31.3,4.24-62.55,8.9-93.36,1.19-7.88,1.89-16.04,3.77-23.8,1.19-4.93,3.61-9.33,8.96-10.59,3.18-.74,6.54-.33,9.76-.19,9.81.43,17.32-2.31,19.44-12.67,2.06-10.11-.6-20.43-1.17-30.54-.98-17.52-1.22-35.12-1.83-52.66-.06-1.7-2.68-1.72-2.66,0,.31,28.76,4.58,57.2,9.6,85.46,1.15,6.47,1.93,13.19,3.63,19.55,1.07,3.99,2.93,7.74,7.05,9.24,4.25,1.54,9.46.31,13.79-.11,7.34-.72,14.68-1.44,22.02-2.15,6.27-.61,12.67-.91,18.89-1.86,2.96-.45,6.53-1.54,6.33-5.23-.13-2.33-2.15-3.88-4.15-4.57-5.49-1.89-13.4-.15-19.11.05-7.22.25-21.3-2.14-23.51,7.5-1.3,5.68.46,12.86.89,18.59.58,7.66,1.17,15.32,1.75,22.98.64,8.47,1.29,16.93,1.93,25.4.41,5.32.4,11.54,3.49,16.16,7.55,11.3,21.88.95,31.45-.23,1.67-.21,1.75-2.55,0-2.66-8.17-.49-16.25.52-23.92,3.45-6.53,2.5-6.21,5.43-5.69,12.1.67,8.73,1.34,17.46,2.01,26.19.26,3.32-.7,11.67,4.26,12.25,1.36.16,2.79-.6,3.81-1.39,1.53-1.18.87-1.47,2.12-2.8,3.03-3.21,5.93-4.51,10.1-2.73,3.66,1.56,8.68,4.2,12.41,1.17,8-6.49-4.75-16.42-11.1-17.09-9.92-1.04-17.48,8.23-18.13,17.52-.22,3.07.25,6.14.19,9.21-.08,4.54-1.18,5.44-3.53,8.98-2.39,3.59-1.93,6.57,1.52,9.21,4.87,3.73,11.81,5.8,17.47,8.09,7.38,2.98,15.36,5.95,23.38,6.48,10.17.67,19-7.77,12.75-17.92-2.96-4.81-8.71-7.1-14.14-7.49-3.58-.26-7.17.34-10.64,1.15-2.73.63-7.43,1.17-9.49,3.4-2.3,2.49-1.19,5.05,1.82,6.09,3.31,1.14,7.95.27,11.4.28,5.38.01,10.76.02,16.15.03.86,0,1.52-.85,1.28-1.68-1.76-6.16-7.21-8.36-12.76-10.44-6.73-2.52-10.68-6.33-11.48-13.64-.57-5.17-.57-10.45-.82-15.64-1.03-21.49-2.06-42.99-3.1-64.48-1.04-21.58-4.75-44.26,3.92-64.68,2.88-6.77,6.12-13.73,4.57-21.25-1.66-8.04-6.66-14.96-8.43-23.07-5-22.89,1.99-46.6-4.51-69.35-.48-1.67-2.88-.96-2.56.71,1.53,8.12,3.05,16.25,4.58,24.37,1.04,5.56,1.46,12.22,4.82,17.02,5.86,8.35,13.64,1.72,17.92-4.32,6.36-8.97,10.38-20.82,5.39-31.38-4.16-8.82-14.2-13.07-23.2-9.13-1.33.58-.49,2.38.67,2.48,5.22.45,11.77.88,15.8,4.77,2.08,2.01,3.16,4.77,2.93,7.65-.37,4.63-4.23,5.69-8.49,5.76-5.31.08-11.44-1.53-13.51,5-.31.98.69,1.89,1.64,1.64,14.45-3.84,28.89-7.68,43.34-11.52,6.97-1.85,20.71-3.41,18.65-13.69-.18-.91-1.23-1.13-1.95-.79-6.27,2.94-13.42,5.8-20.48,5.54-9.79-.35-10.22-9.19-11.89-16.53-1.49-6.52-6.24-13.6-13.86-11.12-.97.32-1.28,1.47-.59,2.22,10.29,11.12,20.25,23.17,24.7,37.93,2.13,7.06,3.35,15.3,1.45,22.56-1.43,5.45-5.01,9.23-11.11,8.62-4.38-.44-8.38-3.07-11.97-5.44-.47-.31-1.23-.21-1.61.21-4.97,5.41,2.7,8.73,7.25,8.85,9.98.26,24.32.72,32.81-5.51,6.96-5.11,7.92-13.3,2.96-20.19-2.87-3.99-7.06-6.7-10.41-10.23-5.26-5.54-7.47-13.19-5.6-20.66.17-.69,1.48-5.63,2.27-5.56l1.04,1.67c1.33,1.05,1.38,2.14.17,3.26-.34,1.8-1.6,3.58-2.03,5.43-1.02,4.35-.74,9.08.75,13.29,2.09,5.9,8.91,14.71,16.21,10.92,6.86-3.56,4.73-14.83,4.01-20.86-.99-8.31-3.21-17.33-9.97-22.9-8.8-7.25-21.43-5.5-31.88-4.2-10.31,1.28-21.2,4.54-25.61,14.89-.27.64-.22,1.45.48,1.82,3,1.6,6.23-.02,6.96-3.42.53-2.45-.89-4.87-1.94-6.97-2.17-4.37-4.38-8.67-6.24-13.19-3.38-8.23-6-16.77-7.84-25.47-1.85-8.77-2.37-17.7-3.81-26.53-1.69-10.4-2.24-19.66-.18-30.09,1.88-9.56,4.98-18.82,7.21-28.3,3.55-15.09,5.06-30.96-2.15-45.23-.6-1.19-2.5-.61-2.48.67.33,17.85,1.76,35.61,4.25,53.29.19,1.34,2.26,1.19,2.56,0,2.68-10.41,4.3-21.02,4.63-31.77.22-7.38,1.18-17.72-2.2-24.57-3.79-7.69-9.45-3.06-15.44-1.95-5.02.92-8.7-2.65-13.49-2.8-3.16-.1-5.97,1.32-8.38,3.24-7.37,5.88-15.15,24.65-27.52,17.72-6.74-3.77-7.93-13.27-13.92-18.02-4.67-3.7-11.11-4.93-16.88-3.69-2.68.58-5.23,1.68-7.43,3.32-2.81,2.08-2.71,2.54-2.27,5.75.15,1.1,1.55,1.12,2.22.59,7.73-6.2,18.01-7.09,26.73-2.44,1.09.58,2.62-.66,1.82-1.82-1.37-1.97-.07-7.8.08-10.07.3-4.54.29-9.06.29-13.61,0,.2-.22-4.62,0-4.77.86-.6-.68-.27.85.08,1.62.36,3.67,2.17,5.43,2.67,5.18,1.48,10.63.8,15.56-1.23,7.03-2.89,16.1-9.28,16.91-17.5.57-5.85-.95-12.02-.72-17.98.23-5.77.66-11.55-.56-17.24-1.78-8.27-7.01-15.19-15.72-16.63-4.72-.78-9.48.07-13.99,1.48-3.95,1.24-10.59,2.88-13.31,6.34-4.56,5.82,1.34,9.37,6.77,8.2,3.13-.67,6.08-1.63,9.35-1.57,3.62.06,6.63,1.56,10.15,1.84,2.78.22,6.18-.75,6.9-3.9,2.04-8.89-15.1-5.13-18.7-3.54-4.84,2.13-8.84,5.69-11.54,10.24-1.28,2.16-2.25,4.5-2.85,6.95-.24.99-.43,1.98-.56,3-.05.6-.11,1.19-.16,1.79.27,2.2-.88,3.71-3.47,4.55-.41-.89-1.87-.85-2.3,0-3.63,7.33,1.73,14.73,9.87,13.04-.56-.43-1.12-.85-1.68-1.28-.4,9.86,4.85,19.43,14.02,23.53,8.84,3.95,22.16,2.36,27.97-6.16,2.47-3.62,2.05-7.8,1.53-11.94-.43-3.45-2.06-8.54-1.59-11.94.05-.76.1-1.52.16-2.28,1.47.56,2.93,1.13,4.4,1.69,2.31,3.39-.96,7.85-3.98,8.82-3.11,1-5.84.51-7.22,4.06-.68,1.75-.36,3.89-.31,5.71.14,4.58.48,9.16.93,13.72.96,9.71,1.02,24.08,11.11,29.14,4.82,2.42,10.41,2.15,15.59,3.1,6.84,1.25,13.41,4.03,19.19,7.88,12.34,8.23,19.62,20.09,21.2,34.79,1.51,14.02,1.81,27.1,7.63,40.23,12.94,29.2,44.62,56.5,35.13,91.5.87.12,1.74.24,2.61.35.96-8.41-4.3-14.85-10.13-20.28-7.55-7.02-15.27-13.48-21.98-21.37-14.32-16.86-25.09-36.37-35.43-55.81-.42-.78-1.71-2.62-1.92-3.62-.12-.6-4.93-8.02,2.42-4.93,1.53.64,2.83,5.05,3.54,6.52,2.76,5.69,5.63,11.32,8.61,16.9,5.43,10.17,11.21,20.15,17.33,29.92,10.01,15.98,21.36,36.36,40.95,41.64,9,2.43,16.7.75,24.6-3.77,15.57-8.9,17.15,11.01,22.52,20.35,4.31,7.5,12.55,10.94,18.23,17.15,8.04,8.79,4.87,22.3-4.51,28.83-9.84,6.85-23.63,3.47-32.23-3.78-4.14-3.49-8.18-8.39-8.51-14-.21-3.57,1-7.69,4.32-9.63,4.84-2.83,10.47.66,13.79,4.09,2.26,2.34,5.39,6.63,5.23,10.16-2.67-.29-5.33-.57-8-.86.14-.58.29-1.15.43-1.73.16-1.12.71-2.25.97-3.35.97-4.02,1.1-8.07.29-12.13-1.93-9.68-8.15-17.55-14.64-24.67-17-18.65-30.87-38.23-39.08-62.35-4.06-11.95-6.74-24.39-7.81-36.96-.97-11.36-.65-25.16,9.44-32.56-.65-.5-1.3-1-1.95-1.5-5.49,19.52-11.35,41.04-3.61,60.79,2.87,7.32,7.41,14.12,13.71,18.92,4.86,3.71,13.69,8.75,19.52,4.4,4.86-3.63,3.97-10.39,1.98-15.26-2.36-5.76-5.3-10.78-6.33-17.03-1.03-6.24-.84-12.61-.71-18.9.33-15.71.05-34.05-14.25-43.96-.5-.35-1.2-.17-1.61.21-3.03,2.74-1.9,7.64,1.87,9.22,5.14,2.15,10.63-2.77,13.51-6.47,7.92-10.16,7.45-24.94-.53-34.84-.4-.49-1.11-.43-1.61-.21-4.42,1.95-6.22,8.17-1.85,11.27,4.7,3.33,10.07-.18,10.61-5.42.46-4.47-1.6-8.87-1.49-13.35.15-5.74,2.45-11.51,6.23-15.82,8.81-10.05,24.22-10.21,34.17-1.84.2-.74.39-1.48.59-2.22-10.24,1.48-20.48,2.99-30.73,4.43-2.88.4-11.01,3.1-9.04-4.34.68-2.59,5.46-4.47,7.62-5.14,4.16-1.3,8.61-1.31,12.91-.98,6.97.53,20.46,1.4,24.13,8.69,3.44,6.83-5.29,15.23-6.02,22.28-.8,7.73,2.52,15.6,1.01,23.26-2.18,11.05-13.72,11.92-22.82,10.15-1.62-.32-3.26-.67-4.83-1.19-1.1-.31-2.17-.73-3.19-1.27-1.9-7.37-.02-9.71,5.63-7.03,4.01,2.2,5.98,7.66,6.77,11.91,1.73,9.3-1.88,18.7-8.9,24.86-.66.58-.42,1.67.27,2.09,7.76,4.75,17.44,8.51,21.78,17.07,5.3,10.45,5.46,24.95,2.36,36.08-1.06,3.8-1.55,5.69-.95,9.68.35,2.34.54,4.71.86,7.05.72,5.2,1.62,10.37,2.71,15.51,2.34,11,5.52,21.83,9.53,32.34,1.02,2.67,1.99,5.42,3.19,8.02,1.08,3.37,3.15,5.92,6.22,7.67.4.87.8,1.74,1.2,2.61,1.64,4.64,1.27,9.66,3.12,14.29,3.31,8.28,10.53,14.33,13.69,22.68,3.8,10.02-1.77,22.23-12.14,25.6-11.39,3.7-23.4-5.22-24.86-16.68-.56.43-1.12.85-1.68,1.28,13,3.66,24.33-7.46,21.01-20.52-.65.5-1.3,1-1.95,1.5,8.02,4.66,3.32,14.15-3.32,17.11-6.02,2.68-12.74,1.51-19,.46-1.66-.28-2.38,2.06-.71,2.56,3.77,1.14,1.8,19.33,1.66,22.19-.42,8.93-1.25,17.83-2.1,26.73-.12,1.21-.08,2.58-.36,3.76-.09.4.04.96-.11,1.34-.31.76-5.2,4.31-6.26,4.24-1.08-.07-4-2.28-4.98-2.75-1.22-.59-2.67-1.2-3.94-1.66-3.2-1.17-6.52-1.97-9.89-2.47-16.7-2.47-33.07,2.7-48.78,7.79.5.65,1,1.3,1.5,1.95,10.44-15.96,32.2-5.31,46.98-4.87,4.84.14,10.62-.44,13.7-4.72,3.75-5.21,2.2-14.1,2.25-20.02.05-5.66,1.37-13.25-2.1-18.23-1.89-2.72-4.88-4.03-7.56-5.79-3.45-2.27-6.36-4.92-8.9-8.17-11.01-14.04-11.47-32.61-11.78-49.67-.02-1.1-1.47-1.82-2.27-.94-12.26,13.54-2.1,34.02-12.99,47.88-4.49,5.72-14.24,4.8-15.32,13.18-1.11,8.62,2.92,19.12,5.04,27.36,2.66,10.37,5.59,20.69,7.39,31.26,2.03,11.86,1.49,23.25.82,35.17-.56,9.99.31,19.33,3.14,28.93,2.89,9.79,7.03,19.28,8.85,29.37.92,5.12.91,9.99.52,15.13-.22,2.93-.56,6.17.8,8.89,3.03,6.05,9.86,3.74,14.77,1.55,6.46-2.89,12.12-7.09,12.29-14.76.21-9.22-5.4-18.51-7.24-27.47-2.39-11.66-2.63-23.78-.7-35.52,1.71-10.43,6.17-19.75,8.82-29.88,1.99-7.61,2-15.63-3.01-22.09-3.44-4.44-8.86-7.28-14.5-5.73-7.87,2.16-11.2,10.45-12.07,17.82-1.47,12.43-.1,25.41.51,37.86,1.24,25.16,1.77,51.37-10.49,74.21-.37.69-.09,1.8.79,1.95,6.49,1.1,12.38.17,18.19-2.95.93-.5.84-2.27-.32-2.43-6.22-.85-13.61-1.66-18.22,3.59-2.83,3.22-3.49,7.81-.65,11.21,8.22,9.89,26.51,1.78,33.97-4.81.7-.62.39-2.07-.59-2.22-6.59-1.05-14.49-1.17-19.25,4.37-3.1,3.6-4.29,9.24-1.4,13.31,3.79,5.32,11,4.63,16.61,3.77,7.15-1.09,12.61-.56,19.3,2.33,3.67,1.58,7.17,3.51,10.86,5.03,6.74,2.79,14.65,4.56,21.33.59,4.51-2.69,7.81-7.49,6.87-12.89-3.19-18.4-33.02-8.65-36.04-26.53-.09-.56-.74-.99-1.28-.98-3.83.08-5.31,4.05-3.02,7.04,1.92,2.51,5.94,3.82,8.55,5.36,4.02,2.37,7.93,4.94,12.06,7.1,13.73,7.18,26.36,2.38,40.91,1.6,14.31-.77,28.71-.63,43.03-.77,47.52-.47,95.05-.6,142.57-.7,15.74-.03,31.47-.08,47.21-.06,1.71,0,1.71-2.66,0-2.66-44.86-.05-89.73.14-134.59.37-25.32.13-50.65.27-75.97.64-7.11.1-14.23.15-21.33.48-6.55.31-12.96,1.67-19.47,2.4-5.18.58-10.31.78-15.29-1-5.75-2.05-10.93-5.56-16.12-8.69-2.25-1.35-5.07-2.45-7.13-4.05-1.12-.87-3.21-5.73-2.18-3.07.33.85.64,1.66,1.1,2.46,2.04,3.5,5.68,5.89,9.33,7.4,5.75,2.39,12.25,2.59,17.79,5.54,9.23,4.9,9.46,16.44-1.11,19.97-12.77,4.26-24.65-8.3-36.88-10.09-6.72-.98-13.58,2.51-20.13.81-7.35-1.9-7.1-10.92-1.56-14.77,4.13-2.87,9.86-2.49,14.53-1.75-.2-.74-.39-1.48-.59-2.22-5.8,5.12-13.21,8.33-21.04,8.13-1.51-.04-3.1-.14-4.55-.59-1.54-.35-2.92-1.07-4.15-2.17-.19-2.32-.39-4.65-.58-6.97,1.96-5.88,11.98-4.57,16.4-3.97l-.32-2.43c-5.11,2.75-10.39,3.66-16.14,2.69.26.65.53,1.3.79,1.95,17.5-32.61,9.43-69.81,9.93-105.02.12-8.6,1.82-26.98,15.24-23.75,10.85,2.61,11.73,15.98,9.52,24.65-2.14,8.36-5.93,16.16-7.81,24.62-1.88,8.48-2.66,17.22-2.31,25.91.32,7.97,1.58,15.91,3.78,23.58,2.82,9.83,10.48,22.49-1.08,29.65-2.45,1.52-6.68,3.98-9.47,4.13-8.41.45-6.88-6.25-6.48-11.5.63-8.28-.85-16.21-3.22-24.12-2.37-7.88-5.46-15.54-7.5-23.52-2.55-9.99-2.24-19.73-1.58-29.91,1.14-17.54-1.52-33.8-5.87-50.74-2.58-10.01-5.52-20.02-7.16-30.24-.4-2.5-1.23-5.55-.4-8.06,1.34-4.08,5.21-4.15,8.2-5.54,2.61-1.22,4.77-2.94,6.53-5.23,10.72-13.9.74-34.39,12.63-47.53-.76-.31-1.51-.63-2.27-.94.26,14.1.58,28.75,6.59,41.8,2.57,5.58,6.14,10.83,10.79,14.88,2.43,2.11,5.19,3.58,7.84,5.37,5.55,3.74,5.22,9.27,5.17,15.22-.07,8.38,2.82,24.17-7.96,26.32-8.54,1.7-17.65-1.72-26.06-2.92-10.52-1.5-22.31-.15-28.58,9.44-.63.96.42,2.3,1.5,1.95,21.09-6.84,43.23-13.15,64.02-2.06,4.1,2.19,9.38,4.15,11.31-1.66.93-2.8.7-6.57.98-9.5,1.04-10.77,2.07-21.58,2.27-32.41.07-3.9,1.6-17.03-3.83-18.66-.24.85-.47,1.71-.71,2.56,9.13,1.54,20.59,2.94,27.14-5.26,4.36-5.47,3.4-13.58-2.77-17.16-1.02-.59-2.24.38-1.95,1.5,2.84,11.14-6.73,20.35-17.73,17.25-.75-.21-1.79.41-1.68,1.28,1.45,11.3,11.39,20.74,23.12,20.19,10.99-.51,19.98-10.63,20.51-21.38.3-6.05-2.46-11.55-5.73-16.45-5.18-7.79-9.89-13.76-11.37-23.29-.71-4.59-1.78-10.3-6.4-12.65-3.68-1.88-7.9-.71-9.91,2.85-.31.55-.18,1.15.21,1.61,2.08,2.45,5.79,1.89,7.48-.82,3.21-5.16-2.96-14.36-4.68-19.16-3.16-8.83-5.74-17.86-7.73-27.02-.96-4.4-1.79-8.82-2.46-13.27-.64-4.19-.46-9.18-1.85-13.23-1-2.92-4.06-5.78-7.28-3.74-2.65,1.68-1.98,5.07.79,6.1,11.02,4.11,10-25.65,9.42-30.43-.89-7.28-2.61-14.94-7.64-20.54-5.2-5.79-12.69-8.98-19.21-12.97.09.7.18,1.39.27,2.09,7.22-6.33,11-15.82,9.89-25.41-.77-6.66-4.7-16.57-12.67-16.93-5.83-.27-10.71,6.08-6.48,11.06,4.7,5.54,17.17,6.32,23.72,5.23,8.53-1.41,13.64-7.66,13.92-16.21.18-5.34-1.19-10.6-1.4-15.93-.27-7.07,3.13-11.54,5.67-17.72,8.03-19.53-26.52-22.36-38.13-19.68-4.19.97-8.84,2.89-11.02,6.84-1.48,2.68-1.86,6.3,1,8.23,3.89,2.63,11.62-.07,15.77-.67,8.67-1.25,17.33-2.5,26-3.75.97-.14,1.3-1.62.59-2.22-11.95-10.05-30.34-8.97-39.69,4.08-4.55,6.35-6.04,14-4.65,21.63.15.84.36,1.68.51,2.53.13,1.01.27,2.03.4,3.04-1.73,1.84-3.46,3.67-5.19,5.51-3.18.44-3.5-7.63.46-5.42.46.25,1.23,2.11,1.51,2.71,2.28,4.84,2.85,10.5,1.85,15.74-.92,4.86-3.22,9.52-6.79,12.98-2.2,2.13-2.2,2.02-5.48,1.18-5.82-1.47-2.4-.89-1.34.91,1.49,2.52,3.48,4.41,4.75,7.11,4.42,9.34,4.32,19.93,4.09,30.02-.24,10.45-.49,21.18,3.78,30.96,1.85,4.25,7.98,12.74,3.92,17.26-1.7,1.9-7.22,2.68-9.48,2.13-1.47-.36-3.1-1.25-4.42-1.97-2.4-1.3-4.63-2.95-6.62-4.82-20.89-19.64-13.31-50.62-6.54-74.7.29-1.03-.98-2.21-1.95-1.5-8.38,6.14-10.9,16.08-11.11,26.05-.27,12.64,2.21,25.69,5.59,37.82,7.28,26.18,21.12,49.28,39.56,69.09,5.08,5.46,10.32,10.99,13.71,17.71,3.94,7.8,3.92,14.69,1.85,22.95-.85,3.4-1.75,7.8,1.41,10.39,2.52,2.06,6.06,1.43,8.41-.55,14.15-11.91-21.72-39.14-25.63-14.24-1.66,10.55,8.39,19.9,17.02,23.99,8.9,4.22,20.06,4.72,28.28-1.3,6.76-4.95,11.07-13.82,9.7-22.24-1.9-11.65-13.86-15.58-20.76-23.62-6.68-7.78-5.75-23.88-17.59-27.16-4.77-1.32-8.54,1.28-12.49,3.54-8.2,4.7-17.57,4.53-26.12.66-13.99-6.32-22.6-20.53-30.61-32.93-8.27-12.81-15.95-26-23.01-39.52-1.44-2.76-11.9-30.37-18.64-20.13-2.6,3.95,2.73,10.49,4.45,13.71,3.55,6.65,7.16,13.28,10.95,19.8,7.75,13.33,16.31,26.28,26.6,37.8,5.13,5.73,10.75,10.81,16.55,15.85,6.27,5.46,13.16,11.78,12.12,20.86-.17,1.51,2.23,1.76,2.61.35,7.48-27.6-10.57-51.97-24.54-73.97-8.01-12.62-14.91-25.74-16.68-40.79-1.45-12.28-.57-25.07-6.62-36.29-5.32-9.85-14.32-17.68-24.38-22.42-4.61-2.17-9.46-3.7-14.49-4.48-8.91-1.38-17.09-1.55-20.26-11.6-2.12-6.73-2.53-14.24-3.11-21.22-.27-3.29-.97-7-.62-10.29.34-3.18.72-5.83,4.21-7.02,1.28-.44,2.68-.26,3.96-.86,5.52-2.58,5.37-14.66-.78-16.51-10.39-3.13-3.35,21.19-3.72,24.17-1.34,11.03-16.45,13.43-24.89,10.38-9.01-3.25-14.13-12.37-13.76-21.65.04-.91-.88-1.45-1.68-1.28-5.8.98-8.09-2.07-6.87-9.13h-2.3c1.32,2.85,5.02,2.95,6.98.56,1.47-1.79,1.24-4.32,1.45-6.45.56-5.72,2.74-10.98,6.85-15.07,3.14-3.13,10.2-7.49,14.89-6.44,1.96.44,2.34-1.26,1.46,1.98-.98,3.57-.3,1.19-2.61,1.4-1.97.18-4.39-.86-6.48-.89-1.75-.02-9.08,2.19-10.06,1.67-.22-.97-.43-1.93-.65-2.9-1.48-2.15-1.13-3.36,1.06-3.62.9-.64,2.56-1.07,3.64-1.49,2.57-.99,5.2-1.92,7.9-2.48,11.15-2.34,20.06,3.21,22.45,14.37,1.94,9.07-.28,18.47.67,27.64.67,6.42-.04,11.17-5.04,15.64-4.23,3.78-9.31,6.81-14.96,7.75-6.01,1.01-9.25-1.08-14.33-3.47-.96-.45-1.84-.97-2.86-.31-2.01,1.3-1.05,6.39-1.05,8.01,0,3.83.07,7.67-.14,11.49-.2,3.53-2.02,10.43.13,13.52.61-.61,1.21-1.21,1.82-1.82-9.84-5.25-21.27-4.12-29.95,2.85.74.2,1.48.39,2.22.59-1.02-7.4,14.9-6.35,18.82-4.65,7.01,3.05,8.78,10.11,13,15.77,7.41,9.93,18.75,5.82,25.8-2.29,5.91-6.8,10.42-16.16,21.07-12.46,2.52.88,4.87,1.95,7.6,1.69,5.13-.48,11.67-6.28,14.57,1.47,2.64,7.05,1.71,17.05,1.36,24.44-.46,9.75-2.01,19.35-4.44,28.8h2.56c-2.45-17.44-3.83-34.97-4.16-52.58-.83.22-1.65.45-2.48.67,15.11,29.92-9.43,60.41-6.88,90.95.6,7.16,2.22,14.19,2.93,21.34.68,6.85,1.73,13.65,3.29,20.36,1.62,6.93,3.74,13.74,6.35,20.36,1.22,3.09,2.53,6.13,3.95,9.13.76,1.61,1.56,3.2,2.36,4.79.33.63.66,1.26,1,1.89,2.12,2.44,1.66,4.7-1.39,6.76.16.61.32,1.21.48,1.82,5.77-13.53,24.24-14.64,37.01-14.69,15.1-.06,22.96,9.02,25.19,23.3.74,4.74,2.4,12.69.38,17.31-4.23,9.64-12.51-.19-14.39-4.31-1.89-4.16-2.45-8.88-1.43-13.37.37-1.63,8.44-17.12-.89-15.13-3.2.68-4.69,5.36-5.46,8.03-1.41,4.88-1.3,10.26.36,15.06,1.42,4.1,3.92,7.43,7.05,10.4,5.59,5.3,15.03,11.81,10.35,20.76-3.95,7.55-14.03,8.26-21.46,8.79-3.42.24-6.85.4-10.28.47-1.5.03-3.57.49-5,.03-2.13-.68-6.17-4.22-1.18-1.45,7.39,4.1,16.72,5.31,21.26-3.29,5.42-10.27,1.83-24.91-2.43-34.88-5.24-12.28-13.92-22.6-22.91-32.31-.2.74-.39,1.48-.59,2.22,9.97-3.25,10.41,11.1,12.1,17.07,1.03,3.65,2.84,7.37,6.3,9.27,8.33,4.56,20.81-.91,28.47-4.51-.65-.26-1.3-.53-1.95-.79,1.5,7.44-11.1,8.91-15.62,10.11-5.08,1.35-10.15,2.7-15.23,4.05-9.76,2.6-19.52,5.19-29.28,7.79.55.55,1.09,1.09,1.64,1.64,2.15-6.77,14.21-1.09,18.86-4.61,2.87-2.17,3.71-6,3.14-9.4-1.68-10.08-12.84-11.81-21.29-12.53.22.83.45,1.65.67,2.48,9.86-4.31,19.31,3.42,21.08,13.1,1.72,9.39-2.77,18.8-8.56,25.93-1.69,2.08-4.32,4.63-7.16,4.92-3.38.34-5.5-4.13-6.38-6.55-1.19-3.28-1.62-6.87-2.26-10.28-1.67-8.9-3.34-17.79-5.01-26.69-.85.24-1.71.47-2.56.71,5.85,20.48.83,41.64,3.37,62.46.99,8.15,3.57,15.26,6.95,22.65,4.9,10.73,1.65,18.49-2.68,28.85-7.76,18.56-4.45,39.38-3.51,58.92,1.03,21.48,2.06,42.96,3.1,64.44.42,8.8-1.16,20.9,3.32,28.88,4.84,8.63,19.27,6.53,22.07,16.35.43-.56.85-1.12,1.28-1.68l-18.45-.04c-1.79,0-9.46,1.48-7.03-2.78.65-1.14,7.11-1.98,8.44-2.22,6.71-1.26,15.58-.96,19.66,5.59,5.51,8.85-3.19,14.65-11.29,13.86-12.01-1.17-25.18-6.79-35.7-12.44-4.55-2.45-4.37-4.25-1.86-9.02.48-.92,1.11-1.63,1.47-2.64,1.21-3.34.69-7.24.58-10.69-.18-5.51.63-10.63,4.46-14.94,4.8-5.41,12.96-5.98,18.3-.95,1.42,1.31,2.42,2.88,3.01,4.72-.97,4.34-3.07,5.84-6.31,4.51-2.09-.57-3.89-1.79-5.91-2.52-2.89-1.05-6.01-1.67-8.71.21-1.13.79-1.4,2.14-2.38,2.9-.83,2.68-2.7,2.49-5.62-.57-.12-1.59-.24-3.17-.37-4.76-.49-6.35-.98-12.7-1.46-19.05-.23-3.01-1.02-6.53-.73-9.52-.8-3.08.51-5.46,3.93-7.15,1.36-.52,2.74-.99,4.13-1.4,6.23-1.83,12.62-2.35,19.08-1.96v-2.66c-8.29,1.03-21.01,10.16-28.32,2.61-3.54-3.66-3.51-9.97-3.87-14.67-.44-5.64-.86-11.29-1.29-16.93-.8-10.48-1.6-20.96-2.39-31.44-.37-4.83-.84-9.67-1.11-14.51-.04-.81-.23-1.76-.1-2.57.22-1.39,3.16-5.89,4.53-6.63,2.19-1.17,6.98-.6,9.34-.69,4.8-.16,9.59-.33,14.39-.49,2.07-.07,5.21-.79,7.2-.25,2.38.65,1.25-1.56,2.6,2.39,1.28,3.76-.78,2.61-3.89,2.93-10.04,1.04-20.09,1.97-30.13,2.95-4.82.47-9.76,1.36-14.6,1.41-7.18.07-9.8-3.87-11.14-10.25-2.09-9.97-3.68-20.08-5.36-30.13-3.98-23.77-7.01-47.7-7.27-71.83h-2.66c.52,15.01,1.04,30.02,1.56,45.03.34,9.74,2.02,19.4,2.14,29.13.05,4.63-.12,9.97-2.63,14.02-4.01,6.47-11.87,5.02-18.31,4.85-8.96-.23-15.2,3.11-17.61,12.1-3.65,13.59-4.56,28.41-6.66,42.32-2.08,13.71-4.17,27.43-5.43,41.24-1.35,14.77-1.76,29.69-.1,44.45.78,6.98,3.29,15.05-.6,21.51-4.32,7.18-13.13,9.37-20.83,10.58-5.12.8-13.79,1.88-11.61-7.56.64-2.76,2.45-5.68,3.8-8.18,4-7.43,11.48-16,21.04-13.34,3.89,1.08,7.5,4.51,7.73,8.73.36,6.8-6.27,8.8-11.54,7.35-3.98-1.09-7.98-3.57-12.25-2.5-1.55.39-2.61,1.85-3.96,2.24-.4.39-.81.78-1.21,1.17-1.66-1.85-3.33-3.69-4.99-5.54.02-1.28,2.89-3.51,3.92-4.44,3.85-3.48,6.6-6.26,7.56-11.52,1.48-8.04.05-18.19,12.26-15.85,4.07.78,7.64.78,11.18-1.74,6.22-4.43,7.07-13,1.77-18.53-2.35-2.44-5.53-3.86-8.92-3.85-5.5.03-14.02,3.19-13.28-5.8.38-4.61,1.58-9.11,2.01-13.72.74-7.92,1.62-15.83,2.21-23.76.97-12.98-2.87-35.17,11.46-42.15,6.12-2.98,13.12-1.25,19.58-.63,6.28.6,12.6.25,18.76-1.13,1.78-.4,3.54-.9,5.28-1.47,2.02-.67,5.49-3.15,3.67,2.6-1.74,5.47-10.68,3.71-14.6,3.09-6.34-1.01-12.63-1.67-19.06-1.46-6.07.2-11.94,1.17-17.87,2.42-4.87,1.03-13.41,3.21-12.07-6.64.51-3.72,3.79-7.98,5.28-11.51,5.02-11.93,7.95-24.58,9.65-37.38,1.7-12.83,2.19-25.78,2.56-38.7.18-6.45.33-12.91.58-19.36.11-2.86.13-5.75.4-8.6.32-3.4.3-3.9,3.06-6.28,2.95-2.55,3.43-2.17,6.96-1.73,26.71,3.39,53.99.9,79.54-7.68,1.29-.43,9.02-4.21,10.13-3.71.25.6.51,1.19.76,1.79,1.47,1.89.93,2.53-1.62,1.93-1.24.37-3.39.19-4.77.27-7.95.43-15.9.76-23.85,1-15.11.46-30.23.57-45.35.35-7.1-.1-14.41.14-21.48-.54-4.71-.46-8.61-1.38-10.13-6.31-1.12-3.64-.66-7.69-.33-11.42,1.31-14.71,3.97-29.26,6.29-43.83,4.31-27.1,6.56-53.44.5-80.45-1.6-7.12-3.37-14.38-3.18-21.74.07-3.02-1.05-5.7,2.77-5.35,3.53.32,2.44,1.61,2.55,4.78.13,3.83.06,7.67.09,11.5.11,14.03,2.19,29.97-1.93,43.58-1.77,5.83-5.33,10.95-6.94,16.83-1.72,6.26-.66,12.55.09,18.87,1.73,14.58-3.14,27.38-8.58,40.63-4.36,10.63-8.51,21.57-8.45,33.24.05,10.96,4.44,18.35,11.34,26.39,2.91,3.39,6.06,7.99,3.16,12.5-1.93,3-5.84,4.64-9.27,4.85-7.63.48-15.03-5.59-17.13-12.75-2.09-7.13.88-14.23,3.31-20.86,2.27-6.21,3.91-12.48,4.76-19.04,1.73-13.35.8-26.82.92-40.23.06-7.51.51-14.94,1.77-22.36,1-5.9,2.44-11.8,1.94-17.83-.36-4.32-1.61-8.69-4.36-12.12-3.31-4.13-15.98-9.44-10.48-15.92-.74-.2-1.48-.39-2.22-.59,13.43,37.36,6.49,78.02-.13,116.04h2.56c-2.21-6.2-7.65-5.31-12.84-7.41-3.88-1.57-6.08-5.56-5.5-9.59.24-1.69.48-3.13.66-4.84.5-4.84.51-9.71.13-14.55-1.45-18.78-8.37-36.56-15.24-53.92-.74.43-1.48.86-2.22,1.29,10.76,13.74,9.12,32.69,9.12,49.12,0,4.74,0,9.47,0,14.21,0,4.08,1.22,14.37-2.98,16.78-2.74.15-5.47.3-8.21.45-1.34-1.45-2.29-3.12-2.86-5.01-.47-1.39-.71-2.85-1.01-4.28-.77-3.57-1.56-6.57-3.79-9.49-.76-.99-2.46-.76-2.48.67-.15,11.68.6,24.22,11.25,31.3,5.65,3.75,12.68,5.4,17.67,10.15,6.79,6.47,8.1,17.11,6.5,25.97-1.36,7.54-5.53,15.51-13.48,17.56-3.67.95-8.1.51-11.25-1.71-5.04-3.55-4.92-9.83-3.39-15.12,1.92-6.7,6.24-12.35,7.4-19.31.93-5.58,1.33-13.15,9.82-10.89,3.25.86,6.09,2.68,9.47,3.11,8.76,1.12,13.41-8.17,5.5-13.39-4.44-2.93-11.36-2.65-16.47-2.49-5.07.16-10.61.96-14.7,4.24-4.66,3.73-5.11,9.04-6.41,14.46-1.76,7.33-6.87,13.54-8.13,20.99-2.41,14.36,14.67,16.54,17.81,28.48,1.19,4.51.37,9.3.34,13.88-.04,4.76.53,9.49.83,14.23.62,9.89.22,19.82.58,29.71.34,9.25,4.26,22.15-.31,30.66-3.84,7.15-18.92,17.28-26.83,12.49v2.3c6.55-3.74,13.1-7.48,19.65-11.22,2.96-1.69,6.37-4.95,8.74-1.48,1.75,2.57,2.48,7.87,3.35,10.85,4.41,15.09,7.9,31.16,4.89,46.87-2.66,13.86-10.99,25.53-15.62,38.69-2.21,6.29-3.63,13-3.07,19.69.59,7.08,5.06,14.04,2.64,21.12.65-.26,1.3-.53,1.95-.79-8.22-5.95-17.17-10.09-27.01-12.54-.92-.23-1.99.64-1.64,1.64,4.03,11.13-21.11,18.66-11.35,30.36,5.82,6.98,21.09,4.86,28.66,3.13,10.47-2.39,18.56-11.12,16.86-22.36-1.78-11.78-12.18-15.93-22.7-15.69-1.39.03-3.97.42-5.31-.24-7.21-3.55-1.47-7.98.64-10.48,1.62-1.92,3.12-3.83,4.34-6.05,2.7-4.91,4.03-10.45,4.48-16,1.14-14.23-3.78-27.63-7.81-41.03-2.24-7.44-4.24-15.01-4.61-22.8-.37-7.81.24-13.97-3.36-21.17-7.38-14.74-11.1-29.37-13.98-45.54-3.07-17.25-6.11-34.5-9.16-51.75-.69-3.92-1.45-7.83-2.08-11.76-.08-.47-1.27-5.5-.8-5.94,1.11.1,2.22.21,3.34.31-.91,1.28-1.83,2.56-2.74,3.84-5.03,7.05-10.02,14.12-15.08,21.14-2.85,3.95-5.79,8.73-11.32,8.68-3.49-.03-6.85-1.67-10.07-2.83-4.12-1.49-8.6-2.92-12.91-1.28-10.18,3.88-9.84,18.33-8.58,27.05,1.92,13.31,7.85,25.54,11.76,38.3,1.96,6.38,3.49,12.97,3.55,19.68.08,8.83-2.85,16.95-5.73,25.15-2.26,6.44-4.53,12.91-4.36,19.83.16,6.31,2.18,12.33,3.63,18.42,1.96,8.17,2.72,16.48,2.4,24.87-.34,8.81-1.12,20.05-5.53,27.97-2.86,5.15-7.11,7.7-8.14,13.74-.83,4.86-1.89,9.18-6.58,11.75-3.33,1.82-6.72,1.51-10.25.69-.99-.23-2-.92-3.08-.81-2.25.22-4.23,2.08-3.03,4.46,1.64,3.23,8.47,2.67,11.29,2.3,4.42-.58,8.67-2.32,12.16-5.11,2.56-2.04,4.27-4.75,6.59-7.01,4.91-4.78,8.03-2.41,13.09-.16,1.66.74,3.34,1.49,5.21,1.41,3.4-.14,5.39-1.47,7.51,2.37,1.27,2.31,1.47,5.36,5.2,4.66,2.59-.49,3.39-2.71,3.27-5.02-.03-.54-1.13-4.17-1.18-4.17-.41,0,.05,2.56-.19,1.96.55,1.39.69,2.43,2.1,3.28,7.1,4.31,12.04-8.27,7.16-12.92-2.5-2.38-5.4-1.68-7.85.31-3.52,2.86-5.78,6.06-11.16,4.9-3.89-.83-7.19-3.27-10.9-4.59-13.15-4.69-25.73,7.64-37.74,11.16-5.11,1.5-12.31,3.14-17.63,1.26-5.36-1.89-6.35-7.79-2.57-12.24,3.35-3.95,8.99-4.99,13.84-5.51,5.84-.62,11.6-.6,17.06-3.07,2.8-1.26,5.34-3,7.56-5.12,3.74-3.58,5.88-9.3,11.99-9.13,11.1.32,18.04,18.69,30.61,12.83,3.91-1.82,5.41-5.82,5.27-9.92-.26-7.87-3.25-14.85-2.42-22.94,1.62-15.92,8.51-30.56,8.99-46.74.5-16.68-2.97-33.15-5.92-49.47-1.45-8.04-2.77-16.1-3.46-24.25-.35-4.1-.53-8.2-.5-12.31.02-1.85.07-3.7.18-5.55.09-1.47.21-2.94.37-4.41-.73-2.96.25-4.69,2.93-5.2,4.7-2.33,3.67,2.18,3.78,5.77.09,2.75-.55,5.61-1.01,8.32-.61,3.58-1.46,7.12-2.25,10.66-1.61,7.21-3.24,14.57-3.09,22,.15,7.27,2.76,13.28,5.23,20,1.53,4.17,2.65,8.9.42,13.09-3.11,5.83-9.99,3.22-15.11,4.1-4.76.81-8.38,3.99-12.6,6.04-13.23,6.42-12.65-12.88-12.79-20.59-.29-16.33-2.4-30.98-6.96-46.69-4.79-16.48-8.17-32.34-8.24-49.6-.07-15.31,2.08-30.86-2.49-45.68-2.82-9.13-2.8-17.57-2.37-27.05.09-1.93-.48-8.6,1.11-10.05.65-.59,9.75,1.07,10.86,1.14,4.57.3,9.15.41,13.72.34,16.1-.24,31.78-3.08,47.27-7.33,15.51-4.25,30.94-8.94,47.2-8.47.76.02,1.27-.63,1.33-1.33,1.32-16.43-9.97-31.47-26.6-33.57-4.41-.56-8.65-.11-12.92,1.07-3.23.89-4.49,2.04-7.04-1.07-2.17-2.64-1.83-2.64-1.42-5.72.26-1.91.51-3.81.77-5.72,1.66-12.38,3.28-24.77,4.99-37.15,1.59-11.53,3.47-23.2,8.52-33.79,4.41-9.28,11.36-17.45,13.64-27.66.88-3.93,1.2-8.18.13-12.11-1.24-4.55-3.98-8.46-5.24-13.06-2.97-10.86-2.99-22.16-5.51-33.02-1.3-5.61-5.81-12.14-12.47-10.84-7.74,1.5-8.36,10.68-6.28,16.71,1.53,4.44,4.45,8.33,5.7,12.87.21,1.19.41,2.39.62,3.58-1.97,1.6-3.93,3.21-5.9,4.81-.76.09-3.04-1.18-3.94-1.44-2.18-.63-4.64-1.2-6.94-1.17-3.64.05-8.55,3.21-4.63,6.94,2.86,2.72,9.58,3.53,13.24,4.35,4.64,1.04,9.39,1.57,14.12.85,7.59-1.16,14.62-5.56,19.22-11.67,5.19-6.91,6.26-15.21,6.23-23.63-.02-5.16-.42-10.35,0-15.5.51-6.24,3.11-10.83,5.42-16.43,3.61-8.77-3.95-16.33-8.84-23.01-4.97-6.78-10.37-14.36-18.28-17.89-4.61-2.06-11.24-3.47-11.54,3.06-.22,4.92.91,10.23,1.34,15.15.31,3.47.09,8.1,2.17,11.13,2.21,3.22,14.13,5.9,5.49,12.71-4.24,3.35-13.92,1.12-18.94.71-1.22-.1-4.12.02-4.93-.51-1.01-.65-1.85-8.68-1.49-9.31.9-1.57,3.43-2.87,4.74-4.12,2.82-2.68,4.49-5.83,5.2-9.65,1.13-6.04,1.24-16.24-2.63-21.53-4.27-5.83-11.19-2.62-16.09.43-13.78,8.58-25.71,24.85-24.1,41.77.4,4.23,1.91,8.25,2.59,12.43.71,4.38-1.34,10.56.74,14.59,2.62,5.08,10.87,4.65,15.65,5.35,10.92,1.59,21.93,2.24,32.96,1.73,9.25-.43,20.86-.62,29.25-5.08,5.47-2.91,9.9-9.22,7.88-15.62-2.04-6.45-9.05-7.65-14.95-7.12-11.1.99-21.71,3.64-32.98,3.59-11.3-.05-22.13-2.53-33.31-3.41-5.78-.46-13.05.66-14.65,7.28-1.98,8.18,6.89,17.48,10.92,23.64,5.54,8.45,19.45,23.62,12.99,34.28-7.5,12.37-23.66,3.88-34.25,2.4-19.06-2.68-19.73,18.66-15.78,32.16,2.48,8.47,7.19,15.94,13.56,22v-1.88c-3.06,2.71-6.84-1.21-7.76-3.81-.58-1.62-.44-3.67-.49-5.37-.09-2.96.11-5.82-.83-8.68-1.36-4.17-4.54-7.34-7.53-10.39-4.51-4.6-9.96-10.25-5.98-17.09,3.86-6.63,13.11-9.6,19.79-12.14,6.61-2.51,14.09-5.8,21.25-6.15,6.11-.3,9.02,2.32,11.44,7.86,1.09,2.49,1.56,4.69,3.25,6.89,6.17,8.05,34.19,15.07,23.52,28.95.83.22,1.65.45,2.48.67,1.22-9.81,6.3-18.32,13.17-25.27,3.69-3.74,7.86-6.99,12.17-9.99,3.45-2.41,7.76-6.13,11.74-7.62,2.01-1.81,4.24-1.64,6.7.52,4.28-.25,6.09,1.57,5.44,5.45-.01,2.73-.95,5.38-1.72,7.96-1.3,4.32-2.7,8.62-4.26,12.85-3.26,8.85-7.44,17.13-13.93,24.07.7.54,1.39,1.07,2.09,1.61,6.94-9.17,14.17-18.83,16.23-30.43.86-4.85.85-9.95-.54-14.71-.6-2.05-5.48-10.51.97-10.08.97.07,3.12,2.17,4.27,2.53,4.65,1.46,9.6-.63,14.19-1.31,8.85-1.3,15.93,4.67,17.99,13.12,3.38,13.87-2.94,29.24-11.81,39.73.63.63,1.25,1.25,1.88,1.88,5.14-6.22,8.58-13.42,9.72-21.45.55-3.9.59-7.83.03-11.73-.25-1.72-.72-3.39-1.02-5.1-1.35-3.72.77-5.09,6.37-4.11.85.83,1.65,1.7,2.4,2.62,13.78,16.96,6.35,41.75-13.22,50.06.45.77.89,1.53,1.34,2.3,5.48-3.11,10.07-7.41,13.26-12.88,1.42-2.43,2.54-5.05,3.33-7.76.42-1.45,1.04-9.12,3.28-9.23,1.22-.06,5.72,9.36,6.38,10.7,2.16,4.37,3.78,9.17,3.71,14.1-.14,9.78-6.78,17.04-16.76,16.51-6.48-.34-13.05-2.46-19.29.36-1.68.76-3.22,1.76-4.39,3.21-.68.85-1.12,1.71-1.56,2.72-.99,2.23.06,2.97-2.84,2.53-3.27-.5-2.54-4.85-3.5-7.84-.97-3.02-2.3-5.96-3.95-8.67-3.34-5.5-7.92-9.95-13.32-13.4-.34.81-.68,1.62-1.02,2.43,11.37,4.47,13.45,17.22,13.61,28.02.15,9.78-.07,19.58-.12,29.37-.02,4.76-.05,9.51-.07,14.27-.03,5.21.55,11.05-1.08,16.06-1.81,5.58-6.94,9.33-12.41,10.88-4.39,1.24-8.88.42-13.33,1.1-3.2.49-5.46,1.85-8.16,3.54-4,2.52-8.35,4.14-12.95,5.19-9.65,2.2-19.64,1.89-29.46,1.65-9.49-.24-18.73.89-28.15,1.06-1.36.02-2.48-.03-3.84-.29-4.41-.82-5.04-1.52-5.46-5.98-.39-4.1-.04-4.5,1.84-7.58,2.36-3.88,4.58-7.69,7.68-11.07,5.21-5.7,12.76-9.24,17.15-15.69,4.18-6.15,3.74-13.74-.46-19.72-.76-1.08-2.41-.69-2.48.67-.79,15.11-12.31,26.55-27.41,27.25-1.2.06-1.69,1.39-.94,2.27,10.36,12.18,28.49-7.19,33.11-16.31,6.91-13.62,4.9-30.79-5.76-41.96-10.39-10.89-27.78-13.36-40.67-5.54-7.81,4.74-13.47,12.15-20.77,17.55-4.99,3.69-12.05,5.93-12.87,12.96-.54,4.6,1.7,9.25,3.78,13.23.88,1.68,1.82,3.4,3.1,4.82,1.39,1.53,3.28,2.03,4.77,3.3.05.02.11.04.16.07,3.11,1.27,4.27,4.38,3.47,9.35-2.48,1.59-6.36,1.96-8.86.34-3.57-2.32-5.11-6.58-6.4-10.39-2.02-5.97-3.27-12.2-4.15-18.44-.17-1.23-1.87-1.16-2.43-.32-5.18,7.72-.61,16.89,7,20.85,4.93,2.57,10.58,3.08,16.03,3.31,8.17.34,16.32,1.64,24.46,1.81,2.73.06,8.72.52,10.25-2.78.95-2.05-.37-3.95-2.31-4.63-2.48-.87-5.51.47-8.06.06-3.55-.57-6.49-2.82-9.77-4.14-4.07-1.65-8.14-2.13-11.95.31-.9.57-.86,2.19.32,2.43,10.34,2.09,20.82,2.79,31.33,1.69,4.62-.48,12.93-.59,11.75-7.19-.15-.81-1.29-1.25-1.95-.79-10.81,7.4-23.52-4.07-35.26-2.5-1.34.18-1.97,2.28-.35,2.61,13.74,2.77,27.53,1.6,40.58-3.56,1.06-.42,1.45-2.33,0-2.56-11.92-1.93-26.39-6.77-38.29-3.03-1.63.51-.96,2.96.71,2.56,9.4-2.22,19.24-3.83,28.45-6.74,4.38-1.38,8.36-4.37,6.43-9.41-.27-.69-.88-1.1-1.64-.93-11.94,2.72-23.57,2.88-35.64,1.05-3.19-.48-10.62.05-6.97,5.17.52.73,1.4.87,2.09.27,4.39-3.85,8.72-7.78,12.95-11.81,2.22-2.12,6.91-5.15,6.88-8.64-.08-8.34-13.04-1.51-16.07.5-1.66,1.1-3.25,2.39-4.67,3.78-.77.76-1.71,2.28-2.52,2.82-.69.18-1.38.36-2.07.54-1.79,1.19-2.51.9-2.16-.87-.71-2.55,1.92-7.63,2.97-9.91,4.11-8.98,10.1-16.21,10.11-26.57,0-9.76-3.36-21.13-8.25-29.59-4.52-7.83-11.51-9.94-20.17-8.88-5.19.63-10.58,2.14-15.78.74-5.39-1.45-9.55-5.74-15.09-6.83-9.61-1.89-12.53,6.72-16.81,13.25-1.1,1.68-3.36,4.81-5.47,4.84-1.56-.48-3.11-.97-4.67-1.45.17-.4.32-.8.45-1.22-.1-2,1.25-4.69,1.41-6.86.18-2.65-.03-5.34-.62-7.92-.69-3.02-2.38-5.45-.71-8.36,1.93-3.36,9.7-4.36,13.21-7.04,1.9-1.45,3.57-3.16,4.97-5.1,2.3-3.18,4.89-10.95,10.06-7.95-.09-.7-.18-1.39-.27-2.09-7,8.19-23.04,23.64-34.98,17.23-11.31-6.07-4.81-24.2-7.37-34.11-1.79-6.94-5.81-13.76,1.66-19.08,5.61-4,13.62-5.22,20.34-4.89,6.39.31,17.66,6.19,22.81-.28,5.09-6.4-1.99-13.83-7.83-16.18-7.75-3.13-16.25-1.07-23.36,2.7-4.8,2.55-17.35,8.87-15.77,16.16,1.68,7.78,10.56,3.19,14-.01,9.08-8.45,23.27-10.75,32.48-.78,3.78,4.09,5.67,9.81,5.66,15.32,0,2.55-.47,5.14-1.39,7.52-.87,2.24-2.89,4.48-3.22,6.94-.65,4.8,4.11,7.11,7.45,3.61,3.88-4.07,4.14-12.5-1.4-15.27-5.96-2.97-10.27,2.81-9.06,8.39.56,2.58,2.07,4.83,2.63,7.41.84,3.89-.44,7.75-1.59,11.42-1.26,4.04-2.44,7.76-2.04,12.04.68,7.28,5.3,11.14,12.37,11.89,6.38.68,13-1.16,19.25.74,6.2,1.89,10.66,7.27,13.03,13.08,5.83,14.3-.86,30.83-6.33,44.23-5.49,13.43-11.85,26.86-18.98,39.51-3.42,6.05-7.57,11.86-13.62,15.52-6.2,3.76-13.58,4.99-20.66,5.78-14.86,1.67-29.81,2.77-44.71,4.14.31.76.63,1.51.94,2.27,10.92-11.41,21.73-21.46,36.61-27.34,5.15-2.03,10.59-4.23,13.91-8.92,3.58-5.07,3.6-11.38,4.8-17.24,1.64-8.03,7.05-10.88,11.76-16.77,3.26-4.08,4.03-8.73,3.42-13.83-.89-7.39-4.6-15.01-1.91-22.41,3.4-9.37,13.85-12.32,22.81-13.15,1.17-.11,1.98-1.86.67-2.48-13.49-6.35-29.85-3.21-39.53,8.31-2.94,3.5-5.16,7.56-8.21,10.98-3.91,4.4-13.68,10.53-18.38,2.92-3.44-5.58,3.15-7.13,3.67-11.59.24-2.02-.54-3.28-2.47-3.95-2.62-.91-7.19,1.48-9.64,2.23-3.81,1.18-7.6,2.47-11.27,4.06-7.6,3.31-14.32,7.91-19.4,14.52-10.48,13.66-13.12,31.59-23.75,45.19.76.31,1.51.63,2.27.94.56-14.09,8.17-25.98,16.34-36.98,8.46-11.39,19.42-27.05,35.8-23.43-.11-.81-.21-1.62-.32-2.43-10.95,8.33-18.84,19.88-22.62,33.13-1.93,6.76-2.78,13.88-2.38,20.9.2,3.45.23,14.27,4.53,15.6,4.5,1.39,3.81-5,3.43-7.38-.94-5.84-4.16-11.3-9.61-13.94-4.82-2.33-10.69-2.1-14.77,1.57-2.02,1.81-3.53,4.28-3.95,7-.19,1.25-.13,2.41.07,3.64.08.71.27,1.4.58,2.06,1.88,3.32-.24,5.16-6.38,5.49-.38.67-.77,1.33-1.15,2,15.84,1.8,31.85.6,47.16-3.91,8.38-2.47,16.58-6.87,25.38-7.61,1.64-.14,3.23-.16,4.85.15,1.28.12,2.47.52,3.58,1.21.11,2.76.22,5.53.33,8.29-1.77,3.09-8.47,4.58-11.67,5.74-5.83,2.11-11.95,3.99-17.17,7.43-6.35,4.19-11.84,10.05-17.54,15.06-3.68,3.23-7.29,7.17-11.5,9.71-4.98,3-8.29,1.65-13.21.18-3.27-.98-5.53-.69-8.82-.75-9.77-.18-8.53-8.14-6-14.75.3-.78-.47-1.74-1.28-1.68-4.9.34-7.56,4.13-8.09,8.82-.56,4.89.08,9.52-1.34,14.33-1.27,4.3-3.42,8.3-5.74,12.11-3.51,5.79-9.66,12.06-11.15,18.78-.47,2.12-.36,4.08.55,6.07,1.8,3.95,10.9,8.42,7.1,13.91-.86,1.24,1.07,2.71,2.09,1.61,10.88-11.72,17.75-26.1,24.49-40.44,1.22-2.6,2.9-8.6,5.06-10.51.85-2.02,1.65-.86,2.39,3.47-.91.56-1.87.97-2.89,1.21-1.83.56-3.77.68-5.61,1.21-4.52,1.3-7.86,4.39-6.8,9.3.74-.43,1.48-.86,2.22-1.29-1.91-2.39-4.24-4.26-7.18-5.23-2.03-.67-9.73.15-10.36-2.33.06.24,1.34-3,1.37-3.43.05-.86-.12-1.69-.39-2.51-1.06-3.14-4.17-5.22-6.32-7.54-11.16-12.03-7.79-32.18-22.76-41.59-.92-.58-2.38.4-1.95,1.5,3.85,10.02,9.47,19.17,17.05,26.81,2.24,2.26,4.78,4.69,8.25,4.13,3.52-.56,4.48-3.36,6-6.14,4.1-7.51,13.93-9.28,15.25-18.69,1.2-8.55-4.1-16.35-10.65-21.22-9.58-7.13-22.72-9.93-29.88-20.13-7.6-10.85.97-23.45-.03-35.38-1.5-18.07-17.38-36.77-36.85-34.7-7.62.81-15.3,4.51-16.3,12.69-.19,1.55.1,3.32-.3,4.84-.86,3.2-3.34,4.9-5.33,7.19-1.28,1.48-2.58,3.05-3.2,4.94-1.05,3.22-.46,6.46,2.16,8.65.68.56,2.05.5,2.22-.59,2.12-13.44,18.09-15.47,29.18-16.24,8.04-.56,13.74,1.43,18.64,7.99,1.84,2.47,3.74,5.21,4.59,8.2,1.06,3.24.54,6.32-1.56,9.26-2.83-.3-5.65-.6-8.48-.9-3.5-3.34-1.45-11.12-3.4-15.47-1.09-2.44-2.91-4.42-5.15-5.85-6.07-3.88-13.99-3.19-20.07.23-13.4,7.52-15.23,25.91-6,37.48,11.3,14.17,29.73,4.55,37.83-7.86-.7.09-1.39.18-2.09.27,4.65,5.25,2.78,12.49-1.8,17.04-3.76,3.74-8.72,5.18-13.54,6.94-4.16,1.52-9.67,4.64-7.92,10.02,1.57,4.83,7.32,4.61,10.92,2.34,3.45-2.18,6.07-6.02,8.73-9.01,3.33-3.75,7.55-10.81,13.07-10.81-.31-.76-.63-1.51-.94-2.27-8.59,8.81-17.27,17.56-25.6,26.62-6.59,7.16-12.65,14.89-15.7,24.26-3.31,10.17-3.06,21.04-2.42,31.58.74,12.19,1.19,23.75-.63,35.89-1.46,9.75.74,16.49,5.87,24.84,6.09,9.92,11.41,20.05,15.31,31.04,7.6,21.39,10.22,44.19,7.9,66.75.87-.12,1.74-.24,2.61-.35-1.92-8.74-12.65-10.6-14.78-19.41-1.19-4.9-.13-10.21.08-15.17.21-5.08-.02-10.16-.67-15.2-.73-5.62-1.95-11.18-3.73-16.56-1.57-4.76-4.3-9.32-5.52-14.13-3.32-13.06,18-21.48,28.1-23.32-.34-.81-.68-1.62-1.02-2.43-6.73,3.33-13.55,6.45-20.51,9.26-1.71.69-6.79,3.73-8.53,3.3-2.92-2.97-3.09-5.02-.49-6.13.84-.68,1.78-1.18,2.82-1.49,1.34-.58,2.69-.98,4.08-1.4,5.15-1.54,10.05-3.33,14.73-6.02,4.67-2.69,8.22-6.24,12.43-9.49,3.63-2.8,3.62-3.61,5.55,1.53,2.02,5.37,2.02,3.11-.19,5.71-1.51,1.78-3.88,2.93-5.53,4.61-2.79,2.83-4.8,6.36-6,10.13-2.58,8.12-1.14,17.02,3.9,23.86.61-.61,1.21-1.21,1.82-1.82-3.82-2.35-7.64-5.58-9.35-9.87-3.09-7.76,1.4-10.11,6.96-13.28,5.94-3.38,11.5-7.42,16.53-12.05,1.69-1.55,4.61-6.08,6.9-6.08,3.16,0,8.06,7.13,8.64,9.38,2.21,8.69-10.64,10.49-15.68,14.84-2.09,1.8-3.29,4.03-5.13,5.95-1.15,1.2-5.01,4.79-3.32.88.54-1.25,2.11-2.74,2.98-3.76,2.09-2.42,4.47-4.86,7.41-6.24,5.46-2.57,10.67.07,16.18.59,2.81.26,6.3-1.02,9.01-.18,5.29,1.65,5.79,9.3,5.97,13.65.36,8.78-1.87,17.43-4.71,25.66-4.88,14.17-11.98,28-12.56,43.26-.57,14.84,7.47,28.2,9.56,42.75,4.85,33.74-5.49,67.3-2.3,100.96.36,3.79.96,7.55,1.91,11.23,1.25,4.88,3.52,10,2.28,15.11-1.76,7.27-8.46,6.8-14.47,6.75-4.75-.04-9.49-.09-14.24-.13-10.88-.1-29.94-2.43-31.86,12.64-.09.74.69,1.29,1.33,1.33,12.58.76,25.03-.61,37.44-2.53,6.98-1.08,17.19-1.1,20.17-8.87.51-1.33-1.32-2.1-2.22-1.29-9.39,8.4-22.48,4.96-33.71,3.69-4.87-.55-9.84-.78-14.65.37-2.52.6-5.1,2.37-7.63,2.65-1.5.72-2.91.27-4.22-1.35-3.19-.29-4.12-1.7-2.8-4.24.59-3.19,1.7-4.69,4.47-6.54,4.02-2.7,8.95-3.69,12.89-6.55,3.83-2.79,5.52-7.16,8.9-10.33,5.96-5.59,10.04,1.08,15.55,2.34,4.23.97,17.88-5.8,19.03,1.47.43-.56.85-1.12,1.28-1.68-7.68.33-15.14-.9-22.6-2.65-5.24-1.23-8.2-1.38-8.95-7.88-.28-2.43.89-5.48,1.22-7.99,1.84-13.86,2.1-27.91.81-41.83-1.2-12.93-3.68-25.76-7.51-38.17-4.15-13.48-14.61-29.47-8.57-43.72-.83-.22-1.65-.45-2.48-.67-2.86,33.49-6.18,66.7-10.73,100.02-1.08,7.87-2.15,15.74-3.23,23.62-.54,3.94-1.08,7.87-1.61,11.81-.17,1.22-.15,3.76-.65,4.72-5.84,4.26-9.47,3.58-10.89-2.03-.48-1.8-.57-3.61-.26-5.42.5-7.35,3.03-14.91,4.47-22.14,1.67-8.43,3.17-16.89,4.55-25.37,2.53-15.55,4.63-31.16,6.6-46.79.98-7.75,2.06-15.51,2.86-23.28.39-3.82.75-8.3-1.88-11.47-3.76-4.52-12.44-2.75-17.93-2.56-57.04,1.93-114.08,3.86-171.11,5.8-18.96.64-37.93,1.28-56.89,1.93-1.71.06-1.71,2.72,0,2.66h0Z"/>
    <path class="cls-4" d="M1045.43,721.28c-.05,3.27.22,7.03,3.25,9,2.8,1.82,6.43,1.15,9.42.25,8.7-2.6,17.26-5.17,26.24-6.7,18.07-3.08,36.71-3.15,54.8-.16,4.58.76,9.14,1.71,13.64,2.85.95.24,1.89.49,2.84.75.8.22,1.97.8,2.83.59,1.21-.29,1.98-1.94,2.2-3.02.62-3.04-1.39-5.82-4.09-6.98-3.8-1.63-8.65-1.02-12.67-.98-19.08.16-38.15,1.96-56.92,5.34-5.37.97-10.71,2.06-16.03,3.29-4.8,1.11-9.77,2.1-14.37,3.92-3.79,1.5-7.36,3.76-9.48,7.34-1.98,3.34-2.44,7.24-.83,10.8.29.63,1.26.84,1.82.48,11.64-7.52,25.99-5.38,39.1-5.51,11.35-.12,24.02-2.03,31.75-11.21.82-.97.07-2.59-1.29-2.22-15.26,4.11-30.52,8.22-45.78,12.34-6.31,1.7-13.28,2.89-19.03,6.14-5.18,2.93-8.1,7.85-9.02,13.64-1.02,6.44-.34,13.13-.13,19.61.26,7.81.52,15.62.78,23.43.26,7.81.52,15.62.78,23.43.18,5.41-.37,12.22,3.4,16.63,2.16,2.53,5.37,3.31,8.56,3.58,4.23.36,8.5.41,12.74.59,8.89.4,17.77.79,26.66,1.19v-2.66c-7.47.81-14.93,1.62-22.4,2.43-5.25.57-12.49.03-15.54,5.26-2.36,4.04-2.49,9.75-.46,13.94,1.34,2.77,3.03,5.33,4.25,8.17,1.34,3.1,2.4,6.32,3.24,9.59,3.31,12.82,3.2,26.22,3.08,39.36-.06,6.85.37,13.41,1.46,20.18,1.13,6.99,2.11,13.82,1.47,20.91-.29,3.24-.4,6.65,1.2,9.6,1.32,2.44,3.66,4.11,6.23,5.04,6.73,2.44,13.52-.87,19.41-3.96,1.53-.8.19-3.01-1.34-2.3-10.36,4.81-22.59,4.95-33.04.34-.75-.33-1.74-.12-1.95.79-1.85,7.75-6.71,14.55-13.38,18.91-3.29,2.15-6.94,3.65-10.79,4.41-3.85.75-8.44.89-11.3,3.97-2.01,2.17-3.06,5.72-1.39,8.39,2.08,3.31,6.43,2.64,9.68,2.09,10.38-1.77,20.73-3.7,31.06-5.74,5.68-1.12,11.35-2.28,17.02-3.48,2.83-.6,5.66-1.21,8.49-1.83,1.54-.34,3.08-.68,4.63-1.02,1.63-.36,2.73-.25,4.37.14-.11-.81-.21-1.62-.32-2.43-9.87,4.3-19.81,8.44-29.82,12.4-1.37.54-2.66,1.15-4.14,1.28-1.32.11-2.67.06-4,.09-2.66.06-5.33.12-7.99.18-5.46.13-10.93.25-16.39.38l.35,2.61c10.3-2.86,20.6-5.71,30.89-8.57,5.15-1.43,10.3-2.86,15.45-4.29,4.4-1.22,9.12-2.1,13.32-3.91,3.07-1.32,5.6-3.73,5.35-7.32-.14-2.03-1.15-3.88-2.08-5.64-1.02-1.93-1.95-3.89-2.68-5.95-2.82-8.01-3.08-16.63-2.47-25.02,1.31-17.93,6.56-35.39,6.27-53.46-.14-9.08-1.48-18.06-2.85-27.02-1.54-10.03-2.78-20.1-4.33-30.13-3.55-22.99-7.92-45.85-10.91-68.92-.21-1.65-2.8-1.74-2.66,0,1.32,16.1,4.3,31.98,7.74,47.75,1.59,7.29,2.84,14.87,5.17,21.96,1.62,4.92,4.74,10.35,10.33,11.19,4.83.73,10.69-1.93,10.71-7.41-.76.31-1.51.63-2.27.94,15.24,16.86,21.23,39.45,25.37,61.25,2.36,12.44,4.35,24.95,6.49,37.42,1.13,6.63,2.26,13.27,3.4,19.9.88,5.18,1.79,10.65,4.72,15.13,2.59,3.95,6.55,6.48,11.35,6.41,4.2-.06,8.26-2.21,9.44-6.45.3-1.07-.97-2.16-1.95-1.5-7.91,5.28-18.33,5.75-26.64,1.1-.97-.54-2.33.36-1.95,1.5,1.84,5.6,3.84,11.71,2.73,17.66-1.13,6.09-6.06,9.66-9.93,14.03-2.96,3.34-5.3,7.77-4.66,12.37.62,4.43,4.33,7.37,8.73,7.4,5.02.03,9.21-2.85,12.81-6.04,2.02-1.79,3.97-3.7,6.27-5.15,2.83-1.78,5.8-2.22,9.08-2.35,4.58-.17,10.13-.57,12.82-4.92,2.87-4.64-.68-9.28-3.48-12.89-15.27-19.72-6.73-45.85-1.88-67.61,2.71-12.17,3.95-24.26,2.23-36.67-1.74-12.52-5.81-24.57-10.65-36.2-2.37-5.7-4.92-11.33-7.53-16.93-1.87-4.02-3.7-9.26-8.14-11.13-4.02-1.69-8.03.5-11.35,2.7-4.4,2.92-8.58,6.21-13.26,8.68-2.63,1.39-5.38,2.43-8.24,3.19.55.31,1.09.62,1.64.93-.78-2.04.79-3.89,2.69-4.54,2.33-.8,5.01-.04,7.35.32,3.24.5,6.51.61,9.77.22,6.23-.74,12.51-3.11,16.93-7.71,5.37-5.6,6.4-13.3,5.85-20.75-.68-9.19-2.26-18.36-3.46-27.5-1.24-9.49-2.48-18.98-3.72-28.47-1.1-8.42-1.85-17.11-5.23-24.99-1.65-3.85-4.1-7.34-5.52-11.29-1.52-4.2-1.12-8.22.51-12.31,1.48-3.72,3.57-7.16,5.04-10.88,1.56-3.93,2.21-8.15,2.35-12.36.35-10.11-1.22-20.48-2.51-30.49-1.34-10.46-3.04-20.87-5.09-31.21-.27-1.34-2.21-1.19-2.56,0-3,10.12-10.07,18.78-19.34,23.82-11.14,6.05-24.07,5.14-36.29,6.34-8.27.82-16.65,1.99-24.59,4.54-7.56,2.42-15.68,6.32-16.89,15.01-.79,5.64.03,11.52-.07,17.2-.15,7.86-.3,15.71-.45,23.57-.03,1.71,2.63,1.71,2.66,0,.13-6.93.26-13.85.39-20.78.1-5.37-.22-10.71-.15-16.07.06-4.66,1.1-8.57,4.92-11.46,3.38-2.56,7.51-4.1,11.54-5.3,8.27-2.47,16.99-3.66,25.58-4.31,11.79-.89,24-.65,34.69-6.45,9.87-5.36,17.37-14.65,20.57-25.41h-2.56c3.64,18.33,6.66,37.14,7.46,55.84.2,4.64.06,9.34-1.2,13.83-1.13,4.03-3.27,7.64-5.01,11.43-1.53,3.34-2.81,6.9-2.68,10.64.14,3.85,1.74,7.38,3.5,10.73,2.03,3.86,3.98,7.6,5.15,11.82,1.19,4.29,1.84,8.71,2.42,13.12,1.25,9.45,2.47,18.91,3.71,28.36,1.24,9.51,2.56,19.02,3.72,28.54.96,7.84,1.45,16.71-4.26,22.97-5.09,5.59-13.08,7.75-20.43,7.55-4.17-.12-8.71-1.95-12.81-.68-3.2.99-5.83,4.44-4.54,7.82.26.68.88,1.13,1.64.93,4.9-1.3,9.39-3.51,13.61-6.28,4.09-2.68,8.07-6.42,12.66-8.21,4.39-1.71,7.31.96,9.3,4.7,2.72,5.14,5,10.61,7.34,15.94,4.79,10.92,9.09,22.14,11.6,33.82,2.53,11.75,2.81,23.58.72,35.41-3.73,21.12-12.73,42.85-6.1,64.39,1.42,4.62,3.59,8.95,6.53,12.79,1.48,1.92,3.28,3.88,4.04,6.24.95,2.98-.73,5.35-3.4,6.58-4.96,2.28-10.75.45-15.8,2.73-4.47,2.03-7.6,5.92-11.45,8.83-3.7,2.79-11.38,5.52-14.02-.11-2.55-5.42,2.36-11.01,5.86-14.54,4.01-4.05,7.61-8.06,8.36-13.95.77-6.04-1.08-12.07-2.94-17.74-.65.5-1.3,1-1.95,1.5,9.1,5.1,20.64,4.71,29.33-1.1-.65-.5-1.3-1-1.95-1.5-1.12,4.03-5.86,5.08-9.5,4.22-4.77-1.14-7.42-5.64-8.84-10.02-1.7-5.26-2.32-10.89-3.24-16.32-1.07-6.24-2.13-12.49-3.2-18.73-3.68-21.55-6.39-43.79-14.11-64.36-4.06-10.83-9.65-21.02-17.43-29.63-.79-.87-2.27-.17-2.27.94-.01,4.53-6.15,5.79-9.53,4.24-4.98-2.28-6.52-8.91-7.64-13.71-3.12-13.39-6.14-26.82-8.44-40.38-1.33-7.84-2.38-15.72-3.03-23.65h-2.66c2.57,19.83,6.13,39.5,9.35,59.23,1.6,9.82,3.04,19.65,4.37,29.51,1.26,9.36,3.02,18.66,3.87,28.07.8,8.85.59,17.68-.55,26.5-1.15,8.78-2.9,17.47-4.11,26.24-1.13,8.19-1.89,16.54-.95,24.79.45,3.92,1.26,7.8,2.62,11.51.61,1.66,1.32,3.29,2.13,4.86,1.05,2.04,2.91,4.57,2.21,7-.62,2.17-3.05,3.19-5,3.84-2.54.84-5.16,1.47-7.74,2.19-5.41,1.5-10.81,3-16.22,4.5-11.33,3.14-22.66,6.29-33.98,9.43-1.43.4-1.17,2.65.35,2.61,5.6-.13,11.19-.26,16.79-.39,2.93-.07,5.86-.13,8.79-.2,1.28-.03,2.74.13,4-.09,1.24-.22,2.47-.88,3.65-1.34,10.22-4.05,20.38-8.28,30.46-12.67,1.07-.46.72-2.18-.32-2.43-.95-.23-2.14-.7-3.12-.71-.87,0-1.81.38-2.67.57-2.57.57-5.14,1.14-7.71,1.69-4.76,1.03-9.52,2.03-14.3,3.01-9.67,1.98-19.36,3.84-29.08,5.59-2.33.42-4.66.83-7,1.24-2.3.4-4.79,1.12-7.14.93-5.24-.43-2.82-6.34.34-7.86,3.69-1.77,8.12-1.57,12-2.88,3.38-1.14,6.57-2.83,9.42-4.98,6.29-4.73,10.89-11.5,12.72-19.17-.65.26-1.3.53-1.95.79,11.41,5.03,24.42,4.92,35.73-.34-.45-.77-.89-1.53-1.34-2.3-5.16,2.7-11.15,5.83-17.09,3.79-2.69-.92-4.84-2.86-5.58-5.66-.74-2.8-.17-5.77.02-8.6.43-6.19-.58-12.36-1.57-18.45-1.04-6.42-1.62-12.65-1.55-19.15.11-11.75.24-23.59-1.81-35.2-1-5.67-2.57-11.22-4.86-16.5-2.09-4.81-5.61-8.88-5.23-14.37.18-2.58,1.07-5.79,3.48-7.17,1.46-.83,3.29-.97,4.92-1.15,1.83-.2,3.67-.4,5.5-.6,7.73-.84,15.46-1.67,23.19-2.51,1.67-.18,1.74-2.58,0-2.66-7.29-.32-14.59-.65-21.88-.97-3.58-.16-7.16-.32-10.74-.48-3.25-.14-6.89.1-10.02-.9-6.36-2.02-5.83-10.02-6.01-15.39-.24-7.15-.47-14.3-.71-21.45-.24-7.28-.48-14.56-.72-21.84-.22-6.68-.76-13.43-.49-20.11.24-5.86,1.73-11.76,6.86-15.22,5.14-3.47,11.86-4.55,17.75-6.14,15.91-4.29,31.81-8.57,47.72-12.86-.43-.74-.86-1.48-1.29-2.22-7.95,9.44-21.29,10.59-32.82,10.42-12.65-.18-26.36-1.31-37.5,5.88.61.16,1.21.32,1.82.48-1.55-3.41-.18-7.36,2.22-10.01,2.49-2.75,6.08-4.23,9.55-5.28,7.92-2.41,16.15-4.05,24.28-5.59,16.98-3.22,34.22-5.1,51.49-5.65,4.67-.15,9.35-.22,14.02-.15,2.04.03,4.46,0,6.23,1.18,1.61,1.08,2.53,3.53.8,4.92.43-.11.86-.23,1.29-.34-30.01-8.56-62.31-8.61-92.33-.05-3.85,1.1-7.72,2.87-11.69,3.41-1.89.26-3.95.14-5.21-1.48-1.26-1.62-1.15-3.94-1.13-5.89.02-1.71-2.63-1.71-2.66,0Z"/>
  </g>
</svg>