<?xml version="1.0" encoding="UTF-8"?>
<svg id="Layer_1" data-name="Layer 1" xmlns="http://www.w3.org/2000/svg" viewBox="0 0 1920 1080">
  <defs>
    <style>
      .cls-1 {
        fill-rule: evenodd;
      }

      .cls-1, .cls-2 {
        fill: #231f20;
      }

      .cls-3 {
        stroke: #383838;
        stroke-miterlimit: 10;
        stroke-width: 5.47px;
      }

      .cls-3, .cls-4 {
        fill: none;
      }

      .cls-5 {
        fill: #1d1d1b;
      }
    </style>
  </defs>
  <g>
    <path class="cls-5" d="M1300.24,724.39h0c-5.6-3.67-10.9-4.4-15.83-3.28,1.57,1.12,2.6,2.77,3.1,4.59,3.21-.23,6.52,.62,9.98,2.89,1.11,.73,1.53,1.31,1.56,1.61,.02,.27-.17,.76-.58,1.46-1.91,3.25-4.77,5.96-7.78,8.38-.21,.75-.49,1.46-.85,2.07-.96,1.63-2.3,2.64-3.88,3.41-.51,.52-1.06,.99-1.7,1.35-.32,.18-.62,.36-.94,.54-.34,.53-.71,1.05-1.14,1.53-1.16,1.31-2.63,2.24-4.2,2.97-.15,.16-.31,.31-.46,.47-.81,.89-1.84,1.51-2.96,1.93-.56,.63-1.16,1.21-1.86,1.67-2.53,1.69-5.04,3.4-7.7,4.87-.9,.5-1.84,.79-2.78,.96-.2,.15-.42,.28-.62,.43-.24,.2-.85,.69-.98,.79-.5,.44-.99,.89-1.46,1.37-.15,.15-.29,.31-.43,.46-.22,.38-.5,.91-.52,.95-.2,.43-.47,.8-.74,1.16,11.62-4.78,21.77-12.21,31.59-19.42,4.84-3.56,10.33-7.59,13.73-13.37,.66-1.13,1.41-2.65,1.26-4.42-.17-2.03-1.45-3.85-3.81-5.39Z"/>
    <path class="cls-5" d="M1281.2,718.9c-8.55-3.29-17.78-1.59-25.67,.51-24.98,6.63-47.9,19.4-70.05,31.74-13.42,7.47-27.17,15.13-41.4,21.43,2.02,.73,3.77,1.8,5.25,3.12,13.27-6.08,26.08-13.19,38.59-20.16,21.89-12.2,44.52-24.81,68.9-31.28,7.12-1.89,15.37-3.45,22.58-.67,6.3,2.42,11.59,9.85,9.24,16.15-1.41,3.77-5.02,6.46-9.25,9.34-9.38,6.38-18.86,13.15-28.02,19.7-17.6,12.57-35.52,25.35-54.25,36.54,1.22,1.17,2.27,2.52,3.1,4,18.69-11.2,36.54-23.93,54.07-36.45,9.15-6.53,18.6-13.29,27.93-19.64,3.82-2.6,9.04-6.15,11.12-11.73,3.45-9.23-3.63-19.31-12.13-22.59Z"/>
    <path class="cls-5" d="M1296.38,760.55c10.4-9.08,21.16-18.48,33.74-24.03h0c5.58-2.47,15.2-4.99,23.93-4.99,6.23,0,12.01,1.28,15.56,4.8,1.41,1.4,2.24,2.84,2.59,4.36,1.16-.62,2.52-1.02,4.15-1.02,.29,0,.53,.06,.8,.08-.52-2.51-1.85-4.86-4.01-6.99-10.94-10.83-35.07-5.24-45.05-.83-13.27,5.86-24.32,15.51-35.01,24.84-2.61,2.28-5.3,4.63-7.97,6.87-24.31,20.45-52.26,36.54-82.08,47.55,1.04,1.34,1.9,2.83,2.5,4.42,30.07-11.2,58.26-27.48,82.81-48.13,2.7-2.28,5.42-4.64,8.04-6.93Z"/>
    <path class="cls-5" d="M1449.21,744.46c-1.46-.43-3.09-.38-4.82,.01,1.09,1.38,1.85,3.05,2.17,4.7,.08,0,.18-.03,.26-.03,.36,0,.69,.04,.98,.13h0c1.85,.54,3.32,2.48,3.34,4.41,0,.36-.04,.48-.05,.49-.07,.07-.45,.32-.63,.44-2.27,1.46-4.6,2.83-6.95,4.18-.18,.96-.45,1.9-.87,2.78-1.07,2.24-2.66,4.25-4.56,5.96,5.16-2.69,10.21-5.57,15.09-8.7,.62-.4,1.57-1,2.21-2.06,.53-.87,.79-1.89,.78-3.13-.04-4.15-2.96-8.02-6.94-9.18Z"/>
    <path class="cls-5" d="M1253.35,821.08c2.64-1.95,5.27-3.89,7.91-5.82,30.18-22.05,61.97-42.57,94.5-60.98,18.56-10.51,40.23-21.62,62.48-20.57,11,.52,19.81,5.63,22.98,13.32,2.5,6.04,1.21,13.02-3.46,19.62,1.43,1.34,2.38,3.06,2.53,4.97,6.99-8.58,9.03-18.14,5.57-26.5-3.93-9.51-14.42-15.8-27.38-16.42-23.58-1.13-46.02,10.36-65.19,21.21-32.7,18.51-64.65,39.13-94.99,61.3-2.64,1.93-5.28,3.88-7.93,5.83-7.52,5.55-15.13,11.16-22.94,16.46,.58,1.84-1.83,6.23-2.12,8.17,8.69-5.8,19.73-14.47,28.03-20.6Z"/>
    <g>
      <path class="cls-4" d="M1408.3,759.82c-32.21,3.39-61.53,22.95-87.62,40.64-29.14,19.76-58.21,41.68-92.84,50.72-.64,.17-1.28,.3-1.91,.46,.88,8.02-3.84,16.58-14.2,16.22-21.4-.74-42.51,2.97-63.84-.29-9.74-1.49-19.34-3.55-29.12-4.84-3.57-.47-7.13-.96-10.66-1.55-2.33,2.01-5.48,3.26-9.49,3.17-115.43-2.61-226.53-51.35-342.72-38.92-5.39,.58-10.23-3-12.82-7.65-18.04,1.61-35.83,4.95-53.62,8.49-1.73,2.01-4.22,3.56-7.59,4.3-16.44,3.63-33.09,7.29-50.03,6.88-13.63-.33-17.53-15.55-11.69-24.06-40.49,8.2-80.61,18.88-120.52,29.61-36.56,9.83-73.1,19.71-109.63,29.63v201.68c6.46-2.73,12.83-5.73,19.06-8.67,52.48-24.75,106.43-46.39,161.47-64.76,62.5-20.86,127.41-37.64,193.29-36.51,72.02,1.23,141.82,23.71,213.09,34.08,19.37,2.82,39.32,4.72,58.35,.14,15.87-3.82,30.3-11.95,45.16-18.71,55.18-25.12,117.24-31.72,172.93-55.68,64.22-27.64,122.99-78.01,172.1-127.21,21.31-21.35,17.7-40.82-17.15-37.15Z"/>
      <g>
        <path class="cls-5" d="M623.2,810.26c-43.18,8.56-85.16,19.83-124.22,30.33-36.17,9.72-72.61,19.57-108.98,29.45v5.2c36.81-9.99,73.69-19.96,110.28-29.8,38.75-10.42,78.2-21,118.38-29.21,.94-2.36,2.44-4.45,4.54-5.96Z"/>
        <path class="cls-5" d="M1439.8,766.98c-2.7-5.65-10.4-11.91-31.76-9.65-33.39,3.51-64.1,24.33-88.77,41.05-3.42,2.32-6.84,4.67-10.27,7.03-25.39,17.44-51.65,35.47-81.79,43.34-.58,.15-1.16,.27-1.73,.42,.43,1.64,.61,3.34,.54,5.03,.82-.2,1.64-.38,2.46-.59,30.99-8.09,57.62-26.38,83.36-44.06,3.42-2.35,6.83-4.69,10.25-7.01,24.21-16.41,54.33-36.84,86.48-40.22,14.19-1.49,23.92,1,26.71,6.83,2.92,6.12-1.41,15.86-11.6,26.06-62.34,62.46-118.38,103.89-171.32,126.68-26.76,11.52-55.57,19.15-83.43,26.53-29.92,7.93-60.87,16.12-89.55,29.18-3.58,1.63-7.17,3.36-10.65,5.03-10.93,5.25-22.23,10.69-34.05,13.53-18.6,4.47-38.58,2.56-57.4-.18-25.86-3.76-51.98-9.22-77.24-14.49-44.31-9.25-90.12-18.82-136.17-19.61-2.05-.03-4.1-.05-6.14-.05-69.01,0-136.49,19.51-187.99,36.69-54.94,18.34-109.36,40.16-161.75,64.87l-.2,.09c-5.88,2.77-11.81,5.57-17.79,8.13v5.43c6.84-2.84,13.5-5.99,19.93-9.02l.2-.09c52.21-24.62,106.44-46.38,161.2-64.65,52.64-17.57,122.08-37.58,192.46-36.38,45.58,.78,91.15,10.3,135.23,19.5,25.33,5.29,51.53,10.76,77.54,14.55,19.32,2.81,39.87,4.77,59.3,.09,12.34-2.97,23.88-8.52,35.05-13.88,3.46-1.66,7.03-3.38,10.56-4.99,28.3-12.88,59.03-21.02,88.76-28.89,28.03-7.43,57.02-15.1,84.13-26.77,29.62-12.75,60.66-31.53,92.25-55.84,25.66-19.74,52.04-43.26,80.63-71.91,11.93-11.95,16.51-23.53,12.57-31.77Z"/>
      </g>
    </g>
    <g>
      <path class="cls-5" d="M914.55,753.76c.97,.44,1.93,.87,2.9,1.31,9.63,4.36,19.59,8.88,30.05,11.62,24.49,6.43,50.03,2.9,74.73-.51,11.21-1.55,22.79-3.15,34.1-3.79,43.28-2.45,87.1,9.25,123.39,32.95,5.98,3.91,13.28,9.24,18.67,16.11,.12,0,.23-.02,.36-.02,2.01,0,3.79,.34,5.37,.93-5.86-9.04-14.91-15.75-22.14-20.47-37.03-24.18-81.73-36.12-125.89-33.62-11.47,.65-23.14,2.26-34.43,3.82-24.3,3.36-49.43,6.83-73.12,.61-10.12-2.66-19.92-7.1-29.4-11.39-.97-.44-1.94-.88-2.91-1.31-25.98-11.72-56.99-24.38-90.03-29.45-24.25-3.72-60.16-4.69-93.49,11.79-15.78,7.81-29.74,18.96-43.23,29.74-3.15,2.52-6.41,5.13-9.64,7.64-22.77,17.76-47.1,33.58-72.58,47.22,3.6-.85,7.3-1.35,11.11-1.38,22.36-12.57,43.79-26.81,64-42.58,3.24-2.53,6.51-5.14,9.68-7.67,13.32-10.65,27.1-21.66,42.48-29.26,32.36-16,67.37-15.03,91.03-11.41,32.54,4.99,63.23,17.52,88.95,29.13Z"/>
      <path class="cls-5" d="M1158.19,872.61c-4.7,.56-9.74,.87-15.26,.86-26.38-.03-53.07-5.64-78.88-11.06-34.9-7.34-70.98-14.92-106.62-8.71-17.55,3.06-34.44,9.41-50.79,15.55-7.72,2.9-15.7,5.9-23.63,8.51-22.48,7.39-43.85,9.36-69.29,6.39-4.19-.49-8.15-.55-11.94-.29-.1,1.4-.12,2.79-.06,4.16,3.68-.27,7.5-.23,11.52,.24,26.06,3.04,47.98,1.01,71.06-6.57,8.01-2.63,16.03-5.65,23.79-8.56,16.16-6.08,32.87-12.36,50.04-15.35,34.86-6.07,70.54,1.43,105.06,8.69,26.02,5.47,52.92,11.12,79.73,11.15,9.25,0,17.33-.76,24.54-2.31-1.41-.12-2.69-.43-3.87-.86-1.9-.24-3.7-.86-5.4-1.82Z"/>
    </g>
    <path class="cls-5" d="M1199.67,879.12c-18.14-.18-36.16-2.86-53.57-7.97-9.13-2.68-19.21-6.59-24.74-15.32-7.2-11.35-3.47-25.93,.92-36.17,4.86-11.33,10.91-18.01,18.49-20.43,4.73-1.51,9.73-1.17,14.05-.74,19.93,2,39.26,7.25,57.46,15.62,5.43,2.5,10.82,5.56,13.43,10.99,1.77,3.67,1.87,7.69,1.83,11.16v.14c-.13,11.2-.35,29.96-9.71,37.99-4.71,4.05-11.01,4.72-17.23,4.72-.32,0-.64,0-.96,0Zm22.87-42.91c.03-2.91-.04-6.23-1.34-8.93-1.92-4-6.43-6.5-11.01-8.6-17.69-8.13-36.49-13.24-55.87-15.18-3.99-.4-8.21-.69-12.03,.53-6.11,1.95-11.15,7.71-15.4,17.63-3.92,9.13-7.32,22-1.3,31.5,4.64,7.32,13.68,10.77,21.91,13.19,16.96,4.97,34.53,7.59,52.2,7.76,5.54,.05,11.17-.33,14.86-3.51,7.63-6.56,7.84-24.57,7.96-34.25v-.14h0Z"/>
    <path class="cls-5" d="M1455.44,768.63c-3.24-3.68-8.77-5.84-13.17-5.16-2.03,.32-3.82,1.18-5.44,2.32,1.35,1.07,2.44,2.44,3.15,3.93,.98-.65,2-1.13,3.06-1.29,2.73-.42,6.52,1.12,8.63,3.52,.94,1.06,1.93,2.75,1.36,4.73-.39,1.33-1.49,2.55-2.79,3.89-14.68,15.18-31.2,28.28-49.2,39.18-.56,2.48-2.05,4.75-4.27,5.93-1.37,.72-2.76,1.33-4.16,1.84-.18,.17-.34,.35-.52,.52-1.41,1.34-2.94,2.39-4.55,3.24l.45,1.58,2.73-1.44c23.45-12.36,44.69-28.3,63.12-47.36,1.71-1.77,3.3-3.55,4-5.98,.94-3.25,.09-6.61-2.41-9.44Z"/>
  </g>
  <path class="cls-1" d="M1331.16,428.71l-98.84-149.57c-.36-.55-.97-.85-1.58-.85h-253.22c-.71,0-1.33,.39-1.66,.97l-70.95,105.76c-9.27,13.82-14.71,23-16.5,27.62-1.06,2.73-.94,4.54,.32,5.44,1.19,.85,2.97,.44,5.31-1.21,4.2-2.98,12.07-10.73,23.36-23.15l62.16-76.35,.77,8.53c6.95,76.85,9.9,109.47,23.08,109.19,9.35-.2,22.59-18.23,45.6-49.56,14.21-19.35,32.21-43.87,55.32-72.53,21.57,27.84,38.57,51.58,52.1,70.47,23.85,33.31,37.08,51.77,46.37,51.37,11.91-.51,14.9-30.11,21.61-96.49,.88-8.67,1.82-18,2.87-28.19l82.9,125.48-90.7,16.77c-.6,.11-1.09,.49-1.34,1l-77.31,141.4c-8.84,15.47-15.34,25.48-19.09,29.93,1.47-5.42,5.76-16,13.26-31.86l69.92-140.39c.47-.94,.09-2.08-.85-2.55-.27-.14-.56-.2-.85-.2h-198.56c-1.05,0-1.9,.85-1.9,1.9,0,.38,.11,.73,.3,1.03l75.57,144.84c6.2,12.65,9.84,21.38,11.21,26.15-3.34-3.97-8.84-12.34-16.18-25.2l-79.59-143.36c-.28-.5-.75-.82-1.26-.94l-110.21-23.62c-1.02-.22-2.03,.44-2.25,1.46-.14,.68,.09,1.34,.57,1.78l208.54,211.82c.73,.75,1.93,.76,2.68,.02,.75-.73,.76-1.93,.02-2.68l-204.16-207.38,103.19,22.11,79.19,142.64c8.2,14.35,14.21,23.3,17.59,26.91,1.9,2.03,3.52,2.74,4.79,2.15,1.37-.64,1.78-2.35,1.16-5.12-1.03-4.59-4.86-14.11-11.88-28.44l-74.24-142.29h192.36l-68.57,137.68c-8.09,17.12-12.54,28.28-13.78,33.6-.72,3.1-.32,4.98,1.13,5.62,1.34,.59,3.06-.27,5.12-2.57,3.81-4.28,10.67-14.72,20.07-31.18l76.94-140.73,92.54-17.11c.27-.04,.54-.14,.79-.3,.87-.58,1.11-1.75,.53-2.63l-87.4-132.28c-.3-.46-.8-.78-1.39-.84-1.04-.11-1.97,.65-2.08,1.69-1.24,11.86-2.37,23.11-3.42,33.47-6.48,64.13-9.36,92.71-18,93.08-7.23,.31-20.03-17.56-43.12-49.79-13.84-19.33-31.32-43.74-53.62-72.43-.1-.13-.21-.25-.34-.36-.82-.66-2.01-.53-2.67,.28-23.78,29.4-42.35,54.68-56.93,74.54-22.3,30.37-35.14,47.85-42.61,48.01-9.65,.21-12.5-31.36-19.23-105.75l-1.19-13.08c-.03-.52-.26-1.02-.7-1.37-.81-.66-2.01-.54-2.66,.27l-64.96,79.8c-10.86,11.95-18.41,19.44-22.47,22.41,1.86-4.5,7.11-13.29,15.94-26.45l70.47-105.04h251.2l97.42,147.42-222.64,221.11c-1.76,1.78-2.64,3.26-2.91,4.48-.1,.46-.11,.87-.07,1.27,1.22-.38,2.51-.46,3.72-.2,.13-.07,.25-.15,.38-.21-.13-.03-.24-.07-.32-.1,.15-.56,.72-1.39,1.9-2.58l223.72-222.18c.65-.65,.73-1.65,.24-2.39Z"/>
  <path class="cls-1" d="M862.83,396.17c-.18-.13-.02-.16,.23-.26-.07,.23-.1,.35-.23,.26Z"/>
  <path class="cls-1" d="M1120.43,626.95c-.2-.09-.06-.14,.17-.27-.02,.22-.03,.33-.17,.27Z"/>
  <path class="cls-2" d="M1100.81,656.94c.59,27.28,.77,54.56,.52,81.84-.07,7.71-.18,15.42-.31,23.13-.06,3.5,5.37,3.5,5.43,0,.49-27.28,.56-54.56,.2-81.85-.1-7.71-.24-15.42-.4-23.13-.08-3.49-5.51-3.5-5.43,0h0Z"/>
  <g>
    <g>
      <line class="cls-3" x1="679.76" y1="428.09" x2="817.63" y2="428.09"/>
      <line class="cls-3" x1="1392.12" y1="428.09" x2="1530" y2="428.09"/>
    </g>
    <line class="cls-3" x1="1104.88" y1="2.97" x2="1104.88" y2="116.88"/>
    <line class="cls-3" x1="878.11" y1="201.33" x2="949.38" y2="272.6"/>
    <line class="cls-3" x1="823.76" y1="146.98" x2="855.25" y2="178.46"/>
    <line class="cls-3" x1="1332.08" y1="201.33" x2="1260.81" y2="272.6"/>
    <line class="cls-3" x1="1386.44" y1="146.98" x2="1354.95" y2="178.46"/>
    <line class="cls-3" x1="805.46" y1="300.53" x2="902.57" y2="341.91"/>
    <line class="cls-3" x1="1232.44" y1="128.68" x2="1191.07" y2="225.79"/>
    <line class="cls-3" x1="983.36" y1="126.18" x2="1022.77" y2="224.1"/>
    <line class="cls-3" x1="1406.8" y1="306.57" x2="1308.88" y2="345.99"/>
  </g>
</svg>