<?xml version="1.0" encoding="utf-8"?>
<!-- Generator: Adobe Illustrator 27.0.1, SVG Export Plug-In . SVG Version: 6.00 Build 0)  -->
<svg version="1.1" id="Layer_1" xmlns="http://www.w3.org/2000/svg" xmlns:xlink="http://www.w3.org/1999/xlink" x="0px" y="0px"
	 viewBox="0 0 1920 910" style="enable-background:new 0 0 1920 910;" xml:space="preserve">
<style type="text/css">
	.st0{fill:none;stroke:#171717;stroke-width:6.0158;stroke-miterlimit:10;}
</style>
<g>
	<path class="st0" d="M0.84,785.08c0,0,98.52-55.05,149.71-43.46s48.29,75.82,66.16,56.99c17.87-18.83,9.5-111.4,22.38-112.36
		c12.88-0.97,8.37,1.61,38.31,28.98c29.94,27.37,142.95,74.16,146.17,86.82c3.22,12.66-5.8,59.67-15.13,64.18
		c-9.34,4.51-171.32-41.85-171.32-63.42c0-21.57,1.33-105.6,8.41-101.41c7.08,4.19,14.17,66.64,52.8,94.98s75.98,44.75,58.92,26.08
		c-17.06-18.67-82.42-60.53-91.11-104.31c-8.69-43.79,18.35-34.77,20.93-67.29c2.58-32.52-22.21-85.96-14.49-176.11
		c7.73-90.15,46.04-394.71,120.41-443.01s162.26-9.18,223.6,37.67s14.49,91.76-9.9,118.32c-24.39,26.56-73.49,35.09-72.84,28.33
		c0.64-6.76,49.66-108.5,49.66-101.01c0,7.49-56.26,114.21-63.02,168.3c-6.76,54.09,7.08,78.07-17.06,111.23
		s-87.89,47.97-121.05,125.24s-47.01,108.5-33.48,143.91s61.17,56.34,43.14,57.63c-18.03,1.29-103.35,27.69-104.63-161.3
		c-1.29-188.99,44.51-243.64,59.72-329.84s43.95-165.64,91.76-184.96c47.81-19.32-72.44,199.45-46.36,175.3s97.55-160.82,99-117.83
		c1.45,42.98-58.43,136.19-11.11,105.76c47.33-30.42,77.27-108.18,101.9-118.8c24.63-10.62,54.73,45.72,58.27,80.49
		s3.54,45.4,9.34,54.73c5.8,9.34,22.05,19,18.83,30.59c-3.22,11.59-20.93,16.9-22.7,20.93c-1.77,4.02,2.74,11.83,2.58,17.79
		c-0.16,5.96-8.69,6.04-8.29,12.88c0.4,6.84,5.39,10.95,0.48,15.05c-4.91,4.1-4.51,5.8-4.19,16.26
		c0.32,10.46,2.74,22.38-26.24,27.29c-28.98,4.91-47.25-4.91-56.99,3.62c-9.74,8.53-27.12,58.19-31.23,58.92
		c-4.1,0.72-38.39-11.11-31.15-12.88c7.24-1.77,31.39,1.45,38.8,16.42c7.4,14.97,14.81,28.33,12.23,30.42
		c-2.58,2.09-70.19-20.28-52.8-17.71c17.39,2.58,50.22,6.76,66,23.02c15.78,16.26,69.86,17.87,99.48,64.23s38.63,92.56,34.29,92.56
		c-4.35,0-76.79-117.83-66.64-96.59c10.14,21.25,84.19,118.96,128.94,155.34c44.75,36.38,49.9,56.34,60.21,47.33
		c10.3-9.01,16.74-25.76,22.86-25.11c6.12,0.64,71.47,59.88,72.44,83.06c0.97,23.18-44.43,103.61-108.18,107.02
		S616.41,803.76,565.22,751.6c-51.19-52.16-73.73-104.31-63.1-94.65c10.62,9.66,105.28,138.28,150.19,151.32
		c44.91,13.04,81.61-33.32,81.13-21.25c-0.48,12.07-30.42,42.01-11.11,41.53s55.05-49.26,55.05-22.7
		c0,26.56-27.53,68.58,14.97,66.16c42.5-2.41,84.03-53.12,101.9-79.2c17.87-26.08,21.25-64.71,28.33-66.64
		c7.08-1.93,78.56-49.74,83.87-47.97c5.31,1.77,57.31,5.15,71.15,18.83c13.84,13.68,21.89,57.15,17.79,58.6
		c-4.1,1.45-23.9-38.47-38.39-42.42c-14.49-3.94-37.51,14.17-37.27,20.69s47.01,0.4,55.78,5.71c8.77,5.31,8.85,17.22-6.44,18.27
		c-15.29,1.05-62.94,9.5-64.87,12.72c-1.93,3.22-6.96,14.73-2.13,14.73c4.83,0,31.91-12.48,27.25-12.96
		c-4.67-0.48-11.11,7.65-6.36,9.18c4.75,1.53,28.25-10.7,27.69-14.49c-0.56-3.78-17.87-7.73-39.2-5.07
		c-21.33,2.66-36.3,14.89-69.86,16.82c-33.56,1.93-28.98-5.55-25.11-29.46s54.57-171.44,63.02-176.27
		c8.45-4.83,52.16-1.21,65.68-15.45c13.52-14.25-3.46-20.77,0.72-31.39c4.19-10.62,6.44-15.13,3.06-20.44
		c-3.38-5.31-5.11-2.86-4.75-12.64c0.36-9.78-3.86-19.2-6.88-17.87s-2.9,7.49,9.42,7.61s29.22,7,35.86,4.23
		c6.64-2.78,0.64-19.96-4.99-23.5s-15.29-3.54-14.33-8.13c0.97-4.59,49.74-36.7,53.85-33.32c4.1,3.38,11.99,10.38,8.77,14.41
		c-3.22,4.02-40.24,23.34-43.62,23.18c-3.38-0.16-43.46-13.68-72.12-10.14c-28.65,3.54-85.32,38.96-95.3,53.44
		c-9.98,14.49-24.15,87.89-37.99,116.55c-13.84,28.65-36.38,71.15-35.74,75.66s53.12,62.14,59.88,55.05
		c6.76-7.08,26.72-85,33.16-85.64c6.44-0.64,24.79,23.82,45.4,3.22c20.6-20.6,32.52-34.45,49.26-29.3
		c16.74,5.15,471.98,97.23,474.88,101.74c2.9,4.51,8.69,33.48,0,55.7c-8.69,22.21-104.96,67.29-113.97,66.97
		c-9.01-0.32-188.99-64.07-175.46-71.8s118.96-19.4,136.35-33.89c17.39-14.49,10.62-39.6,12.8-40.08
		c2.17-0.48,231.73,55.3,252.97,47.57c21.25-7.73,127.82-540.88,121.05-551.5c-6.76-10.62-609.46-35.25-613.8-28.73
		c-4.35,6.52-59.72,257.64-52.64,254.1c7.08-3.54,25.43-21.57,26.72-25.43c1.29-3.86,37.35-207.02,43.46-208.95
		c6.12-1.93,559.55,26.88,560.52,32.68s-77.75,508.04-96.59,513.84c-18.83,5.8-556.58-119.28-559.71-122.91
		c-3.14-3.62,19.8-132.56,24.39-133.05c4.59-0.48,12.31,4.83,12.31,8.45c0,3.62-7.97,45.4-3.38,48.78
		c4.59,3.38,520.11,88.13,524.94,80.89c4.83-7.24,70.99-380.06,76.79-381.03c5.8-0.97,113.01-56.02,123.63,72.44
		S1789.61,516.89,1920,452.5"/>
	<g>
		<g>
			<path d="M1300.63,370.86l-15.17-1.64l-12.87-20.88l24.33-17.31l15.31,1.34l-24.69,17.43L1300.63,370.86z"/>
			<path d="M1384.25,305.07l12.98,0.92l-55.94,97.57l-12.26-1.5L1384.25,305.07z"/>
			<path d="M1440.55,364.79l-15.21-22.49l17.53,1.54l15.39,22.69l-28.26,18.33l-17.36-1.88L1440.55,364.79z"/>
		</g>
		<g>
			<path d="M1214.22,414.53c12.41,1.7,20.64,9.96,20.97,22.33l-13.02-1.92c-1.12-5.64-5.11-9.03-11.07-9.88
				c-9.7-1.39-18.56,4.84-21.81,16.06c-3.31,11.1,1.3,19.44,10.84,21c5.91,0.97,11.56-0.92,15.72-5.81l12.95,2.06
				c-7.36,11.19-19.37,16.21-31.6,14.13c-15.7-2.67-23.9-16.37-19.01-33.08C1183.1,422.65,1198.37,412.36,1214.22,414.53z"/>
			<path d="M1260.05,483.26c-14.89-2.53-23.35-14.45-21.58-29.15c2.49-20.73,18.68-33.79,38.88-31.03
				c15.52,2.12,24.43,14.04,22.61,29.12C1297.37,473.77,1280.57,486.75,1260.05,483.26z M1263.07,472.44
				c13.03,2.14,22.87-7.8,24.45-20.95c1.14-9.5-3.66-16.12-13.12-17.47c-12.9-1.84-22.46,7.92-24.03,20.91
				C1249.25,464.24,1253.78,470.91,1263.07,472.44z"/>
			<path d="M1363.9,468.08c-5.73,18.56-22.76,28.32-42.98,24.89l-21.56-3.66l18.3-59.82l21.89,3.01
				C1360,435.31,1369.76,449.38,1363.9,468.08z M1323.57,483.08c13.34,2.19,23.14-4.36,27.1-17.03
				c3.87-12.71-1.24-21.51-14.72-23.43l-8.82-1.26l-12.29,40.28L1323.57,483.08z"/>
			<path d="M1383.46,438.53l13.36,1.83l-19.41,62.18l-13.25-2.25L1383.46,438.53z"/>
			<path d="M1477.35,451.33l-20.68,64.66l-14.31-2.43l-17.65-48.6L1411,508.25l-13.69-2.32l19.83-62.86l13.81,1.9l17.85,48.57
				l14.12-44.19L1477.35,451.33z"/>
			<path d="M1526.47,457.28c17.1,2.34,28.37,11.84,29.05,26.07l-17.85-2.62c-1.72-6.16-7.05-10.02-15.1-11.17
				c-13.47-1.92-25.47,5.1-29.62,18.14c-4.39,13.26,2.19,22.99,16.16,25.28c11.55,1.89,21.21-2.73,26.56-11.91l-26.06-4.08
				l3.17-10.02l41.43,6.28l-3.91,11.72c-7.57,13.11-25.59,23.16-45.66,19.75c-21.49-3.65-33.03-19.95-26.78-39.35
				C1484.12,465.91,1504.73,454.3,1526.47,457.28z"/>
		</g>
	</g>
</g>
</svg>
