<?xml version="1.0" encoding="utf-8"?>
<!-- Generator: Adobe Illustrator 27.0.1, SVG Export Plug-In . SVG Version: 6.00 Build 0)  -->
<svg version="1.1" id="Layer_1" xmlns="http://www.w3.org/2000/svg" xmlns:xlink="http://www.w3.org/1999/xlink" x="0px" y="0px"
	 viewBox="0 0 1920 910" style="enable-background:new 0 0 1920 910;" xml:space="preserve">
<style type="text/css">
	.st0{fill:none;stroke:#171717;stroke-width:6.0158;stroke-miterlimit:10;}
</style>
<g>
	<path class="st0" d="M1920,785.08c0,0-98.52-55.05-149.71-43.46s-48.29,75.82-66.16,56.99c-17.87-18.83-9.5-111.4-22.38-112.36
		c-12.88-0.97-8.37,1.61-38.31,28.98c-29.94,27.37-142.95,74.16-146.17,86.82c-3.22,12.66,5.8,59.67,15.13,64.18
		c9.34,4.51,171.32-41.85,171.32-63.42c0-21.57-1.33-105.6-8.41-101.41c-7.08,4.19-14.17,66.64-52.8,94.98s-75.98,44.75-58.92,26.08
		c17.06-18.67,82.42-60.53,91.11-104.31c8.69-43.79-18.35-34.77-20.93-67.29c-2.58-32.52,22.21-85.96,14.49-176.11
		c-7.73-90.15-46.04-394.71-120.41-443.01s-162.26-9.18-223.6,37.67c-61.33,46.84-14.49,91.76,9.9,118.32
		c24.39,26.56,73.49,35.09,72.84,28.33c-0.64-6.76-49.66-108.5-49.66-101.01c0,7.49,56.26,114.21,63.02,168.3
		s-7.08,78.07,17.06,111.23c24.15,33.16,87.89,47.97,121.05,125.24c33.16,77.27,47.01,108.5,33.48,143.91s-61.17,56.34-43.14,57.63
		s103.35,27.69,104.63-161.3s-44.51-243.64-59.72-329.84s-43.95-165.64-91.76-184.96c-47.81-19.32,72.44,199.45,46.36,175.3
		s-97.55-160.82-99-117.83c-1.45,42.98,58.43,136.19,11.11,105.76c-47.33-30.42-77.27-108.18-101.9-118.8
		c-24.63-10.62-54.73,45.72-58.27,80.49c-3.54,34.77-3.54,45.4-9.34,54.73s-22.05,19-18.83,30.59c3.22,11.59,20.93,16.9,22.7,20.93
		c1.77,4.02-2.74,11.83-2.58,17.79c0.16,5.96,8.69,6.04,8.29,12.88c-0.4,6.84-5.39,10.95-0.48,15.05c4.91,4.1,4.51,5.8,4.19,16.26
		c-0.32,10.46-2.74,22.38,26.24,27.29c28.98,4.91,47.25-4.91,56.99,3.62c9.74,8.53,27.12,58.19,31.23,58.92
		c4.1,0.72,38.39-11.11,31.15-12.88c-7.24-1.77-31.39,1.45-38.8,16.42c-7.4,14.97-14.81,28.33-12.23,30.42
		c2.58,2.09,70.19-20.28,52.8-17.71c-17.39,2.58-50.22,6.76-66,23.02c-15.78,16.26-69.86,17.87-99.48,64.23
		c-29.62,46.36-38.63,92.56-34.29,92.56s76.79-117.83,66.64-96.59c-10.14,21.25-84.19,118.96-128.94,155.34
		c-44.75,36.38-49.9,56.34-60.21,47.33c-10.3-9.01-16.74-25.76-22.86-25.11c-6.12,0.64-71.47,59.88-72.44,83.06
		c-0.97,23.18,44.43,103.61,108.18,107.02c63.75,3.41,182.22-91.57,233.42-143.72c51.19-52.16,73.73-104.31,63.1-94.65
		c-10.62,9.66-105.28,138.28-150.19,151.32s-81.61-33.32-81.13-21.25c0.48,12.07,30.42,42.01,11.11,41.53
		c-19.32-0.48-55.05-49.26-55.05-22.7c0,26.56,27.53,68.58-14.97,66.16c-42.5-2.41-84.03-53.12-101.9-79.2
		c-17.87-26.08-21.25-64.71-28.33-66.64c-7.08-1.93-78.56-49.74-83.87-47.97c-5.31,1.77-57.31,5.15-71.15,18.83
		c-13.84,13.68-21.89,57.15-17.79,58.6c4.1,1.45,23.9-38.47,38.39-42.42c14.49-3.94,37.51,14.17,37.27,20.69s-47.01,0.4-55.78,5.71
		c-8.77,5.31-8.85,17.22,6.44,18.27c15.29,1.05,62.94,9.5,64.87,12.72c1.93,3.22,6.96,14.73,2.13,14.73
		c-4.83,0-31.91-12.48-27.25-12.96c4.67-0.48,11.11,7.65,6.36,9.18c-4.75,1.53-28.25-10.7-27.69-14.49s17.87-7.73,39.2-5.07
		s36.3,14.89,69.86,16.82c33.56,1.93,28.98-5.55,25.11-29.46s-54.57-171.44-63.02-176.27c-8.45-4.83-52.16-1.21-65.68-15.45
		c-13.52-14.25,3.46-20.77-0.72-31.39c-4.19-10.62-6.44-15.13-3.06-20.44s5.11-2.86,4.75-12.64c-0.36-9.78,3.86-19.2,6.88-17.87
		c3.02,1.33,2.9,7.49-9.42,7.61c-12.31,0.12-29.22,7-35.86,4.23c-6.64-2.78-0.64-19.96,4.99-23.5c5.63-3.54,15.29-3.54,14.33-8.13
		c-0.97-4.59-49.74-36.7-53.85-33.32c-4.1,3.38-11.99,10.38-8.77,14.41c3.22,4.02,40.24,23.34,43.62,23.18
		c3.38-0.16,43.46-13.68,72.12-10.14c28.65,3.54,85.32,38.96,95.3,53.44c9.98,14.49,24.15,87.89,37.99,116.55
		c13.84,28.65,36.38,71.15,35.74,75.66c-0.64,4.51-53.12,62.14-59.88,55.05c-6.76-7.08-26.72-85-33.16-85.64
		c-6.44-0.64-24.79,23.82-45.4,3.22c-20.6-20.6-32.52-34.45-49.26-29.3c-16.74,5.15-471.98,97.23-474.88,101.74
		c-2.9,4.51-8.69,33.48,0,55.7s104.96,67.29,113.97,66.97c9.01-0.32,188.99-64.07,175.46-71.8c-13.52-7.73-118.96-19.4-136.35-33.89
		c-17.39-14.49-10.62-39.6-12.8-40.08c-2.17-0.48-231.73,55.3-252.97,47.57c-21.25-7.73-127.82-540.88-121.05-551.5
		c6.76-10.62,609.46-35.25,613.8-28.73c4.35,6.52,59.72,257.64,52.64,254.1c-7.08-3.54-25.43-21.57-26.72-25.43
		c-1.29-3.86-37.35-207.02-43.46-208.95c-6.12-1.93-559.55,26.88-560.52,32.68c-0.97,5.8,77.75,508.04,96.59,513.84
		c18.83,5.8,556.58-119.28,559.71-122.91c3.14-3.62-19.8-132.56-24.39-133.05c-4.59-0.48-12.31,4.83-12.31,8.45
		c0,3.62,7.97,45.4,3.38,48.78c-4.59,3.38-520.11,88.13-524.94,80.89c-4.83-7.24-70.99-380.06-76.79-381.03
		c-5.8-0.97-113.01-56.02-123.63,72.44C106.12,452.83,131.23,516.89,0.84,452.5"/>
	<g>
		<g>
			<path d="M481.46,389.71l-15.09,2.27l-17.75-16.93l19.13-22.93l15.15-2.59l-19.45,23.14L481.46,389.71z"/>
			<path d="M545.61,304.82l12.79-2.41L529.1,411l-12.24,1.66L545.61,304.82z"/>
			<path d="M615.23,348.27l-20.43-17.89l17.34-2.97l20.65,18.03l-22.67,24.92l-17.26,2.6L615.23,348.27z"/>
		</g>
		<g>
			<path d="M408.99,453.91c12.43-1.51,22.49,4.39,25.96,16.26l-13.08,1.45c-2.52-5.17-7.23-7.43-13.22-6.74
				c-9.74,1.13-16.72,9.4-17.01,21.08c-0.38,11.58,6.2,18.47,15.82,17.56c5.97-0.57,10.94-3.83,13.73-9.62l13.05-1.3
				c-4.27,12.7-14.62,20.6-26.97,21.7c-15.86,1.41-27.28-9.75-26.8-27.16C380.96,469.68,393.11,455.84,408.99,453.91z"/>
			<path d="M470.79,508.74c-15.04,1.34-26.25-8.04-28.28-22.71c-2.86-20.68,9.47-37.43,29.71-39.89
				c15.55-1.89,27.19,7.36,29.27,22.41C504.47,490.07,491.52,506.89,470.79,508.74z M470.96,497.5
				c13.15-1.25,20.14-13.36,18.32-26.48c-1.31-9.47-7.64-14.66-17.13-13.56c-12.94,1.5-19.71,13.37-17.92,26.33
				C455.51,493.09,461.59,498.39,470.96,497.5z"/>
			<path d="M567.37,467.65c-0.83,19.41-14.81,33.17-35.24,35l-21.78,1.94l2.5-62.5l21.93-2.66
				C555.26,436.95,568.28,448.08,567.37,467.65z M532.18,492.41c13.46-1.27,21.28-10.1,21.88-23.36
				c0.51-13.28-6.67-20.49-20.19-18.92l-8.85,1.03l-1.64,42.08L532.18,492.41z"/>
			<path d="M578.77,434.1l13.39-1.62l-2.97,65.07l-13.38,1.19L578.77,434.1z"/>
			<path d="M672.84,422.61l-3.56,67.8l-14.46,1.29l-29.43-42.51l-2.26,45.34l-13.83,1.24l3.2-65.84l13.84-1.68l29.61,42.44
				l2.42-46.32L672.84,422.61z"/>
			<path d="M721.85,415.87c17.13-2.08,30.45,4.24,34.72,17.83l-17.93,2c-3.23-5.52-9.36-7.9-17.44-6.96
				c-13.51,1.56-23.34,11.41-24.03,25.07c-0.87,13.94,7.97,21.67,22.05,20.34c11.65-1.1,19.82-8.04,22.66-18.27l-26.24,2.68
				l0.52-10.49l41.67-4.46l-0.8,12.33c-3.99,14.6-18.86,28.91-39.14,30.71c-21.71,1.93-37.02-10.9-35.91-31.24
				C683.09,434.99,700.07,418.52,721.85,415.87z"/>
		</g>
	</g>
</g>
</svg>
