<?xml version="1.0" encoding="UTF-8"?>
<svg id="Layer_1" data-name="Layer 1" xmlns="http://www.w3.org/2000/svg" viewBox="0 0 1920 1080">
  <defs>
    <style>
      .cls-1 {
        fill: none;
        stroke: #020002;
        stroke-miterlimit: 10;
        stroke-width: 3px;
      }
    </style>
  </defs>
  <path d="M949.69,570.43c-.31-.21-.63-.4-.93-.62-.19-.14-.39-.27-.58-.4-.34,2.5-1.72,5.82-4.82,9.54-3.64,4.36-8.39,5.36-11.21,4.09-1.78-.8-2.62-2.4-2.32-4.39,.63-4.2,3.28-9.97,7.68-13.62,1.78-.88,3.21-1.26,4.5-1.36-.21-.33-.4-.67-.61-1-.38-.62-.78-1.23-1.01-1.92-1.16,.51-2.25,1.1-3.2,1.78-.11,.1-.24,.18-.39,.24-.23,.23-.54,.38-.91,.38-.21,.32-.53,.56-.94,.62-.18,.3-.46,.54-.82,.63-.13,.14-.28,.25-.45,.32-2.85,1.84-6.29,4.6-10.71,8.61-12.31,11.16-21.24,18.78-32.5,28.16-4.4,3.67-10.79,9.48-17.52,15.74l.03-.11c-.4,.24-.68,.78-.96,1.15-.48,.62-1.06,1.28-1.74,1.69-.17,.1-.36,.2-.55,.28-.87,.82-1.75,1.64-2.62,2.46-1.28,1.45-2.61,2.86-4.09,4.11-.18,.15-.39,.25-.6,.31-1.98,1.87-3.92,3.7-5.76,5.45-.09,.06-.32,.22-.65,.41-.18,.28-.42,.52-.71,.68-.06,.06-.12,.11-.18,.16-.12,.14-.25,.26-.4,.35-.23,.38-.56,.69-.99,.84-.1,.17-.23,.32-.39,.44-.08,.09-.17,.18-.27,.25-.11,.23-.26,.43-.44,.6,.04,0,.07,0,.11,0-2.58,2.45-4.83,4.57-6.58,6.2-1.08,1.01-1.95,1.79-2.66,2.41,.45-.62,.99-1.32,1.63-2.11,.31-.38,.61-.75,.9-1.1,1.81-2.2,3.26-3.96,2.8-5.7-.11-.15-.18-.33-.22-.51-.12-.09-.21-.19-.29-.3-.12-.07-.22-.15-.3-.24-.24-.09-.43-.22-.57-.38-.2-.08-.37-.19-.5-.32-.21-.09-.37-.22-.5-.38,0,0-.01,0-.02,0-.25-.06-.45-.17-.61-.31-.2-.07-.37-.17-.51-.29-.05-.01-.1-.02-.15-.03-.25-.06-.5-.15-.74-.24-1.73-.46-4.03-.86-7.06-1.22l-.99-.12c-14.62-1.77-29.74-3.61-37.91,2.53-1.03,.77-1.78,1.24-2.31,1.51,1.09-1.33,3.68-3.47,7.76-4.63,5.93-1.69,12.65-1.27,18.05-.94,3.17,.19,5.68,.35,7.36,.04,1.36-.25,2.19-1.16,2.2-2.42,.02-1.83-1.74-4.24-4.72-6.47-3.29-2.46-7.61-4.34-12.18-5.3-8.23-1.73-13.81-1.45-19.21-1.17-2.92,.15-5.94,.3-9.4,.15-4.36-.2-8.55,1.19-12.16,3.15,1.76-1.25,3.77-2.29,5.86-2.63,.76-.12,1.48-.24,2.16-.34,5.45-.86,7.94-1.26,8.45-2.99,.4-1.36-.83-2.68-2.22-3.91-6.94-6.12-16-8.01-27.7-5.79-11.08,2.1-33.99,13.81-62.94,68.6-6.69,12.67-13.15,23.44-19.47,32.82,.74,.14,1.45,.38,2.13,.74,6.48-9.67,12.81-20.38,19.24-32.55,11.62-22,23.37-39.08,34.92-50.75,9.32-9.42,18.49-15.21,26.52-16.73,11-2.09,19.47-.36,25.87,5.29,1.14,1.01,1.46,1.5,1.54,1.69-.65,.51-3.71,1-6.68,1.47-.68,.11-1.4,.22-2.16,.35-4.45,.72-8.43,4.03-10.98,6.68-2.36,2.45-4.71,5.68-4.84,6.65-.07,.5,.19,.98,.64,1.18,.8,.36,1.4-.33,1.68-.66,.37-.43,9.22-10.58,20.03-10.08,3.56,.16,6.63,0,9.6-.15,5.51-.28,10.71-.55,18.66,1.13,9.92,2.09,15.21,7.77,15.19,9.63,0,.13,0,.24-.44,.33-1.42,.26-3.93,.11-6.84-.07-5.27-.32-12.48-.76-18.77,1.02-5.99,1.7-9.65,5.48-9.9,7.44-.09,.69,.19,1.28,.73,1.6,.67,.39,1.98,.59,5.6-2.13,7.47-5.62,22.82-3.75,36.35-2.11l.99,.12c3.44,.42,5.89,.87,7.49,1.38,1.7,.54,2.05,1.02,2.13,1.21,.26,.65-1.13,2.35-2.36,3.84-.29,.36-.6,.73-.91,1.12-1.22,1.52-2.27,2.95-2.97,4.04-1,1.57-1.46,2.69-.66,3.42,.93,.86,2.23-.11,3.1-.76,1.11-.83,2.7-2.2,4.71-4.08,2.28-2.13,5.41-5.09,9.03-8.52,.47-.44,.95-.9,1.43-1.35,0,0,0,0,0,0,11.19-10.6,25.8-24.39,33.76-31.03,11.28-9.4,20.23-17.04,32.57-28.22,2.55-2.32,4.75-4.18,6.67-5.68-1.74,2.85-2.95,6.05-3.4,9.07-.45,2.97,.89,5.47,3.57,6.67,.39,.18,.81,.32,1.25,.43,3.48,.88,8.47-.3,12.49-5.11,2.7-3.24,4.46-6.61,5.12-9.63-.15-.08-.3-.17-.44-.27Z"/>
  <path d="M943.63,563.07s.02,0,.03,0c0,0,.02,0,.03,0,.07,0,.13,.02,.19,.06,0,0,0,0,0,0,.09,.05,.14,.13,.18,.23,0,.02,.03,.02,.03,.04,0,0,0-.02-.01-.03,.04,.08,.09,.16,.14,.23,.06,.07,.12,.14,.19,.2,0,0,0,0,0,0,.34,.05,.67,.1,1.01,.17,.05,0,.09,.02,.14,.03,1.21,.3,2.02,1.06,2.43,2.25,.11,.31,.18,.66,.23,1.04,.05,.01,.1,.02,.14,.04,.71,.35,1.39,.75,2.06,1.18,.04-1.07-.09-2.06-.39-2.96-.66-1.94-2.13-3.25-4.15-3.69-.34-.07-.67-.14-1-.19,2.13-.2,4,.54,5.44,2.17,1.28,1.44,2.13,3.45,2.56,5.78,.16,0,.32,.09,.42,.24-.04-.06,.07,.07,.09,.09-.03-.02,.11,.07,.13,.08,.12,.07,.25,.13,.37,.18,.31,.14,.61,.28,.93,.39,.12,.04,.25,.07,.38,.11-.25-2.28-.83-4.32-1.72-6.01,.03,0,.07,0,.1,0-.25-.2-.39-.46-.46-.75-.06-.07-.11-.15-.16-.23-.11-.12-.19-.26-.24-.4-.36-.17-.59-.46-.7-.78-.04-.04-.07-.09-.11-.13-2.14-2.42-5.1-3.39-8.33-2.73-.51,.1-.99,.24-1.46,.39,.22,.55,.4,1.06,.69,1.58,.26,.47,.52,.94,.81,1.4Z"/>
  <path d="M954.69,572.58c-.5-.2-1-.44-1.46-.73-.04-.02-.07-.05-.1-.07,.22,3.13-.23,6.66-1.41,10.18-2.59,7.72-17.58,23.43-32.07,38.62-7.73,8.11-15.73,16.49-21.92,23.73-17.73,20.74-48.67,65.5-53.47,82.48-2.31,8.18-1.21,14.6,2.94,17.15,4.19,2.58,10.44,.68,16.72-5.08,12.2-11.18,31.31-14.3,49.88-8.14,7.13,2.37,10.98,5.49,10.85,8.78-.04,.86-.35,1.73-.89,2.57-2.4-1.84-7.19-2.43-14.05-1.72-12.61,1.31-21.78,5.05-25.83,10.52-3.79,5.13-5.09,7.34-4.79,9.53,.04,.3,.19,.57,.41,.77-5.85,2.21-12.35,4.89-19.56,8.16-5.72,2.6-10.8,4.96-15.28,7.04-28.43,13.23-37.02,17.22-75.3,19.17-2.65,.14-5.31,.35-7.97,.63,.79,.53,1.43,1.2,1.93,1.97,2.02-.19,4.07-.35,6.15-.45,19.54-.99,31.28-2.52,41.86-5.45,10.65-2.94,20.03-7.31,34.24-13.92,4.47-2.08,9.54-4.44,15.26-7.04,25.23-11.45,41.77-15.57,51.65-18.02,6.85-1.7,10.29-2.56,11.75-4.57,.52-.71,.87-1.42,1.07-2.11-.1-.84-.11-1.68-.02-2.49-.03-.1-.07-.2-.12-.3,.06-.08,.11-.15,.17-.23,0,.04,0,.07,0,.11,.05-.31,.12-.61,.21-.9,.19-.63,.43-1.26,.71-1.87-.06-.59-.07-1.18-.03-1.76-.02-.14-.04-.27-.05-.41-.42-1.09-.69-2.28-.76-3.47-1.6-2.21-4.82-4.56-10.93-6.59-19.31-6.41-39.23-3.12-52.01,8.6-5.45,5-10.87,6.85-14.14,4.83-3.28-2.02-4.03-7.53-2-14.74,.37-1.3,.91-2.81,1.61-4.5,.22,.78,.6,1.44,1.15,1.94,.44,.41,.95,.69,1.51,.83,1.24,.31,2.73-.03,4.31-1.01,2.84-1.78,5.89-6.28,9.65-12.65l1.13-1.94c.97-1.68,2-3.46,3.07-5.34,.05-.1,.11-.19,.17-.29l1.11-1.94c1.62-2.83,3.39-5.89,5.26-9.03,7.75-12.96,5.17-19.46,3.84-21.53,7.16-10,14.33-19.32,20.22-26.21,6.15-7.2,14.13-15.56,21.84-23.64,15.33-16.07,29.81-31.25,32.55-39.42,1.12-3.32,1.64-6.68,1.57-9.83-.22-.07-.43-.14-.64-.23Zm-73.42,186.72c.26-1.3,1.48-3.26,4.35-7.15,1.74-2.35,4.63-4.38,8.58-6.02,4.27-1.77,9.56-3,15.74-3.64,6.9-.72,10.78,.07,12.42,1.23-1.84,1.74-4.67,3.21-7.98,4.01-5.14,1.25-13.11,4.29-20.13,6.97-4.88,1.86-10.81,4.13-12.99,4.59Zm41.22-11.86c-1,1.38-4.79,2.32-10.52,3.75-1.99,.5-4.26,1.06-6.81,1.73,3.67-1.32,7.1-2.46,9.74-3.09,3.39-.82,6.3-2.27,8.39-4.05-.12,.6-.46,1.19-.8,1.66Zm-49.02-55.09c-2.39,4-4.61,7.87-6.56,11.29-5.45,9.53-9.76,17.06-13.13,19.17-1.4,.87-2.57,1.03-3.21,.43-1.04-.96-1.12-3.96,1.15-8.25,.02-.04,.04-.08,.05-.12,3.78-7.21,9.24-16.24,16.1-26.59,3.18-4.81,6.53-9.67,9.89-14.41,.31,.7,.62,1.73,.71,3.14,.19,2.86-.53,7.84-5.01,15.34Z"/>
  <path class="cls-1" d="M1185.5,523l92.5,118.5,213-123L1124,64.5l-117,233,71.19,90.37c2.19-.99,4.56-1.55,6.96-1.55"/>
  <line class="cls-1" x1="1202.5" y1="162" x2="1007" y2="297.5"/>
  <line class="cls-1" x1="1462.5" y1="483" x2="1278" y2="641.5"/>
  <path class="cls-1" d="M860.5,753l-7-17"/>
  <path class="cls-1" d="M810.14,615.7l-16.14-42.2-365-141.67,234.91,256.76,56.87,62.16,52.97,57.89,189.25,206.85-93.5-249.5"/>
  <path class="cls-1" d="M703.13,662.68c-11.11,10.78-22.22,21.57-33.33,32.35"/>
  <path class="cls-1" d="M794.5,574c-10.6,8.76-19.51,19.29-29.5,28.7"/>
  <path d="M1305.46,296.88c-4.71,9.82-12.65,11.76-32.73,19.48-6.39,2.45-14.34,5.51-23.93,9.44-39.94,16.37-143.14,52.38-161.45,58.28-19.65,6.34-24.18,8.88-27.43,21.42-.42,1.61-.64,3.14-.71,4.57-3.28,2.79-34.53,29.63-39.54,40.73-4.41,9.78,2.2,26.19,4.12,30.56-4.14,2.04-17.03,11.06-17.72,11.74-5.15,5.08-6.45,6.29-10.05,10.04-.45,.47-10.18,12.15-10.64,12.65,4.66-1.41,12.79-11.96,20.94-19.83,5.06-4.89,14.84-10.67,19.9-13.13,6.32-3.08,12.85-6.27,18.52-13.94,5.65-7.65,6.79-9.91,9.84-15.96,2.31-4.58,5.81-11.51,13.36-24.87,13.93-24.62,37.75-31.13,65.33-38.66,6.09-1.66,12.38-3.38,18.7-5.34,31.85-9.89,57.7,3.69,74.81,12.68,1.2,.63,2.33,1.22,3.43,1.8,19.75,10.22,24.33,32.6,13.26,64.72-2.55,7.4-6.39,14.15-11.06,20.31-7.8,3.77-15.91,7.15-23.61,10.36-10.37,4.32-19.33,8.06-25.59,11.93-9.28,5.74-17.23,15.67-22.28,23-4.9,7.12-8.08,13.24-8.69,14.43-1.42,1.29-2.71,2.53-3.95,3.72-4.07,3.91-7.29,7-12.83,9.7-3.07,1.5-6.03,3.09-8.9,4.63-3.41,1.84-6.74,3.63-10.02,5.12,0-.09,.01-.19,.01-.29,0-1.23-.62-3.04-3.64-4.68-5.24-2.84-15.32-3.88-19.63-1.05-2.86,1.89-4.06,4.32-3.29,6.68,.86,2.65,3.94,4.55,8.15,5.25-2.99-.34-5.61-1.45-7.44-3.18-2.93-2.77-3.5-6.77-1.58-10.98,2.95-6.46,7.73-13.84,12.78-19.74,1.65-1.92,3.62-4.03,5.79-5.98,.06-.04,.11-.09,.16-.14,3.33-2.96,7.1-5.52,10.85-6.39,1.77-.41,3.33-.69,4.71-.94,3.8-.68,6.8-1.22,10.22-3.84,3.4-2.61,7.13-7.14,12.86-15.64,4.79-7.1,6.13-13.15,3.96-17.96-2.59-5.77-9.97-9.51-21.94-11.11-8.64-1.16-17.15,2.64-26.15,6.67-3.93,1.76-8,3.58-12.07,4.94-9.15,3.07-23.59,13.02-37.55,22.65-6.41,4.42-12.47,8.6-17.72,11.9-8.65,5.43-25.06,14.55-39.03,21.67-7.86,4.01-14.72,7.27-19.82,9.44-5.51,2.34-8.08,3.02-9.25,3.19,3.37-2.06,5.64-6.64,6.56-8.77,2.12-4.94,2.96-10.1,2.19-13.48-.52-2.27-1.21-4.37-2.69-4.53,.82-.7,1.66-1.43,2.54-2.18,11.98-10.4,18.62-19.31,18.68-19.4,.26-.35,.31-.8,.13-1.2-.18-.39-.55-.66-.98-.7-.03,0-2.66,2.15-2.4,2.17-2.47,3.03-8.29,9.76-16.99,17.32-2.37,2.05-4.53,3.89-6.44,5.5-.11,.09-.21,.18-.32,.27-.11-.24-.31-.48-.67-.69-1.17-.66-4.99-1.43-9.47-.97-4.06,.42-9.89,2-14.64,7.15-4.9,5.31-6.98,11.82-5.86,18.33,1.19,6.92,5.86,12.99,12.82,16.67,6.61,3.49,15.32,5.08,23.89,4.36,9.11-.77,16.6-4,21.08-9.09,2.66-3.02,4.4-6.28,5.53-9.33,.96-2.57,1.49-4.99,1.78-7,.49-3.41,.39-6.13,.29-7.45,1.88-.98,3.78-1.98,5.68-2.99,.4,.9,1.05,2.15,2.05,3.39,1.75,2.18,4.91,4.77,10.03,4.74,9.66-.04,18.73-9.43,22.36-18.24,.35-.85,.67-1.66,.95-2.43,.38-1.03,.71-1.99,.99-2.86,.02-.23,.07-.45,.15-.67,.02-.06,.05-.12,.08-.17,.02-.06,.03-.12,.06-.18,.03-.07,.06-.14,.09-.21,.02-.1,.05-.21,.09-.31,0-.02,.02-.04,.02-.06,.02-.25,.07-.49,.15-.72,.03-.08,.06-.16,.1-.23,.56-2.18,.75-3.63,.81-4.41,1.58-1.07,3.2-2.18,4.85-3.31,.03,0,.07,0,.11,0,.19-.25,.41-.46,.67-.62,.47-.61,1.17-.98,1.93-1.06,.25-.32,.56-.57,.91-.75,.04-.04,.08-.08,.12-.11-.01,0-.03,0-.05,0,0,0,0,0,0,0,11.76-8.1,23.85-16.44,32.64-20.58,1.06,3.48,4.12,12.81,8,17.66,2.85,3.57,8.43,5.03,12.98,3.4,2.71-.97,4.64-2.87,5.59-5.43,.47-1.26,.7-2.67,.68-4.21-.11-8.76-4.6-17.04-6.45-20.07,7.15-3.09,13.99-5.52,20.67-4.62,10.94,1.47,17.89,4.83,20.08,9.73,1.8,4.01,.53,9.28-3.77,15.65-5.51,8.16-9.2,12.67-12.34,15.08-2.96,2.27-5.44,2.71-9.19,3.38-1.41,.25-3,.54-4.83,.96-3.3,.77-6.57,2.66-9.57,5-.27,.35-.62,.62-1.01,.8-.11,.1-.24,.2-.36,.28-.08,.08-.17,.15-.26,.21-.08,.07-.16,.14-.25,.2-.2,.27-.44,.49-.72,.66-.1,.12-.22,.24-.34,.34-2.08,1.91-3.96,3.93-5.55,5.78-.5,.58-1,1.19-1.49,1.79,0-.04,0-.07,.01-.11-.02,.08-.04,.15-.07,.23-.19,.51-.51,.92-.9,1.21-.12,.2-.26,.37-.41,.53-.09,.15-.2,.28-.31,.4-.12,.17-.26,.33-.41,.46-.19,.41-.46,.75-.79,1.01,0,0,0,.02,0,.03-3.49,4.8-6.61,10.01-8.77,14.75-.17,.37-.32,.75-.46,1.12-.84,2.26-1.08,4.46-.72,6.56,.4,2.29,1.54,4.37,3.29,6.03,1.96,1.85,4.64,3.12,7.67,3.65,.07,0,.14,0,.21,.01,.75-.1,1.52-.07,2.25,.1,.29-.03,.58-.03,.87-.02,.28-.06,.57-.08,.86-.06,.2-.05,.39-.09,.58-.09,1.89-.09,3.74-.36,5.56-.86,.8-.28,1.58-.6,2.37-.89,.53-.2,1.06-.37,1.6-.54,.22-.19,.47-.34,.73-.46,.15-.12,.32-.22,.49-.31,.85-.49,1.58-1,2.18-1.52,4.35-1.73,8.73-4.09,13.25-6.52,2.84-1.53,5.79-3.11,8.81-4.59,5.87-2.87,9.38-6.23,13.43-10.12,1.27-1.21,2.58-2.47,4.03-3.79,.01,0,.02-.02,.03-.03,3.69-3.34,8.29-7.02,15.32-11.2,2.29-1.36,5.01-2.89,7.89-4.52,16.29-9.19,40.93-23.1,56.76-43.75,1.66-.81,3.3-1.63,4.92-2.47,11.02-5.74,19.28-11.47,25.25-17.53,6.87-6.97,13.77-18.73,18.57-31.62,.13-.36,.26-.72,.39-1.07,3.99-11.05,8.29-27.91,6.06-45.52-.08-.81-3.21-32.34,.85-54.75,1.27-7.01-.33-9.9-1.9-11.08-1.58-1.2-3.8-1.2-6.23-.01-3.87,1.89-8.05,6.6-11.19,12.59-2.61,4.99-5.75,13.23-5.9,24.16-.13,9.46,.45,17.87,1,25.99,1.31,19.06,2.45,35.54-5.99,58.2-.07,.18-.14,.36-.2,.55h0c-.23,.62,.08,1.3,.7,1.54,.62,.23,1.3-.08,1.54-.69,.07-.19,.14-.38,.21-.56,3.91-10.5,6.06-20.35,6.77-30.95,.64-9.61,.02-18.66-.64-28.24-.56-8.08-1.13-16.43-1-25.8,.26-18.51,9.55-31.62,15.75-34.65,1.12-.55,2.69-1.03,3.75-.23,1.44,1.09,1.8,4.28,.99,8.76-4.15,22.92-.9,55.11-.87,55.43,0,0,0,.02,0,.03,2.17,17.14-2.03,33.62-5.94,44.42-4.7,13-11.59,24.9-18.42,31.83-6.73,6.83-15.73,12.53-25.49,17.53,3.31-4.88,6.11-10.11,8.2-15.72,.19-.51,.37-1.02,.55-1.54,6.07-17.6,7.56-32.48,4.44-44.24-2.78-10.47-9.12-18.33-18.85-23.37-1.1-.57-2.23-1.16-3.42-1.79-17.46-9.17-43.84-23.03-76.63-12.85-6.28,1.95-12.56,3.66-18.62,5.32-13.76,3.76-26.75,7.3-38.18,13.1-12.91,6.54-22,15.02-28.59,26.68-7.59,13.41-11.1,20.37-13.42,24.97-2.98,5.92-4.1,8.13-9.63,15.61-5.11,6.91-10.83,9.88-16.89,12.85-1.84-4.25-8.03-19.81-4.1-28.53,1.94-4.3,8.89-12.23,20.1-22.91,6.89-6.57,13.84-12.7,17.35-15.73,.58,5.71,3.51,9.39,4.94,10.24,.97,.58,1.62,.09,1.79-.07,.29-.27,.69-.88,.14-1.97-.37-.73-.7-2.51-1.01-4.23-.82-4.45-1.45-7.2-3.25-7.85-.07-.02-.14-.05-.22-.07,.1-.97,.28-2.01,.56-3.09,1.61-6.18,3.39-9.28,6.83-11.82,3.61-2.67,9.24-4.77,19.03-7.93,18.33-5.91,121.63-41.96,161.62-58.35,9.56-3.92,17.5-6.97,23.88-9.42,20.07-7.71,27.57-10.59,33.88-20.41,2.76-4.3,1.54-8.67-2.01-1.29Zm-332.09,238.3c.66,2.87-.15,7.58-2.05,12.01-1.67,3.88-3.87,6.76-5.95,7.87,.38-1.41,1.44-3.44,2.41-5.29,1.73-3.31,3.7-7.06,4.03-10.61,.3-3.29,.71-5.03,1.01-5.93,.16,.43,.35,1.05,.55,1.95Zm-4.3-1.73c.52-.44,1.07-.9,1.63-1.38-.13,.33-.23,.67-.32,1-.4,1.43-.71,3.41-.94,5.86-.29,3.09-2.13,6.62-3.76,9.73-.91,1.74-1.73,3.3-2.25,4.69-.31,.83-.51,1.6-.56,2.31-1.78,.07-3.39-.53-4.65-1.77-1.65-1.62-2.35-4.09-1.84-6.44,.87-4.01,5.07-7.56,12.7-14.01Zm-15.02,13.5c-.69,3.15,.27,6.46,2.5,8.65,1.84,1.81,4.32,2.66,6.95,2.41,.43,.57,1.08,.97,1.93,1.21,1.04,.29,4.2,1.17,31.44-12.7,.05,1.21-.02,3.03-.57,5.2-1.34,5.24-4.91,10.16-10.31,14.22-7.08,5.32-21.68,6.29-31.87,2.12-4.67-1.91-10.47-5.71-11.56-12.97-.76-5.07,.51-9.46,3.79-13.06,5.49-6.01,15.44-8.35,18.75-8.32-6.47,5.51-10.09,8.95-11.03,13.24Zm45.26,4.12c-.59,4.04-2.24,9.92-6.73,15.02-8.95,10.16-29.96,10.6-42.07,4.2-6.3-3.33-10.53-8.79-11.59-14.97-.99-5.76,.88-11.56,5.27-16.32,4.24-4.6,9.5-6.02,13.16-6.39,.29-.03,.58-.05,.86-.07-.63,.18-1.27,.39-1.92,.61-3.4,1.19-8.19,3.41-11.71,7.27-3.79,4.15-5.26,9.21-4.39,15.02,.52,3.46,2.02,6.53,4.45,9.13,2.18,2.34,5.06,4.25,8.57,5.69,11.06,4.53,26.4,3.44,34.21-2.42,7.45-5.59,10.22-11.62,11.23-15.68,.77-3.09,.67-5.55,.53-6.82,.16-.08,.32-.17,.48-.25,.05,1.38,.03,3.5-.34,5.98Zm40.57-21.19c-3.38,8.21-11.85,16.73-20.17,16.77-6.41,.03-9.11-4.82-9.97-6.87,10.34-5.55,20.41-11.28,26.57-15.15,2.08-1.31,4.29-2.75,6.59-4.29-.38,1.96-1.2,5.11-3.03,9.55Zm71.75-26.34c.06,4.93-2.91,6.74-4.69,7.37-3.58,1.28-8.11,.12-10.31-2.65-3.68-4.61-6.73-14.07-7.67-17.15,.74-.3,1.45-.57,2.12-.8,4.18-1.4,8.3-3.25,12.29-5.03,.67-.3,1.33-.59,1.99-.89,1.58,2.58,6.16,10.77,6.27,19.13Zm2.58,62.59c0,.52-.35,1.11-1,1.73-3.43,1.33-6.8,2.23-10.14,2.38-6.09,.28-10.1-1.79-10.78-3.88-.56-1.73,1.22-3.22,2.34-3.96,1.54-1.01,4.55-1.47,8.05-1.21,3.46,.25,6.87,1.14,9.13,2.36,1.53,.83,2.4,1.77,2.39,2.57Zm61.86-39.05c-2.89,1.63-5.62,3.17-7.93,4.55-4.41,2.62-7.88,5.04-10.77,7.31,1.43-2.45,3.32-5.51,5.58-8.79,4.91-7.13,12.63-16.78,21.55-22.29,6.1-3.77,14.97-7.47,25.25-11.76,6.09-2.54,12.72-5.31,19.29-8.33-15.55,18.21-37.88,30.81-52.96,39.32Zm-114.14-113.66c.32,1.13,.59,2.52,.84,3.88-.04-.1-.08-.21-.12-.31-.44-1.14-.85-2.64-1-4.45,.09,.24,.18,.53,.29,.88Z"/>
</svg>