<?xml version="1.0" encoding="UTF-8"?>
<svg id="Layer_1" data-name="Layer 1" xmlns="http://www.w3.org/2000/svg" viewBox="0 0 1920 1080">
  <defs>
    <style>
      .cls-1 {
        fill: #fff;
      }
    </style>
  </defs>
  <g>
    <path class="cls-1" d="M279.88,903.7l80.18-381.61,134.14-.78v8.48h-15.42c-7.2,0-12.98,1.54-17.34,4.62-4.37,3.09-6.05,9.25-5.01,18.5l34.69,351.54c1.03,8.74,3.98,14.78,8.87,18.11,4.88,3.35,10.92,5.02,18.12,5.02h16.19v7.71h-174.23v-7.71h15.42c7.19,0,12.98-1.66,17.35-5.02,4.36-3.34,6.03-9.37,5.01-18.11l-33.92-336.89-77.09,367.73h-94.05l-85.57-363.11-33.92,332.27c-1.04,8.74,.64,14.78,5.02,18.11,4.36,3.35,10.14,5.02,17.34,5.02h15.42v7.71H17v-7.71h16.19c7.19,0,13.23-1.66,18.11-5.02,4.88-3.34,7.83-9.37,8.87-18.11l35.47-351.54c1.03-9.25-.65-15.42-5.01-18.5-4.38-3.08-10.16-4.62-17.35-4.62h-15.42v-8.48H188.91l90.97,382.38Z"/>
    <path class="cls-1" d="M780.22,521.32c30.83,0,57.43,4.76,79.79,14.26,22.35,9.51,40.6,22.88,54.74,40.09,14.13,17.23,24.28,37.65,30.45,61.29,6.16,23.65,8.48,49.61,6.94,77.87-2.06,31.35-8.62,60.26-19.66,86.73-11.06,26.47-25.32,49.47-42.79,69-17.48,19.54-37.53,34.96-60.14,46.25-22.62,11.31-46.52,17.48-71.7,18.5h-202.75v-7.71h16.19c7.19,0,13.11-1.66,17.73-5.02,4.63-3.34,6.94-9.37,6.94-18.11v-351.54c0-9.25-2.31-15.42-6.94-18.5-4.63-3.08-10.54-4.62-17.73-4.62h-16.19v-8.48h225.11Zm78.63,191.96c1.54-25.69-.27-49.72-5.4-72.08-5.14-22.36-12.84-41.75-23.13-58.21-10.28-16.44-22.74-29.41-37.39-38.93-14.65-9.5-30.72-14.26-48.18-14.26h-54.73v397.03h37c14.9-2.05,29.8-8.87,44.71-20.43,14.9-11.57,28.53-26.72,40.86-45.48,12.34-18.76,22.61-40.73,30.84-65.92,8.21-25.17,13.35-52.42,15.42-81.72Z"/>
  </g>
  <path class="cls-1" d="M842.68,337.56c43.88,0,74.89-15.87,93.03-47.65,18.16-31.76,27.24-74.15,27.24-127.09v-18.14h27.24v18.14c0,52.94,9.05,95.33,27.22,127.09,18.16,31.78,49.17,47.65,93.06,47.65v27.24c-43.88,0-74.89,15.89-93.06,47.65-18.16,31.78-27.22,74.12-27.22,127.09v15.89h-27.24v-15.89c0-52.97-9.08-95.3-27.24-127.09-18.14-31.76-49.15-47.65-93.03-47.65v-27.24Z"/>
  <g>
    <path class="cls-1" d="M1007.28,829.12h7.44c2.02,0,3.87,.3,5.54,.89,1.67,.59,3.11,1.47,4.33,2.63,1.62,1.54,2.72,3.32,3.32,5.36,.59,2.04,.89,4.13,.89,6.29,0,2.59-.36,4.88-1.09,6.87-.51,1.4-1.2,2.62-2.06,3.66-.86,1.04-1.86,1.9-2.99,2.59-1.13,.69-2.37,1.2-3.72,1.54-1.35,.34-2.75,.51-4.21,.51h-7.44v-30.33Zm7.44,27.25c1.02,0,2.18-.13,3.46-.4s2.48-.83,3.6-1.7c1.12-.86,2.06-2.09,2.81-3.68s1.13-3.69,1.13-6.31c0-2.1-.25-3.87-.75-5.3s-1.15-2.59-1.94-3.5c-.8-.9-1.69-1.59-2.67-2.06-.98-.47-1.96-.79-2.91-.97-.96-.17-1.87-.26-2.73-.26h-4.37v24.18h4.37Z"/>
    <path class="cls-1" d="M1061.63,834.78c1.38,0,2.71,.27,4,.81,1.29,.54,2.43,1.32,3.42,2.35,.98,1.02,1.77,2.28,2.37,3.76,.59,1.48,.89,3.15,.89,5.01v1.9h-18.96c.11,1.27,.38,2.41,.81,3.44,.43,1.03,1,1.89,1.7,2.61,.7,.71,1.52,1.27,2.45,1.66,.93,.39,1.95,.59,3.05,.59,1.64,0,3.11-.44,4.39-1.31s2.23-2.11,2.85-3.7l2.83,1.05c-.24,.59-.61,1.29-1.09,2.08s-1.13,1.55-1.94,2.26c-.81,.71-1.79,1.32-2.95,1.82-1.16,.5-2.52,.75-4.08,.75s-3.07-.3-4.43-.91c-1.36-.61-2.53-1.46-3.52-2.55-.98-1.09-1.76-2.41-2.33-3.94-.57-1.54-.85-3.25-.85-5.13s.27-3.56,.81-5.1c.54-1.54,1.3-2.86,2.29-3.96,.98-1.1,2.18-1.96,3.6-2.57,1.42-.61,2.99-.91,4.71-.91Zm7.56,11.32c-.05-1.21-.28-2.33-.69-3.36s-.94-1.91-1.6-2.65c-.66-.74-1.44-1.32-2.35-1.74s-1.88-.63-2.93-.63c-2.34,0-4.27,.73-5.76,2.2s-2.35,3.52-2.57,6.17h15.89Z"/>
    <path class="cls-1" d="M1096.73,841.21c0,.94,.3,1.71,.91,2.29s1.37,1.09,2.29,1.54c.92,.45,1.91,.88,2.97,1.29,1.06,.42,2.06,.92,2.97,1.52,.92,.59,1.68,1.34,2.28,2.24,.61,.9,.9,2.06,.87,3.46,0,.97-.19,1.85-.57,2.63-.38,.78-.92,1.45-1.62,2s-1.54,.97-2.53,1.25-2.08,.42-3.29,.42c-1.13,0-2.14-.14-3.01-.42-.88-.28-1.61-.59-2.2-.91-.59-.32-1.04-.63-1.35-.91-.31-.28-.46-.44-.46-.46,.35-.38,.66-.73,.93-1.05,.13-.13,.26-.26,.36-.38,.11-.12,.2-.24,.28-.34,.11-.11,.2-.22,.28-.32,.46,.4,.9,.72,1.33,.95,.43,.23,.97,.44,1.62,.65,.65,.2,1.39,.3,2.22,.3,.46,0,.98-.04,1.56-.12,.58-.08,1.12-.25,1.64-.5,.51-.26,.94-.62,1.29-1.09,.35-.47,.53-1.08,.53-1.84,0-.97-.3-1.76-.91-2.37-.61-.61-1.36-1.14-2.26-1.6-.9-.46-1.89-.9-2.97-1.31s-2.07-.92-2.97-1.52c-.9-.59-1.66-1.33-2.26-2.2s-.91-2-.91-3.38c0-1.05,.22-1.97,.65-2.75,.43-.78,1.01-1.44,1.74-1.96,.73-.53,1.58-.92,2.55-1.17,.97-.26,2.02-.38,3.15-.38s2.08,.14,2.93,.42c.85,.28,1.57,.59,2.16,.91,.59,.32,1.04,.62,1.35,.89,.31,.27,.48,.42,.51,.45l-1.9,2.1c-.43-.38-.86-.69-1.29-.93-.43-.24-.96-.46-1.58-.65-.62-.19-1.36-.28-2.22-.28-1.67-.03-2.93,.28-3.78,.91-.85,.63-1.27,1.52-1.27,2.65Z"/>
    <path class="cls-1" d="M1133.2,827.14c.54,0,.99,.18,1.35,.55,.36,.36,.55,.82,.55,1.35s-.18,.99-.55,1.36c-.36,.36-.82,.55-1.35,.55s-.99-.18-1.35-.55-.55-.82-.55-1.36,.18-.99,.55-1.35,.81-.55,1.35-.55Zm-1.5,8.05h2.99v24.26h-2.99v-24.26Z"/>
    <path class="cls-1" d="M1176.99,835.19h2.99v25.52c0,1.62-.26,3.09-.77,4.43-.51,1.33-1.23,2.49-2.16,3.46-.93,.97-2.05,1.72-3.36,2.24-1.31,.53-2.76,.79-4.35,.79-1.83,0-3.63-.4-5.38-1.21-1.75-.81-3.18-1.94-4.29-3.4l2.43-1.78c.78,1.08,1.83,1.91,3.13,2.51,1.31,.59,2.66,.89,4.06,.89,2.37,0,4.25-.71,5.62-2.12,1.37-1.42,2.06-3.35,2.06-5.8v-5.5c-.78,1.35-1.86,2.46-3.23,3.34-1.38,.88-3.09,1.31-5.14,1.31-1.62,0-3.1-.32-4.45-.97-1.35-.65-2.49-1.54-3.44-2.67-.94-1.13-1.68-2.46-2.2-3.98-.53-1.52-.79-3.16-.79-4.91s.26-3.39,.79-4.91c.53-1.52,1.26-2.85,2.2-3.98s2.09-2.02,3.44-2.67c1.35-.65,2.83-.97,4.45-.97,2.05,0,3.76,.44,5.14,1.31s2.45,1.99,3.23,3.34v-4.25Zm0,12.13c0-1.43-.19-2.73-.57-3.9-.38-1.17-.92-2.18-1.64-3.03-.71-.85-1.57-1.51-2.57-1.98-1-.47-2.12-.71-3.36-.71s-2.28,.23-3.28,.69c-1,.46-1.85,1.11-2.57,1.94-.71,.84-1.27,1.85-1.66,3.03s-.59,2.51-.59,3.96,.2,2.78,.59,3.96,.94,2.2,1.66,3.03c.71,.84,1.57,1.48,2.57,1.94,1,.46,2.09,.69,3.28,.69s2.36-.24,3.36-.71,1.85-1.13,2.57-1.98c.71-.85,1.26-1.87,1.64-3.05,.38-1.19,.57-2.48,.57-3.88Z"/>
    <path class="cls-1" d="M1204.65,835.19h2.99v3.6c.75-1.16,1.74-2.12,2.95-2.87,1.21-.75,2.56-1.13,4.04-1.13,1.64,0,3.01,.32,4.08,.97,1.08,.65,1.94,1.46,2.59,2.43,.65,.97,1.1,2.01,1.37,3.13,.27,1.12,.41,2.16,.41,3.13v15h-2.99v-14.64c0-2.29-.52-4.05-1.56-5.28s-2.5-1.84-4.39-1.84c-.92,0-1.77,.18-2.55,.55-.78,.36-1.47,.86-2.06,1.48-.59,.62-1.06,1.35-1.4,2.18-.34,.84-.5,1.74-.5,2.71v14.84h-2.99v-24.26Z"/>
    <path class="cls-1" d="M1297.33,835.19h2.99v24.26h-2.99v-4.25c-.81,1.35-1.9,2.46-3.28,3.34-1.38,.88-3.09,1.31-5.13,1.31-1.62,0-3.09-.32-4.43-.97-1.33-.65-2.48-1.54-3.44-2.67-.96-1.13-1.69-2.46-2.2-3.98-.51-1.52-.77-3.16-.77-4.91s.26-3.39,.77-4.91c.51-1.52,1.25-2.85,2.2-3.98,.96-1.13,2.1-2.02,3.44-2.67,1.33-.65,2.81-.97,4.43-.97,2.05,0,3.76,.44,5.13,1.31s2.47,1.99,3.28,3.34v-4.25Zm0,12.13c0-1.43-.2-2.73-.59-3.9-.39-1.17-.94-2.18-1.66-3.03-.71-.85-1.57-1.51-2.57-1.98-1-.47-2.12-.71-3.36-.71s-2.27,.23-3.25,.69c-.98,.46-1.83,1.11-2.55,1.94-.71,.84-1.27,1.85-1.66,3.03s-.59,2.51-.59,3.96,.2,2.78,.59,3.96,.94,2.2,1.66,3.03c.71,.84,1.56,1.48,2.55,1.94,.98,.46,2.07,.69,3.25,.69s2.36-.24,3.36-.71c1-.47,1.85-1.13,2.57-1.98,.71-.85,1.27-1.87,1.66-3.05,.39-1.19,.59-2.48,.59-3.88Z"/>
    <path class="cls-1" d="M1325,835.19h2.99v3.6c.75-1.16,1.74-2.12,2.95-2.87,1.21-.75,2.56-1.13,4.04-1.13,1.64,0,3.01,.32,4.08,.97,1.08,.65,1.94,1.46,2.59,2.43,.65,.97,1.1,2.01,1.37,3.13,.27,1.12,.41,2.16,.41,3.13v15h-2.99v-14.64c0-2.29-.52-4.05-1.56-5.28s-2.5-1.84-4.39-1.84c-.92,0-1.77,.18-2.55,.55-.78,.36-1.47,.86-2.06,1.48-.59,.62-1.06,1.35-1.4,2.18-.34,.84-.5,1.74-.5,2.71v14.84h-2.99v-24.26Z"/>
    <path class="cls-1" d="M1366.48,847.32c0-1.75,.26-3.39,.79-4.91,.53-1.52,1.26-2.85,2.2-3.98s2.09-2.02,3.44-2.67c1.35-.65,2.83-.97,4.45-.97,2.05,0,3.76,.44,5.14,1.31s2.45,1.99,3.23,3.34v-13.14h2.99v33.16h-2.99v-4.25c-.78,1.35-1.86,2.46-3.23,3.34-1.38,.88-3.09,1.31-5.14,1.31-1.62,0-3.1-.32-4.45-.97-1.35-.65-2.49-1.54-3.44-2.67-.94-1.13-1.68-2.46-2.2-3.98-.53-1.52-.79-3.16-.79-4.91Zm3.03,0c0,1.46,.2,2.78,.61,3.96s.96,2.2,1.68,3.03c.71,.84,1.56,1.48,2.55,1.94,.98,.46,2.07,.69,3.25,.69s2.36-.24,3.36-.71,1.85-1.13,2.57-1.98c.71-.85,1.26-1.87,1.64-3.05,.38-1.19,.57-2.48,.57-3.88s-.19-2.73-.57-3.9c-.38-1.17-.92-2.18-1.64-3.03-.71-.85-1.57-1.51-2.57-1.98-1-.47-2.12-.71-3.36-.71s-2.27,.23-3.25,.69c-.98,.46-1.83,1.11-2.55,1.94-.71,.84-1.27,1.85-1.68,3.03s-.61,2.51-.61,3.96Z"/>
    <path class="cls-1" d="M1445.33,829.12h7.44c2.02,0,3.87,.3,5.54,.89,1.67,.59,3.11,1.47,4.33,2.63,1.62,1.54,2.72,3.32,3.32,5.36,.59,2.04,.89,4.13,.89,6.29,0,2.59-.36,4.88-1.09,6.87-.51,1.4-1.2,2.62-2.06,3.66-.86,1.04-1.86,1.9-2.99,2.59-1.13,.69-2.37,1.2-3.72,1.54-1.35,.34-2.75,.51-4.21,.51h-7.44v-30.33Zm7.44,27.25c1.02,0,2.18-.13,3.46-.4s2.48-.83,3.6-1.7c1.12-.86,2.06-2.09,2.81-3.68s1.13-3.69,1.13-6.31c0-2.1-.25-3.87-.75-5.3s-1.15-2.59-1.94-3.5c-.8-.9-1.69-1.59-2.67-2.06-.98-.47-1.96-.79-2.91-.97-.96-.17-1.87-.26-2.73-.26h-4.37v24.18h4.37Z"/>
    <path class="cls-1" d="M1499.68,834.78c1.38,0,2.71,.27,4,.81,1.29,.54,2.43,1.32,3.42,2.35,.98,1.02,1.77,2.28,2.37,3.76,.59,1.48,.89,3.15,.89,5.01v1.9h-18.96c.11,1.27,.38,2.41,.81,3.44,.43,1.03,1,1.89,1.7,2.61,.7,.71,1.52,1.27,2.45,1.66,.93,.39,1.95,.59,3.05,.59,1.64,0,3.11-.44,4.39-1.31s2.23-2.11,2.85-3.7l2.83,1.05c-.24,.59-.61,1.29-1.09,2.08s-1.13,1.55-1.94,2.26c-.81,.71-1.79,1.32-2.95,1.82-1.16,.5-2.52,.75-4.08,.75s-3.07-.3-4.43-.91c-1.36-.61-2.53-1.46-3.52-2.55-.98-1.09-1.76-2.41-2.33-3.94-.57-1.54-.85-3.25-.85-5.13s.27-3.56,.81-5.1c.54-1.54,1.3-2.86,2.29-3.96,.98-1.1,2.18-1.96,3.6-2.57,1.42-.61,2.99-.91,4.71-.91Zm7.56,11.32c-.05-1.21-.28-2.33-.69-3.36s-.94-1.91-1.6-2.65c-.66-.74-1.44-1.32-2.35-1.74s-1.88-.63-2.93-.63c-2.34,0-4.27,.73-5.76,2.2s-2.35,3.52-2.57,6.17h15.89Z"/>
    <path class="cls-1" d="M1545.9,835.19h3.07l-7.84,24.26h-3.07l-7.89-24.26h3.07l6.35,19.94,6.31-19.94Z"/>
    <path class="cls-1" d="M1580.19,834.78c1.38,0,2.71,.27,4,.81,1.29,.54,2.43,1.32,3.42,2.35,.98,1.02,1.77,2.28,2.37,3.76,.59,1.48,.89,3.15,.89,5.01v1.9h-18.96c.11,1.27,.38,2.41,.81,3.44,.43,1.03,1,1.89,1.7,2.61,.7,.71,1.52,1.27,2.45,1.66,.93,.39,1.95,.59,3.05,.59,1.64,0,3.11-.44,4.39-1.31s2.23-2.11,2.85-3.7l2.83,1.05c-.24,.59-.61,1.29-1.09,2.08s-1.13,1.55-1.94,2.26c-.81,.71-1.79,1.32-2.95,1.82-1.16,.5-2.52,.75-4.08,.75s-3.07-.3-4.43-.91c-1.36-.61-2.53-1.46-3.52-2.55-.98-1.09-1.76-2.41-2.33-3.94-.57-1.54-.85-3.25-.85-5.13s.27-3.56,.81-5.1c.54-1.54,1.3-2.86,2.29-3.96,.98-1.1,2.18-1.96,3.6-2.57,1.42-.61,2.99-.91,4.71-.91Zm7.56,11.32c-.05-1.21-.28-2.33-.69-3.36s-.94-1.91-1.6-2.65c-.66-.74-1.44-1.32-2.35-1.74s-1.88-.63-2.93-.63c-2.34,0-4.27,.73-5.76,2.2s-2.35,3.52-2.57,6.17h15.89Z"/>
    <path class="cls-1" d="M1613.92,826.29h2.99v33.16h-2.99v-33.16Z"/>
    <path class="cls-1" d="M1651.08,859.85c-1.48,0-2.9-.28-4.25-.85-1.35-.57-2.54-1.39-3.56-2.47-1.03-1.08-1.83-2.39-2.43-3.94-.59-1.55-.89-3.31-.89-5.28s.3-3.73,.89-5.28c.59-1.55,1.4-2.86,2.43-3.94,1.02-1.08,2.21-1.9,3.56-2.47,1.35-.57,2.76-.85,4.25-.85s2.93,.28,4.27,.85c1.33,.57,2.51,1.39,3.52,2.47,1.01,1.08,1.81,2.39,2.41,3.94,.59,1.55,.89,3.31,.89,5.28s-.3,3.73-.89,5.28c-.59,1.55-1.39,2.87-2.41,3.94-1.01,1.08-2.18,1.9-3.52,2.47-1.33,.57-2.76,.85-4.27,.85Zm0-2.95c1.19,0,2.27-.23,3.26-.69,.98-.46,1.83-1.1,2.55-1.92,.71-.82,1.27-1.83,1.66-3.01s.59-2.51,.59-3.96-.2-2.78-.59-3.96-.94-2.19-1.66-3.01c-.71-.82-1.56-1.46-2.55-1.92-.98-.46-2.07-.69-3.26-.69s-2.27,.23-3.25,.69c-.98,.46-1.83,1.1-2.55,1.92-.71,.82-1.27,1.83-1.68,3.01s-.61,2.51-.61,3.96,.2,2.78,.61,3.96,.96,2.19,1.68,3.01c.71,.82,1.56,1.46,2.55,1.92,.98,.46,2.07,.69,3.25,.69Z"/>
    <path class="cls-1" d="M1685.21,835.19h2.99v4.25c.81-1.35,1.89-2.46,3.25-3.34s3.07-1.31,5.12-1.31c1.62,0,3.1,.32,4.45,.97,1.35,.65,2.49,1.54,3.44,2.67,.94,1.13,1.68,2.46,2.2,3.98,.53,1.52,.79,3.16,.79,4.91s-.26,3.39-.79,4.91c-.53,1.52-1.26,2.85-2.2,3.98-.94,1.13-2.09,2.02-3.44,2.67-1.35,.65-2.83,.97-4.45,.97-2.05,0-3.75-.44-5.12-1.31-1.36-.88-2.45-1.99-3.25-3.34v16.42h-2.99v-36.43Zm11.12,21.76c1.19,0,2.27-.23,3.25-.69,.98-.46,1.83-1.11,2.55-1.94,.71-.83,1.27-1.85,1.68-3.03s.61-2.51,.61-3.96-.2-2.78-.61-3.96-.96-2.2-1.68-3.03c-.71-.83-1.56-1.48-2.55-1.94-.98-.46-2.07-.69-3.25-.69s-2.36,.24-3.36,.71c-1,.47-1.85,1.13-2.55,1.98-.7,.85-1.25,1.86-1.64,3.03s-.59,2.47-.59,3.9,.2,2.7,.59,3.88,.94,2.2,1.64,3.05c.7,.85,1.55,1.51,2.55,1.98,1,.47,2.12,.71,3.36,.71Z"/>
    <path class="cls-1" d="M1750.88,834.78c.97,0,1.85,.2,2.63,.59,.78,.39,1.45,.92,2,1.6,.55,.67,.98,1.47,1.27,2.39,.3,.92,.44,1.89,.44,2.91v17.19h-2.99v-16.13c0-1.75-.34-3.13-1.03-4.12s-1.76-1.5-3.21-1.5c-.49,0-1,.09-1.54,.26-.54,.18-1.04,.48-1.5,.91-.46,.43-.84,.99-1.13,1.68s-.44,1.54-.44,2.57v16.34h-2.99v-16.13c0-1.75-.34-3.13-1.03-4.12s-1.76-1.5-3.21-1.5c-.49,0-1,.09-1.54,.26-.54,.18-1.04,.48-1.5,.91-.46,.43-.84,.99-1.15,1.68-.31,.69-.46,1.54-.46,2.57v16.34h-2.99v-24.26h2.99v2.43c.54-.78,1.25-1.45,2.14-2,.89-.55,2.01-.83,3.36-.83s2.42,.34,3.38,1.01c.96,.67,1.7,1.58,2.24,2.71,.49-.97,1.23-1.83,2.24-2.59s2.35-1.13,4.02-1.13Z"/>
    <path class="cls-1" d="M1791.68,834.78c1.38,0,2.71,.27,4,.81,1.29,.54,2.43,1.32,3.42,2.35,.98,1.02,1.77,2.28,2.37,3.76,.59,1.48,.89,3.15,.89,5.01v1.9h-18.96c.11,1.27,.38,2.41,.81,3.44,.43,1.03,1,1.89,1.7,2.61,.7,.71,1.52,1.27,2.45,1.66,.93,.39,1.95,.59,3.05,.59,1.64,0,3.11-.44,4.39-1.31s2.23-2.11,2.85-3.7l2.83,1.05c-.24,.59-.61,1.29-1.09,2.08s-1.13,1.55-1.94,2.26c-.81,.71-1.79,1.32-2.95,1.82-1.16,.5-2.52,.75-4.08,.75s-3.07-.3-4.43-.91c-1.36-.61-2.53-1.46-3.52-2.55-.98-1.09-1.76-2.41-2.33-3.94-.57-1.54-.85-3.25-.85-5.13s.27-3.56,.81-5.1c.54-1.54,1.3-2.86,2.29-3.96,.98-1.1,2.18-1.96,3.6-2.57,1.42-.61,2.99-.91,4.71-.91Zm7.56,11.32c-.05-1.21-.28-2.33-.69-3.36s-.94-1.91-1.6-2.65c-.66-.74-1.44-1.32-2.35-1.74s-1.88-.63-2.93-.63c-2.34,0-4.27,.73-5.76,2.2s-2.35,3.52-2.57,6.17h15.89Z"/>
    <path class="cls-1" d="M1825.4,835.19h2.99v3.6c.75-1.16,1.74-2.12,2.95-2.87,1.21-.75,2.56-1.13,4.04-1.13,1.64,0,3.01,.32,4.08,.97,1.08,.65,1.94,1.46,2.59,2.43,.65,.97,1.1,2.01,1.37,3.13,.27,1.12,.41,2.16,.41,3.13v15h-2.99v-14.64c0-2.29-.52-4.05-1.56-5.28s-2.5-1.84-4.39-1.84c-.92,0-1.77,.18-2.55,.55-.78,.36-1.47,.86-2.06,1.48-.59,.62-1.06,1.35-1.4,2.18-.34,.84-.5,1.74-.5,2.71v14.84h-2.99v-24.26Z"/>
    <path class="cls-1" d="M1876.31,856.86c.57,0,1.12-.05,1.66-.16,.54-.11,1.04-.23,1.5-.36,.51-.16,1.01-.34,1.5-.53l1.21,2.75s-.22,.07-.57,.2c-.35,.14-.8,.28-1.33,.45-.54,.16-1.15,.31-1.84,.44s-1.39,.2-2.12,.2c-2.56,0-4.5-.72-5.82-2.16-1.32-1.44-1.98-3.38-1.98-5.8v-22.77h2.99v6.07h9.34v2.99h-9.34v13.71c0,3.32,1.6,4.97,4.81,4.97Z"/>
  </g>
  <g>
    <path class="cls-1" d="M996.46,786.29l8.7-21.92c4.45,3.26,9.99,5.98,16.62,8.16,6.63,2.19,12.57,3.28,17.81,3.28,9.29,0,16.76-2.54,22.4-7.62,5.64-5.08,8.46-11.56,8.46-19.42,0-5.88-1.57-11.34-4.71-16.38-3.14-5.04-11.02-10.54-23.65-16.5l-14.06-6.55c-11.91-5.56-20.24-12.15-24.96-19.78-4.73-7.62-7.09-16.8-7.09-27.52,0-13.03,4.61-23.83,13.82-32.41,9.21-8.58,21.05-12.87,35.5-12.87,19.3,0,32.72,3.14,40.27,9.41l-7.03,20.73c-3.18-2.3-8.02-4.53-14.54-6.67-6.51-2.14-12.55-3.22-18.11-3.22-8.1,0-14.47,2.3-19.12,6.91-4.65,4.61-6.97,10.53-6.97,17.75,0,4.45,.83,8.5,2.5,12.15,1.67,3.65,3.99,6.71,6.97,9.17,2.98,2.46,9.07,5.92,18.29,10.37l14.3,6.79c11.91,5.64,20.27,12.37,25.08,20.19,4.8,7.82,7.21,17.77,7.21,29.84,0,13.11-5.26,24.23-15.79,33.36-10.53,9.13-24.6,13.7-42.23,13.7-15.49,0-28.71-3.65-39.67-10.96Z"/>
    <path class="cls-1" d="M1185.29,641.18v153.09h-23.83v-153.09h-55.52v-21.44h137.37v21.44h-58.02Z"/>
    <path class="cls-1" d="M1263.33,619.74h23.83v119.5c0,10.64,3.38,19.4,10.13,26.27,6.75,6.87,15.68,10.31,26.81,10.31,11.75,0,21.01-3.34,27.76-10.01,6.75-6.67,10.13-15.73,10.13-27.16v-118.9h23.83v121.4c0,17.63-5.5,31.39-16.5,41.28-11,9.89-25.99,14.83-44.98,14.83s-34.59-4.84-45.15-14.54c-10.56-9.69-15.85-23.59-15.85-41.7v-121.28Z"/>
    <path class="cls-1" d="M1456.7,794.28h-35.15v-174.54c22.4-.79,36.73-1.19,43.01-1.19,24.38,0,43.68,7.41,57.9,22.22,14.22,14.81,21.33,34.53,21.33,59.15,0,62.91-29.03,94.36-87.09,94.36Zm-11.32-153.09v130.46c5.32,.79,11.91,1.19,19.78,1.19,16.68,0,29.79-6.25,39.32-18.76s14.3-29.88,14.3-52.12c0-41.3-18.55-61.95-55.64-61.95-2.22,0-8.14,.4-17.75,1.19Z"/>
    <path class="cls-1" d="M1575.36,794.28v-174.54h23.83v174.54h-23.83Z"/>
    <path class="cls-1" d="M1630.76,705.52c0-25.26,6.33-46.38,19-63.38,12.67-17,29.76-25.5,51.29-25.5,24.22,0,42.79,7.82,55.7,23.47,12.91,15.65,19.36,37.45,19.36,65.41s-6.47,51.13-19.42,67.37c-12.95,16.24-31.49,24.36-55.64,24.36-22,0-39.22-8.58-51.65-25.73-12.43-17.16-18.65-39.16-18.65-66Zm25.02,0c0,20.02,3.95,36.74,11.85,50.16,7.9,13.42,19.04,20.13,33.42,20.13,16.28,0,28.69-6.15,37.23-18.47,8.54-12.31,12.81-29.58,12.81-51.83,0-44.96-16.68-67.43-50.04-67.43-14.77,0-26.01,6.04-33.72,18.11-7.71,12.07-11.56,28.52-11.56,49.32Z"/>
    <path class="cls-1" d="M1795.65,786.29l8.7-21.92c4.45,3.26,9.99,5.98,16.62,8.16,6.63,2.19,12.57,3.28,17.81,3.28,9.29,0,16.76-2.54,22.4-7.62,5.64-5.08,8.46-11.56,8.46-19.42,0-5.88-1.57-11.34-4.71-16.38-3.14-5.04-11.02-10.54-23.65-16.5l-14.06-6.55c-11.91-5.56-20.24-12.15-24.96-19.78-4.73-7.62-7.09-16.8-7.09-27.52,0-13.03,4.61-23.83,13.82-32.41,9.21-8.58,21.05-12.87,35.5-12.87,19.3,0,32.72,3.14,40.27,9.41l-7.03,20.73c-3.18-2.3-8.02-4.53-14.54-6.67-6.51-2.14-12.55-3.22-18.11-3.22-8.1,0-14.47,2.3-19.12,6.91-4.65,4.61-6.97,10.53-6.97,17.75,0,4.45,.83,8.5,2.5,12.15,1.67,3.65,3.99,6.71,6.97,9.17,2.98,2.46,9.07,5.92,18.29,10.37l14.3,6.79c11.91,5.64,20.27,12.37,25.08,20.19,4.8,7.82,7.21,17.77,7.21,29.84,0,13.11-5.26,24.23-15.79,33.36-10.53,9.13-24.6,13.7-42.23,13.7-15.49,0-28.71-3.65-39.67-10.96Z"/>
  </g>
</svg>