<?xml version="1.0" encoding="UTF-8"?>
<svg id="Layer_1" data-name="Layer 1" xmlns="http://www.w3.org/2000/svg" viewBox="0 0 1920 1080">
  <g id="Design">
    <path d="M918.02,960.44c-7.86,0-21.35-2.44-45.43-9.85-27.82-8.56-65.24-22.4-108.19-40.03-90.36-37.07-188.83-84.05-256.99-122.59-85-48.06-134.85-95.45-161.69-126.73-14.02-16.34-25.6-32.74-33.49-47.42-3.55-6.61-6.27-12.74-8-17.94-55.08-12.6-96.16-10.88-142.7-8.94-3.85,.16-7.74,.32-11.67,.48-46.45,1.83-84.1-7.92-107.51-16.43-25.47-9.26-39.79-18.88-40.39-19.28-2.04-1.38-2.57-4.16-1.19-6.2,1.38-2.04,4.16-2.57,6.2-1.19h0c.28,.19,14.34,9.56,38.74,18.4,22.59,8.18,58.94,17.55,103.79,15.78,3.92-.15,7.8-.32,11.65-.48,40.98-1.71,79.68-3.32,127.78,5.65,4.35,.81,8.74,1.7,13.18,2.68-.02-.37-.03-.72-.03-1.06,0-11.43,8.42-14.72,15.18-17.36,7.95-3.11,16.17-6.32,19.49-20.9,2.36-10.37,6.56-16.73,13.2-20.02,15.93-7.9,43.94,3.24,104.05,30.54,123.89,56.26,233.06,115.55,333.73,181.26,70.95,46.31,119.1,86.81,150.96,113.61,24,20.18,41.33,34.76,48.88,34.76,6.96,0,10.38-4.59,12.02-8.44,3.62-8.5,2.34-23.04-9.02-34.86-3.69-3.84-8.79-8.57-14.68-14.06-15.6-14.51-36.2-33.65-49.82-53.99-4.16-.35-8.39-.92-12.68-1.71-49.75-9.15-95.63-27.89-132.67-54.19-19.2-13.63-35.98-29.23-49.9-46.38-14.28-17.6-25.58-36.91-33.59-57.39-27.6-.95-59.05-6.89-91.69-17.59-26.16-8.58-52.03-19.98-74.8-32.98-24.16-13.78-44.23-28.84-59.65-44.74-3.65-3.76-6.89-7.65-9.73-11.64-7.68,.69-15.94,.75-24.54,.16-18.54-1.28-37.5-5.43-53.4-11.68-11.95-4.7-27.21-12.6-32.02-23.59-3.41-7.77-2.55-23.32,2.55-46.22,4.66-20.94,12.46-46.28,22.54-73.28,20.19-54.06,44.7-102.27,67.15-132.54l-23.29,6.44c-1.8,.5-3.72-.18-4.81-1.69-1.09-1.51-1.13-3.55-.09-5.1l21.63-32.26-27.66-27.3c-1.29-1.27-1.68-3.2-.99-4.87,.69-1.68,2.32-2.77,4.13-2.77h36.98l18.14-32.65c.92-1.65,2.77-2.54,4.63-2.24,1.86,.31,3.33,1.75,3.67,3.6l5.54,30.12h37.83c1.8,0,3.43,1.08,4.12,2.74,.69,1.66,.32,3.58-.94,4.86l-31.09,31.45,16.72,31.66c.87,1.64,.63,3.64-.6,5.04-1.22,1.39-3.18,1.88-4.92,1.23l-22.4-8.4c8.5,14.68,24.65,43.02,43.01,77.65,24.17,45.58,57.09,111.42,78.71,169.75l66.08-44.28c-15.26-9.48-58.51-35.1-98.71-47.07-2.31-.69-3.65-3.08-3.05-5.41,.61-2.33,2.96-3.76,5.3-3.23,3.4,.77,82.2,18.7,122.68,39.95l148.77-94.94-29.38-52.23c-.91-1.62-.72-3.65,.48-5.07,1.2-1.42,3.16-1.95,4.92-1.32l53.81,19.3,48.5-42.9c1.38-1.22,3.37-1.47,5.01-.62,1.64,.85,2.59,2.62,2.38,4.45l-6.74,61.39,44.87,40.01c1.39,1.24,1.86,3.2,1.2,4.93-.66,1.73-2.32,2.86-4.17,2.86h-.03l-61.8-.36-19.54,292.71,110.86-17.03c-4.69-5.81-12.86-15.39-23.92-26.2-16.54-16.17-43.1-38.5-75.72-53.04-2.09-.93-3.14-3.3-2.42-5.47,.72-2.18,2.96-3.46,5.2-2.97,.8,.18,19.88,4.45,44.43,17.14,14.41,7.45,27.72,16.28,39.55,26.23,14.14,11.9,26.19,25.44,35.87,40.3l130.74-4.91-16.03-13.53c-1.43-1.21-1.96-3.18-1.31-4.95,.64-1.76,2.32-2.93,4.19-2.93h39.39l9.53-31.76c.55-1.84,2.22-3.13,4.15-3.18,1.93-.05,3.67,1.13,4.32,2.94l11.31,31.11,37.9-1.43c1.91-.06,3.65,1.08,4.34,2.86,.69,1.78,.16,3.8-1.3,5.03l-30.22,25.3,21.68,30.42c1.17,1.65,1.09,3.88-.2,5.44-1.29,1.56-3.47,2.05-5.31,1.21l-36.33-16.74-17.64,23.52c-1.13,1.5-3.08,2.14-4.88,1.59-1.8-.55-3.06-2.17-3.16-4.04l-.73-14.49c-14.29,26.78-46.32,85.93-75.26,133.08-19.57,31.9-37.58,50.15-50.92,60.47,19.8-2.89,50.83-6.47,91.05-8.14,42.71-1.77,87.32-1.07,132.61,2.07,56.59,3.93,114.4,11.71,171.82,23.13,143.71,28.58,266.18,27.48,343.62,21.53,83.79-6.45,134.14-19.77,134.64-19.9,2.38-.64,4.83,.77,5.47,3.16,.64,2.38-.77,4.83-3.16,5.47-.51,.14-51.66,13.68-136.27,20.18-49.64,3.82-100.97,4.52-152.57,2.08-64.49-3.05-129.59-11.04-193.48-23.75-129.06-25.67-235.48-27.79-302.04-25.05-72.12,2.97-114.27,12.13-114.68,12.22-2.38,.53-4.75-.96-5.31-3.33-.56-2.37,.88-4.76,3.25-5.36,.05-.01,7.78-2.16,20-11.71,11.33-8.86,28.92-26.08,48.34-57.74,38.3-62.43,82.11-146.05,82.55-146.89,.93-1.78,2.94-2.72,4.91-2.29,1.97,.43,3.4,2.12,3.5,4.14l.93,18.34,12.39-16.53c1.26-1.68,3.53-2.26,5.44-1.38l24.36,11.22-14.33-20.11c-1.35-1.9-1.02-4.52,.77-6.01l23.38-19.58-28.12,1.06c-1.93,.06-3.7-1.11-4.36-2.94l-7.82-21.51-6.61,22.04c-.57,1.89-2.3,3.18-4.28,3.18h-30.49l15.51,13.09c1.41,1.19,1.94,3.12,1.34,4.87-.6,1.74-2.21,2.94-4.05,3.01l-144.82,5.44c-1.6,.05-3.1-.73-3.95-2.08-17.4-27.61-40.79-46.32-60.56-58.35,10.32,8.07,19.15,16.07,26.21,22.98,18.51,18.12,28.9,32.5,29.33,33.1,.91,1.26,1.09,2.9,.49,4.33-.6,1.43-1.9,2.45-3.44,2.68l-123.86,19.03c-1.34,.2-2.7-.21-3.7-1.12-1-.92-1.53-2.24-1.44-3.59l20.19-302.46c.16-2.35,2.11-4.17,4.45-4.17h.03l54.18,.32-37.77-33.68c-1.08-.96-1.62-2.38-1.47-3.82l5.73-52.19-41.82,36.99c-1.22,1.08-2.93,1.41-4.47,.86l-45.03-16.15,25.58,45.48c1.16,2.07,.51,4.68-1.49,5.95l-154.53,98.62c-1.38,.88-3.12,.94-4.55,.15-15.02-8.25-36.82-16.16-57.88-22.75,24.82,12.85,42.95,24.74,44.24,25.6,1.25,.82,2,2.22,2.01,3.71,0,1.5-.74,2.89-1.98,3.73l-76.49,51.25c-1.14,.76-2.57,.96-3.88,.53-1.31-.43-2.34-1.43-2.81-2.73-21.37-59.11-55.38-127.2-80.14-173.91-26.87-50.67-48.96-87.81-49.18-88.18-.97-1.63-.81-3.69,.41-5.15,1.22-1.46,3.22-1.98,4.99-1.32l23.16,8.69-12.76-24.16c-.91-1.72-.6-3.84,.77-5.22l25.87-26.18h-30.85c-2.15,0-4-1.54-4.39-3.66l-3.96-21.54-13.37,24.07c-.79,1.42-2.28,2.3-3.9,2.3h-28.72l22.54,22.25c1.53,1.51,1.77,3.88,.57,5.66l-16.98,25.33,24.9-6.89c1.89-.52,3.91,.25,4.96,1.91,1.05,1.66,.9,3.81-.38,5.3-23.99,27.96-51.72,80.56-74.19,140.71-9.8,26.24-17.68,51.84-22.19,72.09-6.36,28.57-4.28,37.98-3.09,40.69,5.91,13.49,42.3,27.48,77.86,29.94,6.55,.45,12.77,.52,18.59,.22-5.34-9.79-8.4-20.18-9.12-31.07-1.02-15.34,2.56-31.3,10.65-47.44,8.65-17.26,19.97-29.64,25.94-35.48,5.69-5.56,16.23-14.77,22.82-13.92,4.27,.55,8.14,4.4,11.5,11.43,9.79,20.48,14.54,66.61-6.33,100.56-6.07,9.88-16.52,16.97-31.06,21.08-2.83,.8-5.81,1.48-8.92,2.04,1.84,2.29,3.83,4.55,5.99,6.77,28.97,29.88,77.88,58.09,130.83,75.45,30.52,10.01,59.87,15.76,85.72,17.04-5.7-18.38-6.68-36.75-2.89-54.71,3.73-17.7,12.16-34.64,24.38-48.99,20.87-24.51,50.42-38.46,71.85-33.93,16.57,3.5,27.49,20.71,28.51,44.9,.79,18.78-4.59,39.14-14.78,55.86-12.04,19.76-29.96,33.69-51.81,40.29-12.3,3.71-26.62,5.61-42.4,5.75,31.05,75.16,108.45,130.71,208.1,149.05,1.76,.32,3.5,.61,5.22,.85-4.9-9.07-8.09-18.27-8.54-27.29-.53-10.52,4.12-21.61,13.82-32.95,8.13-9.5,19.36-18.6,32.48-26.31,11.42-6.71,23.49-11.82,33.99-14.39,11.94-2.92,21.44-2.47,27.48,1.31,10.67,6.67,12.1,27.8,3.39,50.23-7.29,18.77-20.23,34.85-36.45,45.27-9.61,6.18-20.34,10.4-31.9,12.54-5.56,1.03-11.33,1.58-17.27,1.65,12.92,17.45,30.89,34.16,44.74,47.04,5.99,5.57,11.17,10.39,15.04,14.41,12.15,12.64,16.59,30.95,10.8,44.55-3.75,8.82-11.13,13.88-20.24,13.88-10.81,0-26.37-13.09-54.63-36.86-31.7-26.66-79.6-66.95-150.1-112.96-100.29-65.46-209.07-124.54-332.54-180.61-29.1-13.21-50.29-22.43-65.99-27.56-15.09-4.92-24.75-5.91-30.4-3.11-2.55,1.26-6.2,4.09-8.46,14.01-4.37,19.19-16.26,23.84-24.94,27.24-7.06,2.76-9.5,3.97-9.5,9.05,0,.8,.13,1.87,.41,3.2,47.37,11.43,100.45,32.03,164.83,63.85,78.23,38.67,183.16,99.71,280.69,163.29,44.84,29.23,84.34,56.58,114.23,79.08,32.19,24.24,51.48,41.51,57.33,51.33,3.59,6.03,1.45,9.67-.15,11.31-1.66,1.7-4.39,3.09-10.33,3.09Zm3.5-8.28s0,0,0,0h0ZM314.72,598.42c1.35,3.24,3.12,6.98,5.37,11.18,5.29,9.85,15.21,25.79,32.4,45.83,26.38,30.74,75.43,77.35,159.31,124.77,66.92,37.84,163.87,84.16,253.03,120.88,42.32,17.43,79.45,31.28,107.37,40.03,35.82,11.23,46.24,10.84,49.01,10.2-.1-.2-.22-.43-.38-.7-10.35-17.37-76.6-67.42-168.76-127.5-97.26-63.4-201.85-124.24-279.77-162.76-65.84-32.54-115.81-51.33-157.58-61.93Zm616.34,168.77c45.03,2,72.43-25.26,83.45-53.65,7.39-19.04,6.07-35.76,.2-39.43-8.22-5.14-30.66,.54-52.22,13.21-26.25,15.43-42.7,35.49-41.91,51.11,.47,9.31,4.47,19.07,10.47,28.76Zm-227.55-159.8c16.21,.1,30.82-1.67,43.2-5.41,41.44-12.5,61.67-53.34,60.24-87.22-.84-19.92-9.06-33.92-21.44-36.54-8.53-1.8-19.41,.13-30.63,5.46-11.73,5.57-23.3,14.63-32.58,25.52-23.78,27.93-30.52,63.47-18.8,98.18Zm-198.3-225.74c-2.29,.44-9.99,5.25-19.57,15.6-6.31,6.82-17.9,21.01-24.73,39.47-8.5,23-6.86,44.13,4.85,63.04,18.33-2.51,31.69-9.28,38.1-19.7,18.46-30.03,14.65-69.06,7.59-87.97-2.78-7.45-5.37-10-6.24-10.44Z"/>
  </g>
</svg>