<?xml version="1.0" encoding="utf-8"?>
<!-- Generator: Adobe Illustrator 27.0.1, SVG Export Plug-In . SVG Version: 6.00 Build 0)  -->
<svg version="1.1" id="Layer_1" xmlns="http://www.w3.org/2000/svg" xmlns:xlink="http://www.w3.org/1999/xlink" x="0px" y="0px"
	 viewBox="0 0 1705 1080" style="enable-background:new 0 0 1705 1080;" xml:space="preserve">
<style type="text/css">
	.st0{fill:#020002;}
</style>
<path class="st0" d="M1586.47,456.47c-3.88-3.08-7.91-5.99-11.58-9.3c-2.76-2.49-4.7-5.72-1.19-9.03c3.24-3.05,5.64-0.58,8.23,1.63
	c26.21,22.27,63.54,19.66,86.18-6.25c14.29-16.36,18.64-35.07,9.54-55.27c-9.85-21.88-28.54-30.5-51.53-31.47
	c-1.45-0.06-2.92,0.23-4.38,0.27c-3.39,0.08-6.72-0.28-7.24-4.51c-0.59-4.77,3.04-6.02,6.59-6.55c7.63-1.13,15.22,0.03,22.58,1.91
	c29.02,7.42,48.51,30.58,49.54,58.47c1.04,28.08-19.48,55.81-48.21,65.14c-1.66,0.54-3.38,1.5-5.03,1.41
	c-14.35-0.75-19.83,8.74-26.61,19.55c-24.83,39.61-62.31,56.68-108.28,55.68c-34.58-0.76-64.99-12.88-90.56-36.4
	c-3.92-3.6-8.68-4.61-13.29-6.26c-27.13-9.72-47.66-26.62-55.22-55.2c-9.51-35.94,3.23-65.61,31.56-87.54
	c32.6-25.24,68.57-31.02,106.36-10.66c3.49,1.88,6.16,1.75,9.75,0.41c21.79-8.14,47.37-1.23,61.97,16.44
	c2.5,3.02,5.08,6.37,1.22,9.88c-4.4,4-6.73-0.37-9.16-3.02c-23.74-25.88-65.1-18.95-78.74,13.22c-0.45,1.07-0.87,2.15-1.36,3.19
	c-1.35,2.87-2.24,6.43-6.78,4.63c-4.3-1.7-3.23-5.35-2.37-8.21c2.48-8.17,6.29-15.69,12.57-21.72c2.07-1.99,4.17-3.96,6.36-6.03
	c-25.09-15.66-62.1-12.46-89.31,7.33c-28.22,20.52-40.39,51.12-31.02,81.02c8.36,26.69,28.31,41.9,54.55,48
	c30.5,7.09,58.61,1.4,81.83-21.18c5.28-5.13,9.36-11.2,12.18-18.02c1.42-3.43,2.88-7.18,7.36-5.14c4.48,2.04,3.67,5.98,1.92,9.79
	c-7.72,16.81-19.76,29.4-36.4,37.57c-2.07,1.02-4.03,2.24-6.05,3.37c-11.26,8.3-24.59,7.47-37.17,9.16
	c20.47,13.13,42.84,21.28,68.22,21.82c25.69,0.55,49.45-4.31,70.51-19.41c11.75-8.42,21.42-18.93,29.27-31.13
	c3.35-5.21,3.08-8.24-3.54-9.97C1594.77,462.77,1589.28,461.8,1586.47,456.47z"/>
<path class="st0" d="M226.1,467.7c16,0.14,31.29-3.04,45.73-10.1c3.17-1.55,6.8-3.49,9.26,0.6c2.42,4.03-0.53,6.72-3.75,8.46
	c-32.24,17.42-79.77,17.31-108.67-6.27c-30.9-25.2-27.79-66.99,6.04-88.51c3.51-2.23,6.42-3.73,6.05-9.16
	c-3.61-53,35.06-99.7,86.2-113.38c40.62-10.87,78.24-5.87,109.65,24.99c0.63,0.62,1.37,1.16,1.84,1.88
	c8.5,13.2,17.88,25.33,34.17,29.59c1.53,0.4,2.74,2.12,4.02,3.32c2.17,2.03,2.96,4.56,1.16,7.05c-1.86,2.56-4.72,2.5-7.06,0.86
	c-7.28-5.09-15.44-8.08-23.81-10.71c-2.64-0.83-4.26-2.91-5.4-5.4c-11.73-25.7-33.15-38.18-59.67-43.68
	c-54.24-11.24-112.36,23.36-127.22,75.75c-0.95,3.36-2.11,6.77-2.36,10.21c-0.45,6.11-2.55,13.78,0.26,17.97
	c2.81,4.2,10.26-0.64,15.71-1.06c4.95-0.38,9.94-0.26,14.91-0.32c4.53-0.06,8.9,1.24,8.61,6.4c-0.29,5.15-5.04,4.59-8.9,4.39
	c-19.58-1.01-36.96,4.18-51.1,18.32c-18.65,18.65-17.79,44.36,2.24,61.53C188.94,463.27,206.88,467.5,226.1,467.7z"/>
<path class="st0" d="M388.19,434.09c24.08,3.08,45.58-1,66.24-9.95c39.67-17.18,64.8-54.59,64.25-95.13
	c-0.56-41.05-33.66-78.92-75.72-86.8c-8.38-1.57-16.77-2.32-25.29-2.13c-3.98,0.09-9.16,0.95-9.7-4.75
	c-0.63-6.68,5.46-6.27,9.37-6.29c42.68-0.24,77.02,16.37,99.1,53.39c25.95,43.51,13.88,99.42-27.37,133
	c-30.68,24.98-65.89,34.01-104.94,28.83c-5.15-0.68-10.23-1.82-15.32,1.03c-2.7,1.51-5.83,0.96-7.54-2.23
	c-1.97-3.68,0.83-5.61,3.29-6.98c11.43-6.34,21.08-14.57,28.55-25.37c1.67-2.41,3.78-4.7,7.27-2.39c3.15,2.09,2.87,5.06,1.61,7.77
	C399.01,422.5,393.92,427.44,388.19,434.09z"/>
<path class="st0" d="M1181.69,835.8c-19.89,0-39.79,0.05-59.68-0.05c-3.25-0.02-8.16,1.16-7.99-4.08c0.16-4.86,4.95-4.04,8.28-4.04
	c40.08-0.07,80.15-0.07,120.23-0.05c3.45,0,8.2-0.52,8.04,4.27c-0.16,4.69-4.91,3.91-8.34,3.91c-20.18,0.02-40.37,0.01-60.55,0.01
	C1181.69,835.77,1181.69,835.78,1181.69,835.8z"/>
<path class="st0" d="M1330.4,85.86c-4.96,0-9.92-0.02-14.89,0.01c-11.38,0.08-14.27,2.98-14.35,14.68
	c-0.07,9.34,0.23,18.68-0.03,28.02c-0.12,4.1,0.84,10.18-5.35,10.16c-5.53-0.02-4.87-5.7-4.9-9.61c-0.07-11.67-0.22-23.35,0.4-34.99
	c0.59-11.02,8.25-18.33,19.3-18.68c12.54-0.39,25.1-0.13,37.65-0.15c3.72,0,7.7,0.66,7.8,5.06c0.12,5.03-4.03,5.58-8.13,5.52
	C1342.08,85.79,1336.24,85.86,1330.4,85.86z"/>
<path class="st0" d="M617.5,75.34c6.73,0,13.46-0.08,20.19,0.03c3.55,0.06,6.74,1.62,6.63,5.45c-0.11,3.77-3.22,5.13-6.87,5.12
	c-11.7-0.04-23.41,0.15-35.11-0.08c-8.36-0.16-12.59,3.53-12.61,11.93c-0.03,10.82,0,21.65-0.15,32.47
	c-0.05,3.81-0.17,8.38-5.31,8.54c-4.96,0.15-4.94-4.57-5.02-7.81c-0.28-11.69-0.68-23.43,0.06-35.08
	c0.86-13.48,8.96-20.4,22.39-20.59c5.27-0.07,10.53-0.01,15.8-0.01C617.5,75.32,617.5,75.33,617.5,75.34z"/>
<path class="st0" d="M530.76,75.36c5.56,0,11.12-0.18,16.67,0.04c11.86,0.48,19.87,7.93,20.35,19.71
	c0.49,11.97,0.14,23.97,0.16,35.95c0.01,3.71-0.72,7.89-4.88,7.96c-4.91,0.09-5.41-4.56-5.45-8.44
	c-0.13-10.82,0.09-21.64-0.16-32.45c-0.21-9-3.34-12.06-12.23-12.21c-10.52-0.17-21.05-0.05-31.58-0.09
	c-4.05-0.02-9.33,0.6-9.03-5.26c0.27-5.26,5.32-5.26,9.5-5.26c5.56-0.01,11.11,0,16.67,0C530.76,75.33,530.76,75.34,530.76,75.36z"
	/>
<path class="st0" d="M616.82,61.53c-6.13,0-12.27,0.28-18.38-0.06c-11.26-0.64-18.12-6.87-18.85-17.88
	c-0.77-11.63-0.76-23.33-0.82-35c-0.02-3.9,1.11-8.4,5.83-8.28c4.34,0.11,4.72,4.39,4.72,8.06c-0.01,9.34-0.08,18.68,0.01,28.02
	c0.12,12.5,2.55,14.99,14.76,15.05c9.63,0.05,19.27-0.21,28.9-0.13c4.43,0.04,11.19-1.53,11.25,4.82c0.06,6.79-6.91,5.41-11.64,5.58
	c-5.25,0.18-10.51,0.04-15.76,0.04C616.82,61.68,616.82,61.61,616.82,61.53z"/>
<path class="st0" d="M1329.57,61.45c-6.71,0-13.45,0.34-20.13-0.08c-10.21-0.65-17.6-7.43-18.28-17.58
	c-0.8-11.92-0.71-23.91-0.69-35.88c0.01-3.47,0.85-7.75,5.33-7.74c4.56,0.01,5,4.13,5.03,7.75c0.1,10.51,0.09,21.02,0.16,31.53
	c0.06,8.27,4.11,12.16,12.54,11.93c11.09-0.3,22.19-0.23,33.29-0.25c4.17-0.01,9.27,0.05,9.1,5.53c-0.14,4.63-4.9,5.03-8.84,5.04
	c-5.84,0.03-11.68,0.01-17.52,0.01C1329.57,61.62,1329.57,61.54,1329.57,61.45z"/>
<path class="st0" d="M1242.09,61.82c-5.25,0-10.51,0.17-15.75-0.05c-4.16-0.18-10.43,0.84-10.41-4.92
	c0.02-6.26,6.41-5.45,10.96-5.49c8.75-0.09,17.51,0.08,26.26,0.09c13.37,0.02,16.43-2.99,16.55-16.51
	c0.08-9.04-0.09-18.09,0.05-27.13c0.05-3.49,0.28-7.65,5.01-7.81c4.97-0.17,5.14,4.24,5.17,7.59c0.09,11.95,0.3,23.94-0.47,35.85
	c-0.68,10.55-8.35,17.36-18.98,17.93c-6.11,0.33-12.25,0.06-18.37,0.06C1242.09,61.56,1242.09,61.69,1242.09,61.82z"/>
<path class="st0" d="M1242.83,75.38c5.84,0,11.69-0.23,17.51,0.05c10.97,0.53,17.95,7.06,18.91,17.89
	c1.14,12.81,0.79,25.66,0.22,38.49c-0.15,3.43-0.89,6.85-5.01,6.88c-4.37,0.04-4.77-3.84-4.81-7.01c-0.14-10.8,0.2-21.6-0.01-32.4
	c-0.21-10.6-3.13-13.31-13.77-13.41c-10.51-0.09-21.02-0.02-31.53-0.05c-3.9-0.01-8.5-0.13-8.41-5.19c0.08-4.8,4.56-5.32,8.51-5.35
	c6.13-0.05,12.26-0.01,18.39-0.01C1242.83,75.32,1242.83,75.35,1242.83,75.38z"/>
<path class="st0" d="M531.08,61.93c-5.55,0-11.12,0.29-16.64-0.1c-4.03-0.28-10.16,0.9-9.95-5.48c0.19-5.74,5.87-4.49,9.72-4.57
	c8.76-0.17,17.52-0.03,26.29-0.05c14.35-0.04,17.05-2.6,17.22-16.61c0.1-8.76-0.08-17.52,0.06-26.28c0.06-3.87,0.65-8.61,5.5-8.37
	c4.04,0.2,4.66,4.56,4.65,8.26c-0.02,11.39,0.25,22.79-0.11,34.16c-0.33,10.41-7.89,17.92-18.35,18.56
	c-6.11,0.37-12.26,0.07-18.39,0.07C531.08,61.66,531.08,61.79,531.08,61.93z"/>
<path class="st0" d="M1040.39,287.94c3.03,1.98,4.95,2.85,6.37,4.22c37.33,36.06,64.91,78.62,84.16,126.7
	c0.93,2.33,2.41,5.57-1.11,6.7c-2.99,0.96-3.35-2.4-4.2-4.44c-19.64-47.18-47.06-89.15-83.55-125.07c-1.4-1.38-3.43-2.55-3.04-4.96
	C1039.19,289.99,1039.91,288.99,1040.39,287.94z"/>
<path class="st0" d="M688.71,292.79c-1.45,1.54-3.02,3.22-4.6,4.89c-34.78,36.6-62.09,77.93-79.63,125.47
	c-0.4,1.09-0.89,2.15-1.32,3.24c-0.79,2.01-1.86,4.09-4.37,2.93c-1.82-0.84-1.6-3.09-1.02-4.72c2.14-6.04,4.29-12.08,6.77-17.99
	c17.4-41.37,41.51-78.31,73.01-110.36c2.04-2.08,4.25-4.02,6.55-5.83C686.53,288.52,687.68,290.19,688.71,292.79z"/>
<path class="st0" d="M1298.89,744.59c1.46,0,2.92-0.01,4.39,0c20.05,0.14,20.23-0.06,20.05-20.61c-0.05-6.43-0.23-12.87,0.02-19.29
	c0.11-2.9,1.04-6.4,4.34-6.84c3.89-0.53,4.58,3.24,4.82,6.01c1.04,12.22,1.79,24.5-0.52,36.64c-1.33,6.98-6.09,11.53-12.96,12.62
	c-11.87,1.88-23.89,1.95-35.86,0.83c-3.03-0.29-7.45-0.54-7.23-4.68c0.23-4.28,4.34-4.78,8.05-4.75c4.97,0.04,9.94,0.01,14.91,0.01
	C1298.89,744.55,1298.89,744.57,1298.89,744.59z"/>
<path class="st0" d="M1370.9,429.73c0.35-33.07,22.42-61.73,52.85-70.12c2.61-0.72,5.97-3.2,7.52,0.91c1.88,4.99-3.18,4.8-5.68,5.76
	c-29.53,11.38-46.21,32.99-46.91,60.97c-0.21,8.34,1.41,16.18,5.17,23.65c1.15,2.28,2.47,5.3-0.64,6.92
	c-3.35,1.74-4.47-1.43-5.69-3.69C1373.15,446.02,1371.59,437.19,1370.9,429.73z"/>
<path class="st0" d="M1300.2,765.51c4.39,0,8.78-0.09,13.17,0.02c12.34,0.3,18.84,5.65,19.72,17.62c0.73,9.89,0.35,19.88,0.17,29.82
	c-0.06,3.47-0.91,8.16-4.81,8.25c-4.94,0.11-4.96-4.86-5.01-8.63c-0.09-8.19,0.22-16.39,0.04-24.57
	c-0.23-11.05-2.67-13.37-13.5-13.44c-9.07-0.05-18.14,0.04-27.21-0.04c-2.94-0.03-6.57-0.24-6.41-4.11
	c0.13-3.13,3.02-4.82,6.28-4.86c5.85-0.07,11.7-0.02,17.55-0.02C1300.2,765.53,1300.2,765.52,1300.2,765.51z"/>
<path class="st0" d="M1342.28,720.92c0-5.56-0.11-11.12,0.04-16.68c0.08-3.07,1.25-6.28,4.75-6.03c2.72,0.2,4.07,2.98,4.1,5.95
	c0.06,8.78,0.12,17.56,0.25,26.33c0.18,11.39,2.74,13.99,13.83,14.04c9.07,0.04,18.15,0.13,27.22-0.04c3.38-0.06,6.43,1.07,6.7,4.17
	c0.29,3.24-2.86,4.84-6.01,5.07c-12.56,0.95-25.21,1.75-37.63-0.57c-8.44-1.58-12.59-8.06-13.15-16.46
	c-0.35-5.24-0.07-10.53-0.07-15.8C1342.31,720.92,1342.29,720.92,1342.28,720.92z"/>
<path class="st0" d="M273.95,648.33c-5.26,0-10.52,0.09-15.78-0.04c-2.66-0.06-5.7-0.49-5.84-3.86c-0.12-2.91,2.15-5.17,4.93-5.15
	c12.81,0.06,25.72-1.65,38.4,1.31c5.97,1.39,9.51,5.58,10.52,11.57c1.97,11.6,1.19,23.3,0.63,34.96c-0.14,2.85-1.01,6.4-4.79,6.12
	c-3.75-0.28-3.98-4.01-4.08-6.8c-0.28-8.17-0.09-16.36-0.25-24.54c-0.23-11.7-2.15-13.45-14.1-13.34c-3.21,0.03-6.43,0-9.65,0
	C273.95,648.49,273.95,648.41,273.95,648.33z"/>
<path class="st0" d="M1375.78,765.48c5.84,0,11.68-0.02,17.51,0.01c2.9,0.01,5.6,1.04,5.62,4.21c0.02,3.6-2.78,4.7-6.08,4.69
	c-9.34-0.02-18.69-0.06-28.03,0.05c-10.48,0.12-12.79,2.34-13.05,12.9c-0.22,8.75-0.02,17.52-0.17,26.28
	c-0.06,3.53-0.4,7.9-5.03,7.65c-3.77-0.21-4.26-4.09-4.24-7.5c0.05-10.22-0.21-20.45,0.08-30.66c0.31-10.73,6.94-17.25,17.62-17.7
	c5.25-0.22,10.51-0.04,15.77-0.04C1375.78,765.41,1375.78,765.44,1375.78,765.48z"/>
<path class="st0" d="M275.11,628.69c-5.26-0.03-10.52,0.08-15.77-0.15c-3.58-0.15-7.8-0.99-7.57-5.36c0.21-4.03,4.38-3.92,7.61-3.91
	c9.05,0.03,18.11-0.09,27.16,0.25c7.32,0.27,10.9-2.72,10.89-10.17c-0.02-8.46,0.07-16.93,0.43-25.38c0.15-3.47,0.83-7.91,5.22-7.79
	c4.06,0.11,4.06,4.59,4.08,7.61c0.07,9.33,0.15,18.71-0.61,28c-0.94,11.44-6.68,16.36-18.3,16.77c-4.37,0.15-8.76-0.03-13.14-0.05
	C275.11,628.56,275.11,628.63,275.11,628.69z"/>
<path class="st0" d="M346.76,629.07c-23.25,1.03-32.75,0.01-31.86-32.13c0.13-4.66-0.16-9.36,0.3-13.98
	c0.3-3.01,0.68-7.09,5.07-6.76c3.66,0.28,3.97,3.82,4.05,6.74c0.23,8.45,0.48,16.91,0.35,25.36c-0.13,8.15,3.69,11.68,11.69,11.54
	c8.74-0.15,17.49,0.09,26.24,0.04c3.44-0.02,7.4,0.52,7.56,4.19c0.19,4.31-4.05,5.01-7.66,5.07
	C357.25,629.22,352.01,629.1,346.76,629.07z"/>
<path class="st0" d="M347.82,639.13c4.96,0,9.93-0.04,14.89,0.01c3.36,0.04,7.17,0.69,7.26,4.58c0.09,4-3.61,4.65-7.08,4.64
	c-8.76-0.03-17.52-0.11-26.28,0.04c-10.16,0.18-12.21,2.2-12.43,12.46c-0.18,8.46,0.03,16.93-0.01,25.4
	c-0.02,3.4-0.84,7.03-4.89,6.87c-3.34-0.13-4.35-3.62-4.38-6.61c-0.1-10.22-0.47-20.47,0.19-30.64c0.68-10.47,7.91-16.48,18.7-16.74
	C338.48,639.04,343.15,639.13,347.82,639.13z"/>
<path class="st0" d="M1594.36,860.93c6.86-13.88,16.06-18.13,31.25-14.26c2.09,0.53,5.08,0.72,4.93,3.92
	c-0.16,3.3-2.74,4.16-5.56,4.37c-1.16,0.09-2.36,0.16-3.51,0c-10.92-1.53-19.59,0.16-21.34,13.48c-0.35,2.7-2.39,5.82-5.77,5.77
	c-3.24-0.05-5.02-2.75-5.93-5.67c-4.91-15.7-3.93-13.31-20.33-13.63c-3.96-0.08-10.74,2.42-10.93-3.37
	c-0.19-5.79,6.69-4.9,11.13-5.03C1586.35,846.01,1587.26,846.58,1594.36,860.93z"/>
<path class="st0" d="M95.45,797.13c4.96,0,9.93-0.13,14.89,0.05c2.58,0.09,5.81,0.41,5.99,3.73c0.19,3.72-3.01,4.79-6.03,4.85
	c-8.17,0.15-16.36-0.06-24.53,0c-10,0.08-11.59,1.68-11.69,11.87c-0.08,7.59,0.01,15.19,0.12,22.78c0.05,3.44-0.39,7.21-4.35,7.28
	c-3.15,0.05-4.47-3.41-4.49-6.52c-0.06-9.93-0.48-19.89,0.2-29.77c0.6-8.64,6.89-13.83,15.88-14.32c4.66-0.25,9.34-0.04,14.01-0.04
	C95.45,797.07,95.45,797.1,95.45,797.13z"/>
<path class="st0" d="M1594.52,823.02c-7.85,14.1-17.37,18.2-33.79,14.36c-2.12-0.5-5.15-0.77-5.29-3.62
	c-0.14-2.9,2.71-3.64,4.95-3.92c3.74-0.46,7.63-1.03,11.29-0.47c8.71,1.33,13.79-1.96,16.01-10.44c0.94-3.59,2.05-7.79,7.02-7.62
	c4.88,0.17,6.03,4.56,6.77,8.01c1.68,7.89,6.34,10.42,13.84,9.6c2.88-0.31,5.85,0.22,8.74-0.03c3.64-0.31,7.27,0.81,7.56,4.18
	c0.27,3.11-3.72,3.9-6.59,4.38C1608.84,840.12,1602.56,837.13,1594.52,823.02z"/>
<path class="st0" d="M96.67,777.8c4.68,0,9.36-0.02,14.05,0.01c2.91,0.02,5.4,1,5.63,4.22c0.21,2.99-2.6,4.13-4.7,4.26
	c-11.65,0.74-23.43,1.66-34.92-0.78c-6.84-1.45-10.94-6.78-11.28-13.96c-0.4-8.47-0.32-16.97-0.26-25.45
	c0.02-3.24,0.38-7.17,4.72-6.93c3.54,0.2,4.04,3.72,4.07,6.76c0.05,6.44-0.05,12.87,0.02,19.31c0.11,10.59,2.17,12.56,13.03,12.63
	c3.22,0.02,6.44,0,9.66,0C96.67,777.84,96.67,777.82,96.67,777.8z"/>
<path class="st0" d="M29.81,796.89c25.33,0.22,27.78,2.64,28.08,28.09c0.07,6.11,0.62,12.25-0.92,18.3
	c-0.6,2.35-1.17,4.88-4.21,4.56c-2.83-0.3-3.54-2.8-3.58-5.21c-0.13-7.87-0.04-15.75-0.17-23.62c-0.18-11.36-2.08-13.25-13.21-13.28
	c-6.42-0.01-12.84,0.18-19.25,0.13c-3.26-0.02-7.19-0.34-7.13-4.53c0.06-4.2,4.04-4.32,7.27-4.4
	C21.05,796.8,25.43,796.89,29.81,796.89z"/>
<path class="st0" d="M29.35,786.69c-3.8,0-7.6,0.06-11.4-0.02c-3.72-0.08-8.9,0.36-8.68-4.64c0.22-5.01,5.53-4.02,9.17-4.09
	c6.72-0.12,13.46-0.31,20.17,0.06c7.19,0.4,10.24-3.05,10.35-9.77c0.12-7.6,0.09-15.2,0.15-22.8c0.03-3.11,0.58-6.27,4.44-6.27
	c3.8,0,3.31,3.56,3.56,5.96c0.9,8.74,0.89,17.51-0.03,26.25c-1.13,10.67-5.72,14.97-16.33,15.37c-3.79,0.14-7.6,0.02-11.4,0.02
	C29.35,786.74,29.35,786.71,29.35,786.69z"/>
<path class="st0" d="M1218.51,329.41c8.51-13.68,16.39-17.08,31.12-13.39c2.28,0.57,5,1.07,4.59,4.13c-0.3,2.26-2.58,2.99-4.71,3.15
	c-1.74,0.13-3.54,0.32-5.24,0.03c-10.25-1.7-17.01,1.55-19.09,12.5c-0.59,3.09-2.11,6.45-6.17,6.29c-3.88-0.16-5.77-3.61-6.25-6.51
	c-1.93-11.56-9.05-13.85-19.13-11.77c-0.85,0.18-1.77,0.22-2.62,0.11c-2.79-0.36-6.79,0.21-7.13-3.4c-0.34-3.51,3.46-4.08,6.28-4.61
	C1206.39,312.91,1213.83,316.45,1218.51,329.41z"/>
<path class="st0" d="M1456.18,212.74c0,4.95,0.06,9.91-0.02,14.86c-0.05,3.21,0.04,7.24-4.2,7.36c-4.53,0.13-4.12-3.98-4.14-7.16
	c-0.04-7.58-0.33-15.17,0.09-22.73c0.3-5.48-1.08-7.76-7.08-7.38c-7.54,0.48-15.15,0.03-22.72-0.25c-2.24-0.08-5.15-0.44-5.41-3.37
	c-0.31-3.6,3-4.22,5.41-4.27c10.78-0.23,21.57-0.15,32.35-0.05c4.04,0.04,5.56,2.73,5.61,6.37c0.08,5.54,0.02,11.07,0.02,16.61
	C1456.13,212.74,1456.15,212.74,1456.18,212.74z"/>
<path class="st0" d="M1219.25,290.43c-5.17,15.31-22.12,22.05-33.69,16.16c-1.28-0.65-2.73-1.34-2.78-3.01
	c-0.06-2.1,1.51-2.93,3.26-3.47c4.31-1.33,8.71-0.79,13.04-0.36c6.51,0.66,10.76-1.43,11.94-8.3c0.24-1.41,0.91-2.76,1.5-4.09
	c1.22-2.77,2.93-5.32,6.18-5.53c3.42-0.21,5.56,2.29,6.14,5.23c2.4,12.23,10.74,13.6,20.99,12.14c3.51-0.5,8.12-0.58,8.48,3.77
	c0.4,4.94-4.54,4.27-7.84,4.39C1234.85,307.81,1222.88,308.74,1219.25,290.43z"/>
<path class="st0" d="M594.96,654.46c-36.82,0-73.63,0-110.45,0c-0.01-0.59-0.02-1.18-0.02-1.77c36.81,0,73.62,0,110.43,0
	C594.94,653.28,594.95,653.87,594.96,654.46z"/>
<path class="st0" d="M1239.27,654.29c-35.82,0-71.64,0-107.47,0c0-0.63,0-1.26,0-1.89c35.78,0,71.56,0,107.34,0
	C1239.19,653.03,1239.23,653.66,1239.27,654.29z"/>
<path class="st0" d="M205.91,344.28c2.07-12.35,6.92-23.96,15.28-33.99c1.84-2.21,4.25-4.98,7.23-2.47c3.14,2.64,0.3,5.13-1.47,7.33
	c-7.24,8.99-11.96,19-13.45,30.59c-0.31,2.44,1.4,7.53-4.14,6.73C204.87,351.83,206.04,347.83,205.91,344.28z"/>
<path class="st0" d="M257.93,831.97c-19,0-38.01,0-57.01,0c-0.01-0.88-0.02-1.76-0.03-2.64c18.97-0.93,37.95-0.52,56.94-0.03
	C257.87,830.18,257.9,831.08,257.93,831.97z"/>
<path class="st0" d="M1694.74,773.72c-15.9,0-31.8,0-47.7,0c-0.01-0.6-0.03-1.19-0.04-1.79c15.91,0,31.81,0,47.72,0
	C1694.72,772.52,1694.73,773.12,1694.74,773.72z"/>
<path class="st0" d="M1583.6,1068.33c-14.64-0.01-29.32-0.51-43.89,0.48c-8.75,0.59-11.73-2.03-13.11-10.63
	c-5.1-31.87-32.24-57.17-64.77-60.76c-5.03-0.56-5.33-3.5-6.35-6.67c-7.19-22.35-19.96-41.02-38.47-55.25
	c-46.33-35.61-98.09-40.79-152.77-24.96c-35.93,10.4-65.51,31.41-91.24,58.83c-1.16-1.36-2.04-2.5-3.04-3.53
	c-49.35-50.88-134.69-45.58-177.32,11.2c-3.22,4.29-6.61,5.02-11.21,4.21c-15.88-2.79-31.53-1.02-46.85,3.26
	c-33.26,9.3-56.81,30.02-70.77,61.84c-0.79-1.25-1.49-2.18-2.02-3.21c-23.34-44.83-66.8-67.96-117.33-62.05
	c-4.71,0.55-6.15-2.07-8.29-4.74c-38.02-47.47-101.7-59.64-154.46-29.39c-5.77,3.31-11.53,10.72-16.57,10.12
	c-5.8-0.69-10.69-8.3-16.15-12.69c-27.36-21.98-57.56-38.19-92.99-41.53c-67.66-6.37-121.4,33.21-136.72,88.36
	c-0.86,3.09-2.02,4.5-5.81,4.76c-39.25,2.69-66.51,26.58-73.56,65.18c-1.24,6.78-3.76,7.54-9.38,7.41
	c-14.63-0.34-29.27-0.23-43.91-0.23c-2.61,0-5.25,0.21-7.83,0.6c-3.27,0.5-5.55,2.68-5.44,5.88c0.11,3.29,2.66,4.99,6,5.12
	c1.75,0.07,3.51,0.03,5.27,0.03c294.19-0.05,588.38-0.12,882.57-0.14c172.12-0.01,344.25,0.08,516.37,0.11
	c4.56,0,10.83,1.18,11.14-5.23C1595.04,1067.55,1588.47,1068.33,1583.6,1068.33z M428.2,1068.75c-28.39-0.26-56.78-0.12-85.18-0.12
	c0-0.1,0-0.21,0-0.31c-28.68,0-57.37-0.13-86.05,0.11c-5.93,0.05-7.13-1-5.79-7.29c5.28-24.72,27.82-53.02,60.91-53.93
	c14.79-0.41,14.77-1.29,18.64-15.61c10.3-38.03,50.36-71.35,91.85-76.66c51.77-6.63,93.33,14.47,130.45,47.73
	c1.46,1.31,3.52,2.78,2.28,5.11c-1.41,2.65-4.21,1.49-6.34,1.41c-26.55-0.99-51.03,5.22-72.43,21.36
	c-23.6,17.79-37.64,41.33-40.01,71C436.02,1068.03,433.77,1068.8,428.2,1068.75z M753.84,1068.57
	c-99.79-0.08-199.57-0.21-299.36-0.15c-5.19,0-6.95-0.66-6.6-6.56c2.11-35.81,31.78-69.66,69.66-78.43
	c11.11-2.57,22.4-4.64,33.84-2.11c6.76,1.5,10.09-3.12,13.98-7.04c31.23-31.51,77.03-41.04,117.96-24.51
	c19.48,7.87,35.38,20.36,47.05,37.85c3.46,5.19,6.91,6.24,13.1,5.09c47.94-8.88,105.43,22.79,113.55,75.85
	C822.27,1068.57,788.06,1068.59,753.84,1068.57z M1298.45,1068.44c-70.55-0.16-141.09-0.12-211.64-0.11
	c-69.08,0.01-138.17,0.01-207.25,0.01c-10.51,0-10.51,0.01-7.86-9.64c12.71-46.21,68.04-77.52,114.3-64.35
	c6.06,1.73,8.58-1.12,11.42-5.12c17.35-24.41,40.42-40.5,70.11-45.31c37.05-6.01,69.66,3.77,95.6,31.56
	c5.85,6.27,10.93,7.55,18.93,5.55c54.46-13.65,109.7,20.59,120.8,74.53c0.53,2.56,0.45,5.23,0.88,7.82
	C1304.49,1067.81,1302.61,1068.45,1298.45,1068.44z M1510.16,1068.6c-62.34-0.32-124.69-0.27-187.03-0.15
	c-5.47,0.01-8.14-0.77-8.75-7.27c-4.22-45.07-39.86-83.25-84.77-91.98c-12.39-2.41-24.85-1.57-38.74-1.9
	c33.71-31.19,71.16-51.09,115.99-53.22c50.56-2.4,94.85,11.38,125.73,54.81c6.29,8.85,10.94,18.72,13.01,29.38
	c1.4,7.24,5.25,9.25,12.01,9.77c28.99,2.23,53.1,24.44,58.58,53.15C1517.24,1066.58,1516.72,1068.63,1510.16,1068.6z"/>
<path class="st0" d="M577.31,797.5c-11.93,0.31-21.28,10.07-21.3,22.25c-0.01,11.69,10.12,21.43,22.13,21.28
	c11.75-0.15,21.33-10.17,21.23-22.19C599.28,806.97,589.17,797.2,577.31,797.5z M577.31,832.61c-7.28-0.17-13-6.44-12.64-13.86
	c0.34-7.15,5.99-12.62,13.01-12.61c7.56,0,13.02,5.69,12.87,13.4C590.4,827.2,584.75,832.78,577.31,832.61z"/>
<path class="st0" d="M1015.04,159.02c-12.17,0.23-21.05,9.8-20.67,22.28c0.33,11.06,10.08,20.01,21.42,19.66
	c11.72-0.36,21.1-9.95,20.92-21.4C1036.53,168.1,1026.73,158.81,1015.04,159.02z M1015.06,192.84c-7-0.28-12.1-6.09-11.81-13.46
	c0.28-7.09,5.16-11.44,12.65-11.28c7.11,0.15,12.16,5.22,12.01,12.06C1027.74,187.11,1021.67,193.1,1015.06,192.84z"/>
<path class="st0" d="M124.54,602.23c-10.95-0.02-19.29,8.32-19.25,19.27c0.04,11.01,8.22,19.24,19.23,19.33
	c10.37,0.09,19.33-8.83,19.5-19.42C144.19,610.77,135.55,602.26,124.54,602.23z M135.18,621.82c-0.21,5.78-4.96,10.39-12.01,10.36
	c-5.07-0.49-8.86-3.6-8.89-10.35c-0.02-6.53,3.12-10.4,9.78-10.78C130.13,610.69,135.39,615.93,135.18,621.82z"/>
<path class="st0" d="M1457.22,644.76c-8.63,0.01-16.33,7.38-16.55,15.83c-0.23,8.8,7.79,16.98,16.48,16.8
	c8.3-0.17,16.14-8.15,16.16-16.45C1473.34,652.19,1465.93,644.74,1457.22,644.76z M1456.94,668.86c-4.69-0.17-7.52-2.67-7.44-7.65
	c0.09-5.21,2.78-7.98,8.04-8.09c5.14-0.11,6.81,3.32,7.91,6.95C1464.32,665.31,1462.37,669.06,1456.94,668.86z"/>
<path class="st0" d="M1258.01,467.69c-7.31,0.22-13.03,6.34-12.84,13.73c0.19,7.44,6.22,13.12,13.62,12.85
	c6.94-0.26,13.37-6.95,13.2-13.72C1271.81,473.62,1265.12,467.47,1258.01,467.69z M1263.32,480.97c-0.16,3.44-2.06,5.18-5.45,5.35
	c-3.05-0.36-5.05-2.08-4.54-5.07c0.49-2.88,2.18-5.49,5.7-5.47C1262.33,475.81,1263.46,477.99,1263.32,480.97z"/>
<path class="st0" d="M374.77,762.37c-6.99-0.11-12.95,6.42-12.66,13.86c0.25,6.63,6.11,12.21,12.53,11.94
	c6.6-0.28,12.48-6.65,12.34-13.39C386.84,768.13,381.27,762.47,374.77,762.37z M379.29,776.08c-0.11,2.7-2.15,3.8-4.73,3.85
	c-3.11,0.05-5.13-1.7-4.76-4.58c0.32-2.52,2.18-4.63,5.47-4.66C378.27,771.09,379.4,773.38,379.29,776.08z"/>
<path class="st0" d="M1106.43,650.31c-6.9-10.83-7.08-23.35-9.72-35.09c-22.48-100.1-64.88-190.1-133.63-266.97
	c-1.99-2.23-3.44-4.3-3.75-7.53c-3.39-34.89-8.28-69.51-17.47-103.44c-13.1-48.4-32.93-93.46-64.99-132.53
	c-10.16-12.38-16.26-12.22-26.46,0.3c-12.76,15.67-24.05,32.3-33.52,50.18c-26.15,49.37-40.75,102.28-47.08,157.46
	c-2.33,20.34-7.78,37.37-21.66,54c-60.58,72.59-97.89,156.88-119.02,248.67c-2.48,10.77-3.27,22.03-7.81,32.2
	c-4.4,9.86-2.88,14,7.59,15.97c13.77,2.58,27.59,4.84,41.38,7.29c16.46,2.91,32.91,5.88,49.71,8.88
	c-4.33,7.05-8.45,13.09-11.9,19.49c-35.07,65.16-33.16,130.82-2.25,196.73c2.08,4.43,3.36,11.47,10.19,10.06
	c7.49-1.55,4.34-8.63,4.37-13.34c0.28-38.36,5.11-75.73,22.8-110.46c10.35-20.31,23.99-37.99,42.05-52.08
	c2.8-2.19,6.37-4.75,9.52-2.66c3.13,2.07,0.79,5.84-0.15,8.82c-6.1,19.26-9.8,39.03-11.94,59.06c-3.22,30.12-2.61,60.11,4.44,89.76
	c0.82,3.43,1.26,8.19,4.86,8.59c6.24,0.69,5.36,4.7,5.78,8.55c1.4,12.82,4.57,25.23,9.31,37.19c1.45,3.67,3.09,8.28,8.02,8.24
	c4.23-0.03,6.22-3.76,8.06-7.2c2.35-4.38,4.91-8.65,8.31-14.59c4.24,21.92,9.99,41.42,18.05,60.13c2.58,5.99,3.13,15.19,12.28,14.97
	c8.36-0.2,9.04-8.84,11.8-14.59c9.24-19.32,15.07-39.84,20.3-62.3c3.07,5.93,5.22,10.28,7.56,14.54c2.23,4.05,4.1,9.47,9.55,9.05
	c5.47-0.42,6.54-6.04,8.01-10.42c4.2-12.5,6.2-25.48,8.33-38.44c0.28-1.72-0.71-4.97,2.29-4.71c8.49,0.74,8.54-6.01,9.61-10.97
	c6.49-30.29,7.53-60.84,3.59-91.57c-2.56-19.99-6.06-39.78-12.99-58.81c-2.26-6.21,1.61-6.45,5.77-5.54
	c2.15,0.47,4.13,2.07,5.98,3.45c18.89,14.04,33.24,31.94,43.81,52.81c17.96,35.46,24.31,73.4,23.24,112.83
	c-0.1,3.73-1.04,8.25,3.95,9.44c4.31,1.02,6.06-2.81,7.63-5.91c25.75-51.12,32.74-104.18,16.25-159.6
	c-6.52-21.91-16.66-42.11-30.21-61.55c12.32-2.25,23.23-4.23,34.14-6.23c18.96-3.48,37.92-6.9,56.86-10.48
	C1105.2,660.43,1109.6,655.27,1106.43,650.31z M863.89,106.77c15.32,17.73,27.4,36.84,37.91,57.02c1.86,3.56,1.8,5.17-2.85,5.15
	c-24.78-0.1-49.56-0.05-75.93-0.05C834.24,145.3,847.79,125.59,863.89,106.77z M800.11,224.74c5.1-12.69,9.86-25.54,14.45-38.43
	c1.58-4.44,3.76-6.45,8.81-6.39c26.63,0.31,53.27,0.31,79.91,0.25c4.58-0.01,7.34,1.07,9.18,5.89c4.98,13.06,9.78,26.16,14.13,39.46
	c1.98,6.06-0.3,6.12-4.95,6.09c-19.61-0.14-39.23-0.06-58.84-0.06c0-0.02,0-0.03,0-0.05c-19.32,0-38.64-0.2-57.96,0.12
	C798.81,231.72,797.93,230.17,800.11,224.74z M785.16,285.17c3.03-11.84,5.18-23.9,7.68-35.87c0.99-4.73,2.99-6.99,8.68-6.95
	c40.93,0.32,81.87,0.28,122.81,0.01c5.52-0.04,7.73,1.74,8.77,6.94c2.45,12.27,5.14,24.5,8.16,36.64c1.47,5.91-0.7,6.85-6.04,6.8
	c-24.27-0.24-48.54-0.1-72.81-0.1c0,0.04,0,0.07,0,0.11c-23.69,0-47.37-0.23-71.05,0.15C784.83,293.01,783.54,291.48,785.16,285.17z
	 M731.33,407.38c9.56-14.92,20.92-28.47,32.58-43.6c0,7.05,0.23,12.69-0.03,18.32c-3.01,65.11-2.62,130.2,0.98,195.27
	c0.24,4.37-0.31,6.99-4.64,8.81c-17.97,7.54-35.83,15.35-53.73,23.06c-23.04,10.44-46.07,20.88-70.79,32.08
	C651.49,555.68,682.47,477.91,731.33,407.38z M639.49,653.42c-0.25-0.04-0.45-0.36-1.4-1.17c42.76-18.88,85.14-37.6,127.94-56.5
	c3.52,25.81,5.44,51.46,10.5,76.68c0.47,2.34,1.35,5.45-3.51,4.59C728.52,669.07,684,661.28,639.49,653.42z M770.38,728.58
	c-31.28,25.89-46.93,61.66-55.07,100.85c-2.97,14.29-5.11,28.71-6.31,43.48c-6.97-13.56-10.22-28.2-12.46-43.04
	c-6.96-45.94-0.41-89.47,23.71-129.79c10.72-17.92,10.6-18.02,30.89-15.34c7.23,0.95,14.4,2.5,21.65,3.06
	c5.1,0.39,6.42,2.44,8.37,7.3C787.12,709.93,782.82,718.28,770.38,728.58z M797.91,877.65c-9.27-48.67-6.45-96.13,8.76-142.75
	c1.4-4.31,3.3-6.58,8.56-6.37c12.27,0.48,24.59,0.28,36.87-0.04c4.59-0.12,6.01,1.32,5.99,5.91c-0.11,28.39,0.06,56.78,0.11,85.17
	c0.01,6.26-2.46,11.97-4.22,17.8c-4.53,15.02-9.24,29.98-14.4,46.66c-6.07-16.19-9.39-31.11-13.22-45.87
	c-0.86-3.3-0.75-7.41-5.57-7.66c-4.81-0.24-5.25,4.06-6.52,7.08C808.7,850.89,803.35,864.28,797.91,877.65z M909.4,929.98
	c-4.79-8.22-9.32-16.32-14.22-24.19c-1.44-2.31-3.22-5.66-6.69-4.6c-2.87,0.88-2.63,4.14-2.99,6.74
	c-3.72,27.06-12.28,52.66-23.77,78.88c-9.25-22.2-16.25-43.84-20.02-66.49c-0.77-4.61-1.23-9.27-2.08-13.85
	c-0.41-2.19-0.49-5.06-3.21-5.74c-3.18-0.81-4.66,1.91-6.04,4.06c-5.18,8.07-7.72,17.58-14.17,26.14
	c-10.17-25.91-12.98-50.72,3.29-74.57c3.72,11.15,7.36,22.36,11.22,33.49c1.6,4.6,4.31,8.88,9.72,8.81
	c5.38-0.07,6.78-5.13,8.16-9.15c5.17-15.14,10.03-30.39,15.22-46.27c4.41,13.36,8.62,26.22,12.9,39.06
	c1.01,3.03,2.16,6.02,3.43,8.95c1.47,3.37,3.7,6.1,7.74,6.16c4.24,0.06,6.21-3.2,7.53-6.4c4.67-11.3,7.54-23.17,10.41-35.21
	C919.75,876.23,919.52,896.19,909.4,929.98z M933.79,829.05c-0.17,16.07-1.1,32.1-5.19,49.57c-5.78-14.15-10.83-26.74-16.08-39.25
	c-1.51-3.6-2.14-8.79-7.34-8.62c-5.66,0.18-4.83,5.52-5.78,9.29c-3.38,13.52-6.28,27.16-11.26,41.05
	c-3.98-6.55-4.97-13.69-7.57-20.18c-10.06-25.09-12.59-51.2-11.26-78.03c0.78-15.74,0.19-31.56-0.16-47.33
	c-0.11-5.12,0.99-7.22,6.68-7c11.09,0.43,22.22,0.37,33.31-0.14c5.6-0.26,8.24,1.63,9.98,6.9C929.2,765.75,934.12,797,933.79,829.05
	z M929.48,712.15c-0.9,3.89-2.61,5.14-6.57,5.12c-39.8-0.16-79.6-0.21-119.39-0.07c-4.38,0.02-6.33-1.6-7.24-5.62
	c-9.8-43.05-16.59-86.53-19.55-130.61c-4.41-65.47-4.89-130.97-1.58-196.48c1.21-23.94,3.63-47.81,5.27-71.73
	c0.48-7.08,3.13-9.29,10.69-9.23c47.11,0.41,94.23,0.5,141.34-0.21c9.71-0.15,11.93,3.03,12.91,11.75
	c5.73,51.26,6.37,102.72,7.01,136.3c0.56,77.61-1.83,137.17-10.66,196.33C938.48,669.33,934.41,690.82,929.48,712.15z
	 M1023.42,863.55c-0.52,1.66-1.3,3.24-2.02,4.83c-0.22,0.48-0.63,0.88-1.67,2.27c-3.99-48.11-16.72-91.91-48.71-128.35
	c-7.74-8.82-16.38-16.71-26.28-23.02c-3.83-2.44-4.7-4.61-3.59-9.21c4.89-20.32,4.67-20.39,24.76-24.06
	c6.02-1.1,12.3-1.37,18.03-3.3c7.49-2.52,11.77,0,15.81,6.17C1035.35,743.39,1042.72,801.65,1023.42,863.55z M948.81,677.79
	c3.7-27.81,7.27-54.6,10.88-81.77c42.65,18.51,84.8,36.81,129.27,56.11C1041.07,660.9,995.47,669.25,948.81,677.79z M1015.66,607.37
	c-16.93-7.02-33.81-14.17-50.83-20.97c-4.43-1.77-4.16-4.88-4.01-8.45c0.73-17.22,1.61-34.43,2.06-51.65
	c1.31-50.25,0.72-100.49-1.44-150.71c-0.16-3.69-0.02-7.39-0.02-13.13c12.64,16.37,24.98,30.49,34.56,46.71
	c33.43,47.91,58.22,100.01,75.68,155.68c7.07,22.53,11.76,45.66,17.44,68.54c0.41,1.64,0.28,3.42,0.52,6.95
	C1064.2,629.01,1039.93,618.19,1015.66,607.37z"/>
</svg>
