	<svg xmlns="http://www.w3.org/2000/svg" width="509.324" height="641.142" viewBox="0 0 509.324 641.142">
		<path id="path1" data-name="Path 43687" d="M189.9,210.017s12.063,31.655,27.316,38.918,44.372,7.208,53.284-4.824c6.712-9.062,2.348,8.363,1.937,18.987-.977,25.262,4.623,16.644,34.1,9.687,0,0,3.534-3.682-1.55-6.588-1.268-.724-12.209-11.059-13.95-12.787-2.282-2.267,6.98,6.455,9.118,8.862a15.914,15.914,0,0,0,8.215,5.184c12.347,2.9-2.906-21.064,5.084-18.885s25.422-7.991,29.78-21.064-1.453-26.873-1.453-27.6,6.537,1.453,9.442-4.358-5.811-10.169-5.811-10.169,8.716-22.517,14.527-42.854,5.084-23.968,2.179-20.337-32.685,77.717-32.685,77.717,10-5.62,8.716-13.8c-1.418-9.007-7.886-2.45-18.158,5.811-12.152,9.774-19.791,36.725-38.642,43.668-12.88,4.744,16.793,32.848,25.187,37.2,1.935,1-62.81,33.169-89.684,36.8s-23.243-21.063-23.243-51.569S195.23,192.8,163.83,180.3c-39.957-15.907-10.889-37.651-29.78-80.623-22.417-51-29.78-77.718-6.537-56.654s45.76,79.9,3.632,80.623S65.774,91.684,70.859,89.506s-7.268,9.443-13.8-10.168,26.724,7.821,24.7-5.811c-1.49-10.035,66.1-9.182,44.984-64.625-8.174-21.46,13.849,9.428-21.015-4.372S43.99,19.783,27.284,50.289,57.79,135.27,57.79,135.27l47.64,12.36,23.638,18.209L134.88,151.5l2.712,18.216s11.142,17.785,27.125,46.112,21.642,176.561,21.642,176.561-23.242-135.824-33.411-157.614-29.054-67.549-63.191-76.265-37.769-15.979-37.769-15.979-5.084,23.243,0,26.875S85.4,165.05,85.4,165.05l-11.621,7.263s14.526,13.8,42.853,36.317,54.475,146.719,67.549,196.836-17.432,10.9-23.969,10.169-50.117-22.517-65.37-49.391S65.066,356.076,83.22,348.812s-18.884-143.089-52.3-152.53-34.142,7.989-24.7,59.559S20.746,403.285,77.4,425.8s68.276,55.928,73.36,29.78,2.179-43.585,18.158-31.959,21.789,2.911,29.053,10.9-9.442,10.9,7.99,15.979,46.48-2.19,37.042,10.158-45.759,6.533-61.738-.726-1.452,5.089-9.442,38.5S175.566,601,175.566,601l206.167-.151,3.632-162.7s54.476-123.474,58.107-124.2,49.39-2.9,49.39-2.9L449.913,415.777s-7.168,2.762-33.316,4.941-89.34,17.431-86.434,9.442,27.6-98.78,30.506-103.865,49.819-8.167,57.082-8.167,13.563.388,13.563.388L382.46,435.971l-75.145,13.518,20.67-67.993,154.709-23.243L328.628,377.027l25.187-78.274,86.025-1.511,5.085-15.25h10.169l-6.537,15.979,59.559-2.9-24,68.065-20.307,57.591L390.45,435.249l-4.358,165.6s64.27-9.524,104.282,39.632" transform="translate(-0.23 0.03)" fill="none" stroke="#333" stroke-miterlimit="10" stroke-width="2"/>
	</svg>