						<svg xmlns="http://www.w3.org/2000/svg" width="597.737" height="452.003" viewBox="0 0 597.737 452.003">
							<path id="servicesWord3" data-name="Path 38103" d="M23.38,272.33S22.4,345.021,21.874,435.2a13.284,13.284,0,0,0,13.25,13.335c123.661.132,247.447,2.03,370.2,1.864a10.455,10.455,0,0,0,10.424-9.958c1.973-92.491,3.822-196.686,2.1-291.173A9.594,9.594,0,0,0,408.3,139.9c-119.089.2-252.649,4.917-375.162,8.259a1.111,1.111,0,0,0-.18.021c-8.975,1.882-6.349,14.464-6.349,22.288a5.634,5.634,0,0,0,5.545,5.768c106.453-.585,292.284-4.576,385.755-9.47,2.58-.135-15.165-5.78-27.952-4.9a3.3,3.3,0,0,1-3.18-2.13,15.812,15.812,0,0,1-.3-7.091,2.056,2.056,0,0,1,2.044-2.163c11.291,0,11.187-.45,11.187,5.582,0,4.367,3.152,7.419-8.742,8.118a215.712,215.712,0,0,1-25.533-.455c-3.526-.244-2.281-8.21-1.991-12.889a1.216,1.216,0,0,1,1.263-1.14c11.764,0,11.925-1.937,11.925,9.5.006.8.27,2.953-1.956,3.073-2.964,0-23.823,2.509-35.143,2.055a2.3,2.3,0,0,1-2.159-2.149c-.631-13.5-1.883-13.5,12.107-13.5,3.853.411,3.321,6.75,2.96,10.7a2.406,2.406,0,0,1-2.067,2.169c-78.777,10.793-184.176.4-276.011,7.353-8.417-.185-7.492-15.277.912-15.743,57.556-2.515,116.988-5.033,174.691-3.427a1.069,1.069,0,0,1,.286.048c7.951,2.541,5.314,14.408-2.925,14.328L75.282,171.019c-18.9,1.039-18.712,16.672-17.9,33.835.51,24.333-.843,49.1.414,73.278a3.686,3.686,0,0,0,3.687,3.479c44.018,0,87.806-.3,132.372.409a3.937,3.937,0,0,0,4-3.719q1.781-33.7.856-67.474a3.767,3.767,0,0,0-3.6-3.658c-44.144-1.887-90.144-1.509-132.714-1.487a3.734,3.734,0,0,0-3.729,3.639c-1.467,55.136-3.555,109.534-2.636,164.79a8.36,8.36,0,0,0,8.539,8.228c42.467-.932,85.961,1.4,127.761-1.824a3.86,3.86,0,0,0,3.538-3.6c1.473-21.388.3-43.378.587-65.022a6.919,6.919,0,0,0-6.766-7.016L60.167,302.072a3.858,3.858,0,0,0-3.942,3.915l1.791,121.125a3.857,3.857,0,0,0,3.856,3.8c43.941,0,87.044-.15,131.115-.151,4.326.68,4.176-6.136.481-6.221-43.707-.212-88.505,1.164-131.968-.165-5.637-.484-1.85-14.2-2.8-18.3a2.872,2.872,0,0,1,2.869-2.881c43.865.011,87.912.266,131.824.277,3.664-.1,4.033,6.214-.052,5.816-33.911,1.352-73.2-.716-107.495.216a.975.975,0,0,0,.007,1.949c42.47.935,123.5-1.977,147.584-3.267a2.582,2.582,0,0,0,2.432-2.673c-2.479-59.664-8.972-56.945-12.8-115.006a.863.863,0,0,1,.767-.878c25.439-4.18,49.472-7.579,75.51-11.384,4.541-.345,7.383,6.58,12.38,5.316,5.3-.036,5.969-6.241,9.079-6.924l57.419-6.265a2.99,2.99,0,0,1,3.179,2.563c12.309,61.138,10.653,47.609,21.749,104.814a3.73,3.73,0,0,1-3.055,4.3c-49.82,9.042-142.837,22.839-157.243,24.918-5.035.788-4.818-2.039-5.345-4.552-8.424-58.754-8.48-48.322-14.089-110.241a2.744,2.744,0,0,1,2.234-2.9c29.784-5.821,49.707-6.85,73.66-11.5a3.859,3.859,0,0,0,3.052-2.828c3.6-11.41,20.888-6.192,15.609,5.668-4.035,7.787-15.333,2.236-14.245-4.672.322-2.939,3.762-6.453,4.311-9.437a1.131,1.131,0,0,0,.017-.189c.29-32.9-1.5-137.108-1.432-170.386-.272-5.7-5.21-9.382-4.953-14.889,1.352-12.762,17.292-2.892,9.5,5.359-4.633,4.34-11.949-1.793-8.366-6.912a.775.775,0,0,1,.122-.136c1.93-1.718,3.277-6.225,3.171-7.938-.187-3.012,1.365-10.6,2.187-16.143a.964.964,0,0,0-1.681-.774c-3.531,4.06-10.008,9.7-10,9.956a2.812,2.812,0,0,0,1.866,4.851c60.642.989,123.519,2.737,183.736.487a1.058,1.058,0,0,0,.93-.64c7.374-17.109,13.9-32.611,20.474-50.826,2.359-6.535,2.906-6.336,1.989-8.478S501,7.218,501.776,4.162a4.264,4.264,0,0,1,3.646-3.156,1.584,1.584,0,0,1,.331.006c8.7,1.007,1.883,14.335-3.666,5.306-.8-1.841-135.48,41.2-150.2,45.368a4.06,4.06,0,0,0-2.138,1.64c-5.365,9.679,8.209,31.965-20.407-.892-.248-.257-.494-.173-.537.181.008,27.01,1.645,17.654-19.511,1.1-.68-.532-.532-.974.331-.974,45.533-.018,99.052-.334,144.248-.272,20.522.7,13.611-3.8,25.439,14.934a1.947,1.947,0,0,1-1.572,3.1c-8.8,0-15.879,1.1-18.111-1.569-4.486-5.363-4.809-6.056-11.871-15.611-1.626-.951-.808,13.592-.908,15.924.409,4.127-20.155-20.449-19.947-15.011-.054,27.527.48,12.826-17.787-.816a1.282,1.282,0,0,0-2.094.968c.591,26.973-.131,12.422-17.169-1.027-5.365-2.7-2.511,13.122-2.727,15.718-.556,3.057-15.5-14.63-17.228-15.96-6.016-3.581,2.18,19.8-3.072,15.884L352.04,53.524a1.1,1.1,0,0,0-1.873.731l-.594,12.134c-.018.5-.515,3.6-.01,3.6,85.186,0,185.66,5.393,267.4-2.295a.707.707,0,0,0,.55-1.032c-5.087-9.678-10.539-19.077-15.224-28.945a5.216,5.216,0,0,0-5.073-2.958c-12.689.884-24.366,1.032-37.3,1.032-1.62,0-3.133-.162-4.519.885a.937.937,0,0,0-.242.277c-5.63,9.645-10.185,20.85-15.144,31.658-1.187,2.432.01,3.005,1.284,3,3.4.225,15.367.9,15.882-1.958-.613-50.963-4.968-35.278,25.441.308,4.056,4.15.632-25.534,1.383-28.413,0-2.96-.6-3.687-1.411-4.616a1.061,1.061,0,0,0-.439-.3c-24.47-8.885-50.163-18.452-74.535-26.335a.7.7,0,0,0-.885.844c4.947,18.5,9.624,43.13,11.254,57.761a.892.892,0,0,1,.006.114c-1.13,111.367-.053,223.544-1.957,335.017a.938.938,0,0,0,.27.693c1.8,1.726,6.981-1.563,7.615,3.854.007.059-.008.119,0,.179.46,5.466-.4,18.782-1.214,24.949a2.946,2.946,0,0,1-2.867,2.552c-16.419.3-30.724.036-47.294-.18a1.074,1.074,0,0,1-1.053-.928c-1.22-9.627.671-18.817.435-28.681a1.5,1.5,0,0,1,1.494-1.442c13.418,0,27.839.282,40.846,0,3.463-.192.5-17.85,1.291-21.239.863-3.661-33.637.791-37.985.258-.944.053,1.708-1.2,2.463-1.774,2.821-2.133,2.789-2.066,4.012-3.122a237.7,237.7,0,0,0,32.244-34.19c.764-1,1.366-2.07.12-1.92l-37.191,3.727c-1.466.177.79-2.259,1.774-3.36-.364-.864,39.834-35.95,35.544-36.29-2.453-.37-40.671,4.5-35.995-.711,1.771-3.594,43.816-35.141,36.167-36.389-8.878.239-25.752.492-34.538.743-9.268-2.6,45.264-36.655,30.67-37.627-9.36.089-22.343.433-31.124.463a1.354,1.354,0,0,1-.958-2.312c-7.629,6.741,42.109-35.167,34.059-37.24-3.728-.051-36.08,4.32-34.227.576,3.861-4.507,43.437-34.383,35.538-37.511-9.32.463-26.431,2.208-34.761,2.527-9.661,1.274,42.525-46.842,34.479-45.778-59.176,3.745-30.935,6.215.983-43.175a.174.174,0,0,0-.149-.271c-10.6.4-23.06-.965-33.088.7a.941.941,0,0,0-.781.866c-7.685,109.2,4.562,238.238-9.557,340.53a1.143,1.143,0,0,0-.011.138c-.207,8.843-.755,13.567-.936,21.869-.01.451-.383,1.339-.835,1.327-1.978-.1-11.341-.035-13.117-.12-2.543-.108-2.793,2.638-2.852,4.972,0,.04.008.077.006.117-.091,3.648-.942,9.522,2.694,10.2,27.162-.977,57.475-.871,81.655-1.73a1.946,1.946,0,0,0,1.837-1.851c.513-15.121.228-12.053-18.445-12.034a.091.091,0,0,0-.049.169c9.5,4.615,39.272-14.542,51.555-3.674" transform="translate(-20.874)" fill="none" stroke="#333" stroke-miterlimit="10" stroke-width="2"/>
						</svg>