						<svg xmlns="http://www.w3.org/2000/svg" width="715.438" height="451.96" viewBox="0 0 715.438 451.96">
							<path id="servicesWord1" data-name="Path 38317" d="M70.694,446.188c25.467-5.5,56.035-17.318,69.344-17.37,26.807-.106,32.317-.318,37.4-1.642s9.748-3.761,12.45-6.41,3.444-5.51,3.338-9.245-1.06-8.344-7.258-26.436-17.642-49.667-24.158-68.21-8.106-24.052-8.026-27.39,1.828-4.5,19.231-4.238,50.462,1.96,68.581,3.444,21.3,2.755,27.284,11.073,14.781,23.681,22.516,34.966,14.41,18.49,21.562,23.681a66.406,66.406,0,0,0,22.993,10.49,162.536,162.536,0,0,0,23.893,3.867c6.887.689,11.867,1.007,15.046,1.642s4.556,1.589,6.675,5.96,4.98,12.159,8.847,24.476,8.741,29.165,11.629,37.588,3.788,8.424,4.609,8.132a2.192,2.192,0,0,0,1.589-2.225c.026-1.351-.662-3.47-.795-4.821s.291-1.934,7.987-3.788,22.662-4.98,35.4-7.655,23.258-4.9,28.807-6.344,6.132-2.106-.821-2.715-21.443-1.166-35.813-2.172-28.622-2.464-36.171-3.47-8.4-1.563-8.874-2.424a6.314,6.314,0,0,1-.583-2.914c0-.887.106-1.5,1.563-1.576s4.265.371,17.907,1.894,38.118,4.119,53.694,5.417,22.251,1.3,25.933,1.96,4.371,1.987,4.185,3.867-1.245,4.318-15.39,9.245S443.9,445.188,427.95,449.373s-20.609,5.139-24.767,5.377-7.814-.238-42.913-4.715-101.639-12.953-136.817-17.562-38.992-5.351-41.588-6.914-3.973-3.947-11.682-24.45-21.748-59.124-30.887-84.554-13.377-37.668-15.5-43.787-2.119-6.119,24.529-4.848,79.945,3.814,119.043,5.669,64,3.02,76.713,4.026,13.245,1.854,15.92,11.788,7.5,28.953,11.655,44.158,7.655,26.6,9.589,32.476,2.3,6.251,3.179,4.265a45.507,45.507,0,0,0,2.861-10.861c.609-4.53.45-9.245.53-15.311a139.782,139.782,0,0,1,1.854-22.066,184.122,184.122,0,0,1,6.41-25.4c2.358-7.073,4.477-11.47,7.655-15.761s7.417-8.477,10.6-14.384,5.3-13.536,7.1-20.37,3.285-12.874,5.669-20.291,5.669-16.211,8.371-23.231a143.775,143.775,0,0,1,7.311-16.847c2.49-4.583,5.351-8.5,9.483-10.993s9.536-3.55,13.907-4.026a33.032,33.032,0,0,1,9.8.079c2.093.45,2.94,1.245,3.788,3.258a35.316,35.316,0,0,1,2.013,7.47c.318,2.225.106,3.444-1.669,3.338s-5.112-1.536-9.086-2.225a33.7,33.7,0,0,0-11.311-.053c-2.728.583-3.576,1.7-3.656,2.543s.609,1.43,4.026,1.7,9.563.212,14.172.887,7.682,2.079,10.384,4.636,5.033,6.265,7.7,8.94a28.169,28.169,0,0,0,7.881,5.391c2.225,1.073,3.682,1.576,3.96,2.238s-.622,1.483-5.126-.026-12.609-5.351-17.973-7.854-7.987-3.669-11.947-4.331a41.971,41.971,0,0,0-12.344-.252c-3.086.57-3.96,1.867-3.894,2.675s1.073,1.126,4.45,1.311a131.568,131.568,0,0,1,14.357,1.086,56.615,56.615,0,0,1,14.423,4.516,65.463,65.463,0,0,1,11.1,6.225c2.384,1.788,2.914,2.954,2.609,3.96s-1.444,1.854-3.536,1.775-5.139-1.086-9.192-2.49a145.759,145.759,0,0,0-14.238-4.41,64.724,64.724,0,0,0-14.172-1.8c-3.854.013-6.371.649-7.642,1.444s-1.3,1.748-.159,2.225,3.444.477,7.165.49a93.68,93.68,0,0,1,13.668.781,52.692,52.692,0,0,1,12.291,3.5c3.007,1.3,4.543,2.437,4.98,3.682s-.225,2.6-1.987,3.377-4.622.993-7.934,1.152a59.983,59.983,0,0,0-10.384,1.033,18.871,18.871,0,0,0-8.821,4.636,57.081,57.081,0,0,0-7.549,9.457,66.2,66.2,0,0,0-6.914,11.894c-1.96,4.609-3.391,10.119-4.715,13.907a21.019,21.019,0,0,1-4,7.5c-1.457,1.642-3.152,2.861-7.179,3.47a61.669,61.669,0,0,1-14.993,0c-4.609-.609-7.47-1.828-8.741-3.258s-.954-3.073.371-6.225a114.328,114.328,0,0,1,5.3-10.675c1.642-2.861,2.6-3.92,4.053-2.834s3.417,4.318,5.7,6.49a10.654,10.654,0,0,0,7.867,3.205,17.739,17.739,0,0,0,9.139-3.258c2.755-1.907,4.874-4.45,6.3-4.583s2.172,2.146,1.775,5.324-1.934,7.258-4.132,13.271a119.5,119.5,0,0,0-6.49,23.2c-1.43,9.245-1.43,19.787-1.43,27.973s0,14.013-1.007,17.721-3.02,5.3-5.3,5.43-4.821-1.192-7.364-2.225a15.063,15.063,0,0,0-8.741-1.192,25.234,25.234,0,0,0-12.635,6.331c-4.212,3.841-7.867,9.616-10.039,12.768s-2.861,3.682-3.973,1.007-2.649-8.556-3.258-17.165a159.12,159.12,0,0,1,1.033-29.959,99.8,99.8,0,0,1,7.841-28.238c4.185-9.536,10.225-19.92,14.993-29.456a297.021,297.021,0,0,0,12.45-29.3c4.185-11.073,9.059-24.529,12.953-34.251s6.808-15.708,10.145-19.893a25.155,25.155,0,0,1,11.973-8.318,58.082,58.082,0,0,1,15.867-3.1c5.006-.238,9.033.4,11.973.371s4.795-.715,6.093-2.225,2.04-3.841,2.887-5.457a5.646,5.646,0,0,1,4.106-3.152c2.3-.636,5.96-1.007,8.45-3.285s3.814-6.463,4.238-9.933-.053-6.225-1.722-13.668-4.53-19.576-6.41-29.138-2.781-16.556-2.808-21.8.821-8.741,1.96-11.073,2.569-3.5,5.616-1.96,7.708,5.775,13.218,8.821A44.229,44.229,0,0,0,534.384,79.5c5.748.424,10.887-.583,15.47-3.656s8.609-8.212,12.264-11.6,6.94-5.033,9.218-3.682,3.55,5.7,3.735,10.251-.715,9.324-.954,13.059.185,6.437,2.649,8.821,6.967,4.45,9.589,6.463,3.364,3.973,4.185,9.3,1.722,14.013,2.569,21.324,1.642,13.245.5,20.238-4.212,15.046-9.457,23.708S571.5,191.659,564.794,197.38s-12.688,7.894-17.456,8.45-8.318-.5-10.119-2.808-1.854-5.854.079-10.278,5.854-9.722,8.132-13.4,2.914-5.748,2.834-7.761-.874-3.973-4.291-6.437-9.457-5.43-16.079-7.788a122.44,122.44,0,0,0-19.576-5.086,69.846,69.846,0,0,0-13.615-1.113c-3.576.079-6.437.45-8.265,2.887s-2.622,6.94-2.861,12.132a53.992,53.992,0,0,0,1.457,16.105,23.25,23.25,0,0,0,7.894,12.5c4.079,3.285,9.8,5.669,14.781,7.126A50.591,50.591,0,0,0,520,204c3.073.106,4.98-.212,5.7-1.351s.238-3.1-4.265-5.006-13.033-3.761-18.436-4.556-7.682-.53-8.477.98-.106,4.265,2.967,6.649,8.53,4.4,13.774,5.3a35.5,35.5,0,0,0,14.569-.4,24.388,24.388,0,0,0,11.443-6.516,64.587,64.587,0,0,0,10.039-13.192,46.452,46.452,0,0,0,5.51-13.033c.821-3.788.556-6.861-2.569-10.066s-9.112-6.543-16.105-8.9a141.406,141.406,0,0,0-19.92-4.609c-4.927-.874-6.781-1.245-8.715-3.55s-3.947-6.543-6.225-14.649a278.024,278.024,0,0,1-6.728-33.218c-1.907-13.139-3.179-27.443-1.192-38.966S498.6,38.657,505.458,30.9a89.093,89.093,0,0,1,23.814-19.1,55.027,55.027,0,0,1,25.8-6.993,42.909,42.909,0,0,1,26.277,8c8.212,5.987,15.417,15.841,20.582,27.522a135.447,135.447,0,0,1,9.642,35.681c1.351,10.49.927,17.96-.821,24.264s-4.821,11.443-6.861,15.284-3.046,6.384-3.391,8.9a11.2,11.2,0,0,0,.98,6.808c1.007,1.8,2.7,2.914,5.377,1.351s6.331-5.8,8.742-11.735a57.264,57.264,0,0,0,3.656-19.1c.079-5.536-.927-8.98-3.364-10.755s-6.3-1.881-9.88,2.013-6.861,11.788-8.265,19.258A51.715,51.715,0,0,0,597.905,132c1.086,5.192,2.781,8.53,5.96,11.814s7.841,6.516,11.39,11.126,5.987,10.6,7.47,15.523a29.309,29.309,0,0,1,1.324,13.589c-.689,4.795-2.6,10.516-8.53,19.946a330.638,330.638,0,0,1-22.013,29.906c-6.119,7.338-8.4,8.874-10.49,9.086s-4-.9-5.563-4.371-2.781-9.3-4.106-12.98-2.755-5.218-5.139-4.371-5.722,4.079-9.086,9.033-6.755,11.629-10.066,16.476A33.414,33.414,0,0,1,538.145,257.3c-4.371,2.649-9.881,4.927-12.98,7.417a11.825,11.825,0,0,0-4.212,6.675c-.424,1.483-.583,1.748-1.881-.265s-3.735-6.3-7.549-13.642-9.006-17.721-11.39-23.92-1.96-8.212-.371-9.589,4.344-2.119,8.741-4.026,10.437-4.98,13.668-6.41,3.655-1.219,4,2.252.609,10.2,1.324,18.6,1.881,18.463,2.675,25.244a106.368,106.368,0,0,1,1.06,17.774,271.126,271.126,0,0,1-2.728,31.628c-1.828,12.635-4.742,26.41-6.781,34.568s-3.205,10.7-4.848,12.159a5.051,5.051,0,0,1-5.165,1.192c-1.4-.636-2.093-2.278-2.2-4.848s.371-6.066,2.887-18.675,7.073-34.33,10.225-49.853,4.9-24.847,7.47-34.171,5.96-18.648,12.9-25.218,17.43-10.384,26.542-14.94,16.847-9.854,22.357-16.158a47.447,47.447,0,0,0,10.543-21.668c1.748-8.053,1.96-16.847,3.444-21.668s4.238-5.669,7.046-5.51,5.669,1.324,8.53,6.2,5.722,13.457,8.582,19.231,5.722,8.741,12.635,12.635,17.88,8.715,27.814,13.536,18.834,9.642,23.681,12.688,5.642,4.318,5.324,5.642-1.748,2.7-3.868,3.92-4.927,2.278-8.5,3.841a78.093,78.093,0,0,0-12.318,6.569,61.445,61.445,0,0,0-13.033,11.761c-4.185,5.006-8.106,11.2-12.371,19.443a171.984,171.984,0,0,0-11.973,28.9,159.733,159.733,0,0,0-5.563,29.774c-.874,8.9-1.033,16.211.344,21.748a18.179,18.179,0,0,0,8.768,11.947c4.477,2.649,10.516,4.185,15.576,7.179s9.139,7.443,12.874,13.324a117.716,117.716,0,0,1,9.457,19.152c2.331,5.96,3.6,10.569,4.98,12.953s2.861,2.543,5.351,1.907a23.993,23.993,0,0,0,9.139-4.689c3.152-2.622,5.96-6.437,8.4-12.9s4.5-15.576,6.6-28.344a324.96,324.96,0,0,0,4.5-46.383,353.62,353.62,0,0,0-3.391-51.336c-2.146-16.185-4.9-30.6-8.609-38.754s-8.371-10.066-14.993-9.8-15.2,2.7-24.609,10.649-19.629,21.4-26.807,37.933S628.13,299.1,626.487,313.244s-.795,22.834,1.007,28.979,4.556,9.748,7.655,12.106,6.543,3.47,10.437,5.536a35.505,35.505,0,0,1,12.662,11.179c4.424,6.092,8.927,15.258,12.106,22.383s5.033,12.212,7.205,15.1,4.662,3.576,7.947,3.656a23.8,23.8,0,0,0,10.49-1.987c3.126-1.536,5.3-4.079,6.6-9.271a37.3,37.3,0,0,0-1.4-21.562c-3.126-8.53-9.8-17.748-17.059-24.211a48.691,48.691,0,0,0-22.3-11.655c-7.205-1.483-13.774-.742-21.4,2.225s-16.317,8.159-27.178,11.231-23.893,4.026-41.376,4.5-39.416.477-55.336.636-25.827.477-33.509.636a139.9,139.9,0,0,1-18.86-.477,66.084,66.084,0,0,1-16.105-3.656c-4.4-1.748-7.205-3.973-10.092-4.848s-5.854-.4-8.424-.265a15.885,15.885,0,0,1-6.834-.9c-2.093-.821-4.106-2.252-6.357-2.834s-4.742-.318-8.53,2.119A69.954,69.954,0,0,0,395.236,363.1c-3.709,4.185-6.04,7.947-7.046,11.947a19.1,19.1,0,0,0,.45,11.1c1.139,2.861,3.1,4.344,4.953,4.371s3.6-1.4,6.278-5.324,6.278-10.331,9.457-14.145,5.934-5.033,8.053-5.351,3.6.265,2.172,2.808-5.775,7.046-8.45,11.125-3.682,7.735-3.576,10.7,1.324,5.245,3.55,6.251,5.457.742,8.291-1.907,5.271-7.682,7.391-11.364,3.92-6.013,5.43-7.073,2.728-.848,2.6.636-1.616,4.238-.821,7.046,3.867,5.669,9.165,9.563a166.365,166.365,0,0,0,18.913,12.026c6.093,3.205,10.755,4.689,16.635,4.53s12.98-1.96,18.7-3.973,10.066-4.238,16.158-4.132,13.933,2.543,21.4,4.953,14.569,4.795,26.6,6.41,28.979,2.464,52.21,2.755,52.74.026,83.812-.106,59.894-27.829,87.743-5.852" transform="translate(-70.483 -3.8)" fill="none" stroke="#333" stroke-miterlimit="2.613" stroke-width="2"/>
						</svg>