						<svg xmlns="http://www.w3.org/2000/svg" width="507.849" height="429.895" color="red" viewBox="0 0 507.849 429.895">
							<path id="technologiesWord4" data-name="Path 38310" d="M133.629,395.526c119.231.071,15.763-.425,135.031-.391a4.243,4.243,0,0,0,3.772-6.2c-11.3-21.749-24.031-24.378-7.134-39.382,5.487-2.612,13.251,5.056,8.732,9.116-19.815-6.829-12.6-32.311,5.461-36.681,9.493-2.9,19.7-1.5,29.526-.065,17.89,2.608,35.868,5.237,53.116,10.655,11.243,3.532,22.413,8.288,34.2,8.313,25.137.054,44.679-21.248,54.645-44.96a1.331,1.331,0,0,0-2.306-1.3c-11.646,16.407-25.963,35.7-44.479,41.8a22.615,22.615,0,0,1-12.335.512c-36.7-8.8-70.491-32.683-102.605-51.86-13.071-6.092-38.2-31.394-52.785-23.435a1.376,1.376,0,0,1-1.842-1.893,19.228,19.228,0,0,1,19.485-8.955,1.815,1.815,0,0,1,.328,3.457c-26.461,10.62-27.8-8.186,4.962-12.472a2.572,2.572,0,0,1,2.8,3.319c-1.013,2.96-4.506,5.327-7.624,4.256-10.43-5.906-1.25-14.922,7.607-9.908.525.3.781-.827.247-1.1-39-20.272-47.384,5.125-68.92,30.464a4.018,4.018,0,0,0,2.332,6.563s28.21,5.611,38.092,7.407c14.949,2.717,15.093-1.439,22.282-7.8a1.069,1.069,0,0,1,1.719,1.161l-4.285,11.677a6.422,6.422,0,0,1-6.4,4.207,618.834,618.834,0,0,1-69.079-8.1,2.871,2.871,0,0,1-1.55-4.829l37.836-38.837a4.306,4.306,0,0,0-2.153-7.208,130.1,130.1,0,0,1-24.562-8.161,3.06,3.06,0,0,1,.476-5.734c6.089-1.726,11.7-4.715,17.432-7.4,1.81-.849,5.066-2.11,11.166-4.872,1.02-.462,2.549-1.119,3.807-1.826,1.736-.976,2.272-3.017,2.451-4.833.14-1.437.251-3.134.524-5.011l.062-.466a158.14,158.14,0,0,0,1.985-24.4,4.353,4.353,0,0,0-5.664-4.111,751.613,751.613,0,0,1-75.5,19.419,7.076,7.076,0,0,1-8.483-7l1.356-137.3c.031-3.1,1.652-7.347,6.942-7.688,1.692-.109,3.344-.6,5.036-.707,18.747-1.211,37.6-4.487,56.518-5.463,44.668-5.884,87.383-8.5,131.174-11.129a9.143,9.143,0,0,1,9.661,8.594q.021.368.013.735l-2.215,102.5a10.036,10.036,0,0,1-8.254,9.666c-33.581,6.04-67.619,13.448-99.294,25.546a5.238,5.238,0,0,0-3.334,5.254c.635,9.472,2.01,19.01,2.965,28.506a4.157,4.157,0,0,0,4.557,3.712c.054-.006.109-.012.163-.02l24.12-3.4a3.916,3.916,0,0,1,4.369,3.023c4.551,20.294,42.068,32.338,57.744,44.02a16.623,16.623,0,0,0,15.9,2.244l70.8-19.674a1.031,1.031,0,0,0-.342-2.021c-26.134,1.885-51.549,10.167-76.926,17.108-3.239,1.331-6.26.04-8.133-2.812a60.011,60.011,0,0,0-28.444-18.805,55.628,55.628,0,0,1-7.334-2.5,3.391,3.391,0,0,1,.68-6.341,503.722,503.722,0,0,1,66.98-12.065,1.586,1.586,0,0,0,1.1-2.535c-1.666-2.144-2.277-5.066-.7-7.194,1.7-2.289,5.761-1.228,6.866.893a1.13,1.13,0,0,1-1.6,1.469,7.194,7.194,0,0,1-2.839-8.229c2.216-5.859,10.382-5.9,16.563-4.882,4.641,1.294,10.586.487,14.462,3.474,2.392,3.084-2.749,6.866-6.591,6.184-2.947-.523-5.92-2.084-8.786-2.14a1.252,1.252,0,0,1-1-1.953,132.83,132.83,0,0,1,28.983-30.765,1.108,1.108,0,0,1,1.551.214,1.093,1.093,0,0,1,.172.332c1.314,4.137-1.894,8.893-4.951,12.384-7.127,7.05-12.56,16.667-20.859,22.191-3.735.873-12.379-3.558-12.589,2.959.431,2.152,4.126,1.256,6.058,2.3,2.548,1.5,4.813,6.8,7.862,4.344,1.223-1.16.327-3.86-1.321-3.512-3.158-.059-5.113,4.313-3.356,6.937,3.9,4.825,10.028,1.231,11.287-3.753a1.11,1.11,0,0,1,2.145,0c1.427,4.936-.744,11.09-6.435,9.658a.1.1,0,0,0-.089.173c2.247,1.9.6,6.837-2.533,6.553-4.27-.388-4.352-6.569-6.958-10.065a.821.821,0,0,1,.491-1.311,3.482,3.482,0,0,1,3.769,2.919c-.054,6.8-10.421,7.3-13.549,2.271-2.377-3.275-1.96-9.166,1.8-11.212,1.283-.352,2.479.913,2.85,2.191,1.459,7.7-7.047,9.822-12.932,13.145a1.008,1.008,0,0,1-1.377-1.366l3.83-7.014a1.06,1.06,0,0,0-1.226-1.528,473.767,473.767,0,0,1-53.725,12.06,2.236,2.236,0,0,0-.678,4.186c9.885,5.282,19.455,11.7,29.91,15.318a13.317,13.317,0,0,0,6.386.563c22.735-3.511,46.338-11.032,65.279-14.507a2.617,2.617,0,0,0,.807-4.86c-7.227-4-13.268-11.134-13.324-18.747a4.7,4.7,0,0,1,3.6-4.573c9.535-2.274,21.3,1.381,30.64,5.757a5.326,5.326,0,0,1,2.51,7.1c-.03.064-.062.127-.1.19a53.344,53.344,0,0,0-3.458,8.469.893.893,0,0,0,1.552.812c6.218-7.677,6.824-19.224,11.984-28,11.05-16.949,37.165.2,45.035,14.18a.817.817,0,0,0,1.513-.29c2.633-15.652-19.944-22.618-34.282-25.034a1.17,1.17,0,0,1-.254-2.239,83.969,83.969,0,0,0,30.917-21.53,14.162,14.162,0,0,1,12.771-4.561c17.669,2.9,45.349,3.057,56.3-9.1a1.674,1.674,0,0,0-1.853-2.663c-17.909,6.488-38.314,9.651-56.777,5.416a4.2,4.2,0,0,1-3.171-4.757l.007-.042c1.214-7.7-4.093-15.8-11.481-18.07a11.02,11.02,0,0,0-3.1-.427c-29.63-.366-9.827-14.1-17.013-18.907a1.851,1.851,0,0,1-.2-2.925,6.779,6.779,0,0,1,2.077-1.241.8.8,0,0,0,.46-1.034.819.819,0,0,0-.207-.3,6.5,6.5,0,0,1-1.466-7.474.8.8,0,0,0-.655-1.164c-2.581-.24-4.794-2.484-5.594-5.035a5.748,5.748,0,0,1,2.335-6.352c5.584-3.891,11.058-9.281,8.273-16.791-3.57-6.365,4.81-8.532,1.963-15.439-.561-4.041-.447-9.383,1.336-13.532a6.071,6.071,0,0,1,8.717-2.681c4.573,2.778,8.623,6.988,9.575,11.819,1.012,6-3.015,12-1.988,17.994.968,5.655,6.28,10.543,6.818,15.836a1.482,1.482,0,0,0,2.79.542c2.491-4.742.852-14,6.427-15.088,14.935-.081,3.387,37.969-7.683,28.682a1.028,1.028,0,0,1-.136-1.447,1.013,1.013,0,0,1,.32-.258c11.228-5.718,14.533-22.061,5.16-30.757a2.683,2.683,0,0,0-3.3-.246,11.835,11.835,0,0,0-5.037,7.7.747.747,0,0,1-1.28.4c-6.255-6.6,3.921-19.641.291-28.949-2.341-6-9.483-8.2-14.752-11.907s-8.142-13.147-2.222-15.7c10.818-1.156,11.38,5.326,27.493-.242C519.229-.921,545.838-.347,557.59,17.245c2.763,5.077,2.767,12.249-1.745,15.86-12.254,6.843-17.973-12.361-2.978-10.955,23.208,9.892,11.984,54.251-1.417,69.019-14.334,14.945-32.292,10.877-42.881-4.513a.663.663,0,0,0-1.182.569c4.874,15.6,25.5,18.662,39.672,12.938a1.238,1.238,0,0,1,1.591,1.676c-2.7,5.737-1.37,13.265,2.4,18.737,8.617,12.487,26.23,16.114,35.278,28.092a2.3,2.3,0,0,1-1.66,3.689c-27.34,2.039-57.573,13.35-56.4,45.59-2.988,30.191-.821,63.027-15.037,90.474-9.744,18.142-26.628,31.473-37.443,49a86.645,86.645,0,0,0-12.828,45.5c2.349,24.073-1.637,46.329-30.848,44.722-37.9-8.642-72.009-30.891-108.163-45.1-5.382-2.431-11.535-6.846-13.076-11.835a4.7,4.7,0,0,1,4.533-6.029c23.694.113,84.789,15.053,96.757,36.179a3.874,3.874,0,0,1-4.569,5.534c-26.852-8.313-88.991-24.4-100.567-48.268a9.144,9.144,0,0,1,7.318-12.954c45.43-5.005,93.667,8.551,134.736,28.906a5.417,5.417,0,0,0,7.807-4.728,69.874,69.874,0,0,1,11.168-35.965c24.453-31.923,76.007-64.984,32.334-104.412-6.711-5.977-12.266,1.1-12.935,8.577-3.865,20.916-18.983,42.5-35.879,41.4-17.393-1.727-35.606-7.074-43.8-18.471-.479-2.2.614-4.414,1.673-6.4l13.671-25.7a1.083,1.083,0,0,1,2.01.756c-5.665,23.738-18.162,45.784-34.022,63.654a32.019,32.019,0,0,0-1.339,16.082,2.3,2.3,0,0,0,4.4.5c3.849-9.456-8.7-19.461-18.246-21.51l-76.005-28.1c-4.431-1.637-9.086-3.434-12.033-7.125-4.543-5.689-4.147-14.811-10.07-19.043-9.236-4.533-9.56,8.471-.116,3.4,6.541-5.83,10.837-3.432,12.7,4.743,8.576,23.566,79.4,31.487,101.328,47.786,12.757,12.817,23.006-12.025,25.434-25.345a2.5,2.5,0,0,1,4.007-1.526c10.614,8.311,24.231,14.445,37.759,14.611a28.349,28.349,0,0,0,19.119-7.232c14.21-12.636,23.845-34.639,19.851-52.358a2.4,2.4,0,0,1,3.845-2.438,66.227,66.227,0,0,1,16.343,20.247,1.686,1.686,0,0,0,3.188-.764l.089-48.554c-1.784-16.391,8.485-25.788,23.916-29.223,16.2-3.022,62.692-24.572,75.6-12.48,3.683,3.361,23.07,22.063,19.037,61.221l-.172.93c-4.324,34.962-41.084,82.082-55.2,114.357-14.745,33.7-4.063,73.87-16.346,108.546" transform="translate(-133.626 0.044)" fill="none" stroke="#000000" stroke-miterlimit="50" stroke-width="2.1"/>
						
                        
                        
                        </svg>